{"glyphs":{"0":{"ha":619,"x_min":446,"x_max":971,"o":"m 706 636 q 672 631 685 635 q 571 514 614 608 q 524 306 526 417 q 565 121 521 189 q 700 56 610 50 q 847 144 794 61 q 894 347 899 228 q 840 544 892 463 q 706 636 788 626 m 761 701 q 874 623 826 681 q 944 495 922 565 q 969 350 967 425 q 956 224 971 285 q 912 108 942 163 q 828 19 882 54 q 706 -19 775 -15 q 501 79 571 -28 q 449 307 446 168 q 503 546 451 436 q 647 700 560 668 q 679 708 660 706 q 697 713 688 713 l 704 713 q 725 715 722 714 q 761 701 747 718 z "},"1":{"ha":288,"x_min":538,"x_max":635,"o":"m 635 654 q 613 33 618 265 q 601 8 613 18 q 574 -3 590 -3 q 548 8 558 -3 q 538 36 538 19 q 560 657 543 268 q 572 683 561 672 q 599 692 583 693 q 624 681 614 692 q 635 654 635 669 z "},"2":{"ha":706,"x_min":446,"x_max":1054,"o":"m 594 601 q 711 682 639 651 q 850 711 783 713 q 968 654 931 707 q 979 497 1008 596 q 825 269 949 397 q 626 90 756 199 l 585 56 q 775 63 614 57 q 1017 64 924 69 q 1044 51 1033 63 q 1053 24 1054 40 q 1040 -2 1051 8 q 1014 -11 1029 -12 q 778 -12 924 -6 q 538 -19 590 -19 q 529 -21 536 -19 q 510 -24 515 -22 q 449 7 464 -28 q 447 17 447 11 q 446 26 446 22 q 447 32 446 29 q 449 36 447 35 l 450 38 q 453 44 451 42 q 456 49 454 46 q 458 50 457 49 l 460 51 l 461 51 l 464 56 l 478 67 l 517 99 l 579 149 q 771 321 706 254 q 907 519 882 435 q 907 611 926 583 q 847 636 890 633 q 740 613 797 638 q 650 551 683 589 q 624 539 640 540 q 597 548 608 538 q 585 574 586 558 q 594 601 583 590 z "},"3":{"ha":714,"x_min":500,"x_max":1064,"o":"m 560 600 q 646 652 590 624 q 758 697 701 681 q 883 715 831 719 q 989 654 957 708 q 943 478 1039 569 q 890 435 921 457 q 1006 382 960 422 q 1064 239 1064 329 q 1003 79 1064 139 q 847 -1 942 19 q 674 -3 764 -18 q 519 51 583 11 q 503 75 507 60 q 508 103 500 90 q 532 120 517 117 q 561 115 547 124 q 686 70 611 82 q 832 72 761 58 q 947 129 906 88 q 989 239 989 171 q 956 326 989 296 q 782 360 897 378 q 756 350 781 360 q 697 346 724 338 q 678 363 685 350 q 676 400 665 381 q 683 409 679 406 q 689 414 686 413 l 692 415 q 701 421 694 418 q 722 428 703 421 q 776 453 757 442 q 892 532 853 496 q 925 615 944 582 q 876 640 913 638 q 781 626 839 643 q 679 585 729 611 q 604 542 629 560 q 576 534 592 532 q 552 549 561 536 q 545 576 543 561 q 560 600 547 592 z "},"4":{"ha":694,"x_min":467,"x_max":1046,"o":"m 804 278 l 808 364 q 817 592 817 501 q 674 411 772 532 l 575 290 l 569 283 l 572 283 q 713 279 622 281 q 804 278 754 278 m 889 701 q 883 360 894 575 l 879 276 l 1008 276 q 1035 265 1024 276 q 1046 239 1046 254 q 1035 213 1046 224 q 1008 201 1024 201 l 875 201 q 868 24 869 97 q 857 -2 868 8 q 830 -12 846 -12 q 803 -1 814 -12 q 793 26 793 10 q 800 203 794 99 q 711 204 751 203 q 568 208 626 206 q 521 213 536 210 q 503 215 510 214 q 492 219 497 217 q 472 239 478 226 q 471 265 467 251 q 475 276 472 271 q 485 294 478 285 q 517 338 494 310 l 615 458 q 806 711 775 654 q 828 729 814 724 q 850 738 838 738 q 876 727 865 738 q 889 701 888 717 z "},"5":{"ha":710,"x_min":526,"x_max":1088,"o":"m 936 615 q 686 615 863 619 l 632 615 l 624 615 l 624 583 q 625 555 624 569 q 627 531 626 540 q 628 519 628 521 q 628 505 628 515 q 630 478 629 494 q 631 450 631 461 l 631 435 l 640 438 q 754 457 708 453 q 1019 343 939 474 q 1050 146 1088 233 q 917 31 1017 71 q 728 -2 833 -1 q 553 26 622 -3 q 532 47 538 32 q 532 76 526 61 q 552 96 538 90 q 581 96 567 101 q 728 72 636 72 q 889 101 817 74 q 981 175 961 129 q 956 304 1003 226 q 760 383 900 394 q 658 364 721 379 q 619 356 629 358 q 603 354 610 354 q 572 364 583 354 q 561 378 565 369 q 560 383 560 381 q 558 388 560 385 l 558 392 l 558 396 q 557 408 557 400 q 556 447 557 422 q 555 474 556 458 q 553 501 554 490 q 553 517 553 513 l 553 528 q 551 553 551 538 q 549 581 550 568 q 550 629 549 610 q 553 651 550 642 q 564 676 556 667 q 573 684 568 681 q 581 688 578 688 l 583 689 q 588 689 585 689 l 590 690 l 592 690 l 593 690 l 594 690 l 596 690 l 606 690 l 632 690 l 683 690 q 939 690 863 694 q 966 678 956 689 q 975 651 976 667 q 963 624 974 635 q 936 615 951 614 z "},"6":{"ha":678,"x_min":501,"x_max":1056,"o":"m 633 67 q 676 38 651 47 q 774 28 717 21 q 878 65 829 36 q 953 138 929 96 q 967 225 976 179 q 928 293 956 276 q 865 299 904 307 q 785 262 826 290 q 717 200 743 233 q 640 78 661 129 q 633 67 638 71 m 853 629 q 719 552 788 629 q 615 360 651 475 q 593 154 578 244 l 593 153 q 658 247 615 193 q 744 324 692 289 q 850 372 796 360 q 965 357 917 386 q 1039 242 1021 324 q 1019 103 1056 165 q 917 1 983 40 q 783 -46 854 -36 q 649 -32 711 -56 q 519 142 543 11 q 543 383 501 250 q 663 601 585 513 q 853 704 753 704 q 879 693 868 704 q 890 667 890 682 q 879 640 890 651 q 853 629 868 629 z "},"7":{"ha":683,"x_min":478,"x_max":1033,"o":"m 613 686 l 771 686 q 924 681 868 685 q 979 672 958 678 q 1003 665 993 669 q 1028 643 1019 657 q 1032 619 1033 632 l 1029 611 q 1026 606 1029 608 q 1025 602 1026 604 q 1021 597 1024 600 l 1010 583 l 976 542 l 915 467 q 740 236 808 335 q 624 22 668 131 q 603 1 618 7 q 574 1 589 -4 q 554 22 560 7 q 554 50 549 36 q 678 278 603 167 q 857 514 747 379 l 918 589 l 931 604 q 917 606 924 604 q 769 611 864 610 l 614 611 q 514 611 531 610 q 488 624 499 613 q 479 651 478 636 q 492 677 481 667 q 519 686 504 688 q 613 686 535 685 z "},"8":{"ha":650,"x_min":474,"x_max":1006,"o":"m 672 401 q 821 519 735 456 l 881 563 q 761 607 810 607 q 699 597 736 607 q 632 568 663 586 q 581 485 567 529 q 631 426 589 456 q 672 401 647 415 m 942 608 l 943 608 q 971 616 956 618 q 996 602 986 614 q 1003 575 1006 590 q 990 550 1001 560 l 936 511 l 865 458 q 743 363 792 404 q 795 332 774 346 q 842 296 817 318 q 881 246 867 274 q 899 186 896 218 q 863 76 904 122 q 758 8 821 29 q 640 -9 706 -12 q 532 25 575 -6 q 481 107 488 58 q 497 200 474 150 q 614 347 529 265 l 586 365 q 508 463 525 410 q 519 561 492 518 q 593 633 546 604 q 680 669 633 656 q 761 682 726 682 q 828 672 794 682 q 879 650 861 661 l 929 621 q 942 608 938 615 m 683 310 q 565 167 593 226 q 554 118 551 138 q 576 86 557 100 q 646 67 601 68 q 733 79 689 64 q 803 122 779 94 q 824 181 826 149 q 790 242 821 214 q 694 303 760 269 l 683 310 z "},"9":{"ha":686,"x_min":518,"x_max":1060,"o":"m 925 578 q 881 607 907 597 q 744 606 811 633 q 635 519 676 579 q 603 417 596 464 q 664 353 610 371 q 753 356 714 335 q 846 436 790 376 q 917 565 890 483 q 925 578 919 572 m 714 13 q 846 90 779 13 q 947 283 913 168 q 967 485 982 397 q 901 386 940 426 l 869 353 q 835 321 857 340 q 793 292 813 301 q 749 276 774 283 q 697 269 724 268 q 639 281 669 271 q 529 407 542 315 q 574 563 518 483 q 719 676 626 639 q 908 676 811 714 q 1039 504 1015 636 q 1018 263 1060 396 q 903 42 979 132 q 714 -62 814 -62 q 688 -51 699 -62 q 676 -25 676 -40 q 688 1 676 -10 q 714 13 699 13 z "}," ":{"ha":376,"x_min":0,"x_max":0,"o":""},"!":{"ha":240,"x_min":493,"x_max":589,"o":"m 588 860 q 575 569 578 749 q 569 275 571 311 q 557 249 568 260 q 531 240 546 239 q 505 251 515 240 q 494 278 494 263 q 500 569 496 318 q 513 865 503 750 q 526 892 514 882 q 553 900 538 901 q 579 887 569 899 q 588 860 589 875 m 557 107 q 568 81 568 96 q 557 54 568 65 q 531 43 546 43 q 504 54 515 43 q 493 81 493 65 q 504 107 493 96 q 531 118 515 118 q 557 107 546 118 z "},"\"":{"ha":460,"x_min":569,"x_max":811,"o":"m 661 918 q 646 776 661 871 q 631 752 643 761 q 603 745 618 743 q 578 760 588 747 q 571 788 569 772 q 586 918 586 876 q 597 944 586 933 q 624 956 608 956 q 650 944 639 956 q 661 918 661 933 m 807 907 q 788 778 794 843 q 774 753 786 763 q 746 744 761 743 q 721 758 731 746 q 713 786 711 771 q 735 921 721 854 q 750 945 738 936 q 778 951 763 954 q 802 935 793 947 q 807 907 811 922 z "},"#":{"ha":428,"x_min":192,"x_max":779,"o":"m 607 494 q 614 660 614 608 q 625 686 614 675 q 651 697 636 697 q 678 686 667 697 q 689 660 689 675 q 683 506 689 608 q 732 514 708 508 q 760 508 747 517 q 776 483 774 499 q 770 455 779 468 q 746 439 761 442 q 679 429 713 433 q 676 368 676 394 q 675 300 675 332 q 736 301 707 301 q 763 290 751 301 q 774 264 774 279 q 763 238 774 249 q 736 226 751 226 q 678 225 708 226 q 701 96 683 151 q 699 67 706 81 q 676 49 692 54 q 648 51 661 44 q 629 74 635 58 q 603 222 610 138 q 414 208 521 218 q 382 85 400 143 q 363 63 376 69 q 335 60 350 56 q 313 78 319 65 q 310 107 306 92 q 335 200 324 151 l 235 189 q 207 197 219 188 q 193 222 194 207 q 201 250 192 238 q 226 264 211 263 l 350 276 q 367 396 360 335 l 282 389 q 255 398 267 388 q 242 424 243 408 q 251 451 240 439 q 276 464 261 463 l 372 471 q 375 596 375 532 q 386 622 375 611 q 413 633 397 633 q 439 622 428 633 q 450 596 450 611 q 447 478 450 535 q 607 494 539 486 m 603 418 q 442 403 535 410 q 428 285 436 342 q 600 297 524 293 q 601 369 600 331 q 603 418 601 392 z "},"$":{"ha":436,"x_min":289,"x_max":793,"o":"m 683 600 q 609 618 658 615 q 511 608 560 621 q 450 574 467 594 q 451 526 438 556 q 514 479 463 506 q 576 452 535 469 q 632 428 617 435 q 693 397 668 413 q 746 356 718 381 q 783 295 774 331 q 783 218 793 260 q 699 115 769 156 q 560 74 640 82 q 405 91 479 67 q 296 178 331 115 q 293 206 289 192 q 311 228 297 221 q 340 232 325 236 q 363 214 354 228 q 435 160 382 178 q 553 149 488 143 q 663 181 617 154 q 711 235 704 204 q 694 302 719 274 q 601 360 668 331 l 543 385 q 481 413 501 403 q 385 493 407 449 q 390 618 349 563 q 490 679 421 660 q 613 693 544 697 q 722 664 682 689 q 740 640 736 656 q 735 612 743 625 q 711 595 726 599 q 683 600 696 592 m 614 22 l 621 -24 q 613 -51 622 -39 q 589 -66 604 -64 q 561 -59 574 -68 q 546 -35 549 -50 l 539 11 q 547 39 538 26 q 571 53 556 51 q 599 47 586 56 q 614 22 611 38 m 586 788 l 592 749 q 584 721 593 733 q 560 706 575 708 q 532 713 544 704 q 517 738 519 722 l 511 776 q 519 804 510 792 q 543 819 528 817 q 571 812 558 821 q 586 788 583 803 z "},"%":{"ha":443,"x_min":383,"x_max":799,"o":"m 792 713 q 458 7 678 492 q 437 -12 451 -7 q 408 -12 422 -18 q 389 9 394 -6 q 389 38 383 24 q 725 746 610 525 q 747 765 732 760 q 776 763 763 769 q 794 740 789 756 q 792 713 799 725 m 493 704 q 504 678 504 693 q 493 651 504 663 q 467 640 482 640 q 440 651 451 640 q 429 678 429 663 q 440 704 429 693 q 467 715 451 715 q 493 704 482 715 m 708 103 q 719 76 719 92 q 708 50 719 61 q 682 39 697 39 q 656 50 667 39 q 644 76 644 61 q 656 103 644 92 q 682 114 667 114 q 708 103 697 114 z "},"&":{"ha":463,"x_min":281,"x_max":863,"o":"m 639 108 q 490 290 543 204 q 411 186 435 226 q 390 99 372 122 q 466 65 414 68 q 589 86 518 61 q 639 108 614 96 m 760 97 l 846 25 q 860 1 858 17 q 853 -27 863 -15 q 828 -41 844 -39 q 801 -33 813 -43 q 696 54 747 7 q 614 17 656 32 q 513 -9 563 -3 q 413 -1 464 -15 q 332 51 363 13 q 347 225 281 118 q 454 364 379 276 q 442 397 447 381 q 422 565 415 489 q 533 710 435 688 q 656 683 606 726 q 667 514 725 624 q 543 351 636 458 q 704 149 593 257 q 782 232 763 192 q 803 251 789 246 q 832 249 818 256 q 851 227 846 242 q 849 199 856 213 q 760 97 824 146 m 511 429 q 600 550 576 507 q 606 628 631 606 q 550 638 585 644 q 497 558 504 626 q 511 429 492 501 z "},"'":{"ha":300,"x_min":558,"x_max":650,"o":"m 649 917 q 642 850 646 900 q 635 774 639 800 q 619 749 632 758 q 592 742 607 740 q 567 757 576 744 q 560 785 558 769 q 568 859 564 811 q 574 925 572 907 q 588 950 575 940 q 615 958 600 960 q 640 944 631 957 q 649 917 650 932 z "},"(":{"ha":278,"x_min":269,"x_max":465,"o":"m 450 842 q 383 611 408 735 q 351 359 357 488 q 372 106 346 231 q 457 -108 399 -18 q 462 -137 465 -122 q 445 -161 458 -153 q 417 -166 432 -169 q 393 -150 401 -162 q 299 88 328 -47 q 276 361 269 224 q 310 628 283 499 q 381 869 336 757 q 400 890 386 883 q 428 890 414 896 q 449 871 443 885 q 450 842 456 857 z "},")":{"ha":592,"x_min":404,"x_max":606,"o":"m 410 -108 q 503 200 472 35 q 517 542 533 365 q 428 840 501 718 q 424 869 419 854 q 441 892 428 883 q 469 896 454 900 q 492 879 483 892 q 580 639 554 775 q 596 366 606 503 q 556 100 586 229 q 479 -139 526 -29 q 458 -158 472 -153 q 430 -158 444 -164 q 410 -137 415 -151 q 410 -108 404 -124 z "},"*":{"ha":386,"x_min":393,"x_max":739,"o":"m 610 610 q 607 564 608 581 q 594 537 606 547 q 567 528 583 526 q 541 540 551 529 q 532 567 531 551 q 535 621 533 588 q 451 571 493 593 q 423 568 438 564 q 401 586 408 572 q 397 615 393 600 q 415 638 401 629 q 508 693 461 661 q 433 750 468 726 q 419 775 421 760 q 426 803 417 790 q 450 817 435 815 q 478 811 465 819 l 542 763 q 536 832 540 799 q 544 859 535 847 q 569 873 553 871 q 597 866 585 875 q 611 840 608 857 q 617 768 615 807 l 676 814 q 704 820 689 822 q 728 806 719 818 q 735 778 738 793 q 721 753 733 763 l 633 688 q 722 618 686 644 q 737 593 735 608 q 730 565 739 578 q 706 551 721 553 q 678 557 690 549 l 610 610 z "},"+":{"ha":325,"x_min":342,"x_max":672,"o":"m 378 364 q 468 365 414 365 l 468 442 q 479 468 468 457 q 506 479 490 479 q 532 468 521 479 q 543 442 543 457 l 543 364 q 633 365 596 364 q 660 355 649 365 q 672 329 672 344 q 662 302 672 314 q 636 290 651 290 q 544 289 599 289 l 544 219 q 533 193 544 204 q 507 182 522 182 q 481 193 492 182 q 469 219 469 204 l 469 290 q 381 289 417 290 q 353 299 365 289 q 342 325 342 310 q 352 352 342 340 q 378 364 363 364 z "},",":{"ha":181,"x_min":368,"x_max":531,"o":"m 529 53 q 499 -42 522 -4 q 431 -118 476 -81 q 403 -126 418 -128 q 378 -112 388 -125 q 369 -85 368 -100 q 383 -60 371 -69 q 434 -5 418 -31 q 454 61 450 21 q 469 86 457 76 q 496 94 481 96 q 521 80 511 92 q 529 53 531 68 z "},"-":{"ha":319,"x_min":392,"x_max":667,"o":"m 431 322 q 530 322 449 321 q 629 324 611 324 q 656 313 644 324 q 667 286 667 301 q 656 260 667 271 q 629 249 644 249 q 528 247 611 249 q 428 247 446 246 q 402 259 413 247 q 392 286 392 271 q 403 312 392 301 q 431 322 415 322 z "},".":{"ha":256,"x_min":417,"x_max":492,"o":"m 481 64 q 492 38 492 53 q 481 11 492 22 q 454 0 469 0 q 428 11 439 0 q 417 38 417 22 q 428 64 417 53 q 454 75 439 75 q 481 64 469 75 z "},"/":{"ha":414,"x_min":296,"x_max":767,"o":"m 304 0 q 692 747 515 347 q 713 767 699 761 q 742 766 728 772 q 761 745 756 760 q 761 717 767 731 q 368 -39 586 322 q 344 -56 360 -53 q 316 -51 329 -60 q 299 -28 303 -43 q 304 0 296 -12 z "},":":{"ha":289,"x_min":556,"x_max":636,"o":"m 625 396 q 636 369 636 385 q 625 343 636 354 q 599 332 614 332 q 572 343 583 332 q 561 369 561 354 q 572 396 561 385 q 599 407 583 407 q 625 396 614 407 m 619 149 q 631 122 631 138 q 619 96 631 107 q 593 85 608 85 q 567 96 578 85 q 556 122 556 107 q 567 149 556 138 q 593 160 578 160 q 619 149 608 160 z "},";":{"ha":285,"x_min":463,"x_max":632,"o":"m 622 97 q 590 6 611 43 q 526 -75 568 -32 q 501 -86 517 -86 q 474 -76 485 -86 q 463 -49 463 -65 q 474 -22 463 -33 q 524 42 508 14 q 547 111 540 69 q 564 135 551 126 q 592 141 576 144 q 616 125 607 138 q 622 97 625 113 m 621 429 q 632 403 632 418 q 621 376 632 388 q 594 365 610 365 q 568 376 579 365 q 557 403 557 388 q 568 429 557 418 q 594 440 579 440 q 621 429 610 440 z "},"<":{"ha":364,"x_min":296,"x_max":717,"o":"m 350 335 l 444 392 q 522 448 475 411 q 596 521 568 485 q 621 534 606 532 q 648 526 636 536 q 662 501 660 517 q 654 474 664 486 q 556 379 613 421 q 422 290 500 338 l 501 267 q 578 244 532 257 q 651 224 624 232 l 689 213 q 710 193 703 207 q 712 165 717 179 q 693 143 707 150 q 664 140 679 136 q 628 153 654 144 l 556 172 l 481 194 q 372 228 410 215 q 335 242 349 236 l 321 249 q 311 256 315 253 q 299 279 301 265 q 315 321 296 304 q 338 332 324 328 l 350 335 z "},"=":{"ha":371,"x_min":365,"x_max":718,"o":"m 404 400 l 681 400 q 707 389 696 400 q 718 363 718 378 q 707 336 718 347 q 681 325 696 325 l 404 325 q 378 336 389 325 q 367 363 367 347 q 378 389 367 378 q 404 400 389 400 m 401 271 q 679 275 565 275 q 706 264 694 275 q 717 238 717 253 q 706 211 717 222 q 679 200 694 200 q 404 196 565 200 q 377 206 389 196 q 365 232 365 217 q 376 259 365 247 q 401 271 386 271 z "},">":{"ha":365,"x_min":324,"x_max":719,"o":"m 342 226 q 373 253 357 240 q 410 278 389 265 l 444 299 q 483 319 458 307 l 518 336 q 557 353 528 340 q 592 368 586 365 l 593 368 l 531 400 l 347 489 q 328 510 333 496 q 331 539 324 525 q 352 558 338 553 q 381 556 367 563 l 564 467 l 658 421 l 688 404 q 699 397 694 400 q 707 390 703 393 q 713 381 710 386 q 714 351 719 367 q 657 307 701 317 q 641 303 649 304 q 629 301 633 303 q 622 299 625 300 q 590 286 614 296 l 557 271 l 528 257 q 497 242 507 247 q 470 227 488 236 q 442 210 453 218 l 418 192 q 392 172 404 182 q 365 161 381 161 q 340 173 350 161 q 329 200 329 185 q 342 226 329 215 z "},"?":{"ha":492,"x_min":408,"x_max":851,"o":"m 411 650 q 485 787 426 731 q 618 860 544 843 q 757 846 696 876 q 842 724 826 808 q 803 592 851 665 q 707 469 786 567 q 606 325 642 390 q 571 189 571 260 q 560 163 571 174 q 533 151 549 151 q 507 163 518 151 q 496 189 496 174 q 522 317 496 251 q 576 422 549 382 q 649 517 604 463 q 740 633 725 610 q 767 710 772 682 q 722 779 758 760 q 635 786 686 797 q 538 733 581 774 q 486 636 496 693 q 470 612 483 621 q 442 606 457 603 q 417 622 426 608 q 411 650 408 635 m 569 71 q 581 44 581 60 q 569 18 581 29 q 543 7 558 7 q 517 18 528 7 q 506 44 506 29 q 517 71 506 60 q 543 82 528 82 q 569 71 558 82 z "},"@":{"ha":629,"x_min":233,"x_max":990,"o":"m 633 438 q 579 485 606 490 q 519 419 549 476 q 489 296 488 358 q 524 218 490 236 q 544 214 536 211 q 571 238 557 219 q 613 326 597 272 q 628 408 618 342 q 633 438 629 428 m 667 256 q 631 193 650 218 q 572 144 604 157 q 488 151 531 128 q 414 294 415 192 q 453 454 411 375 q 563 557 497 542 q 700 472 646 578 q 719 444 717 463 l 719 435 l 719 425 q 717 417 718 424 q 715 406 717 410 q 713 353 711 376 q 760 278 715 290 q 828 317 797 267 q 856 422 863 371 q 786 611 840 546 q 647 686 732 675 q 485 656 563 697 q 367 538 407 614 q 319 268 310 426 q 403 95 326 167 q 589 7 481 24 q 788 40 697 -11 q 914 213 879 92 q 932 235 918 228 q 960 239 946 243 q 983 221 975 235 q 986 193 990 207 q 890 26 957 90 q 742 -60 822 -39 q 576 -68 663 -81 q 350 42 447 -47 q 244 263 253 132 q 300 571 233 442 q 404 690 336 642 q 549 756 472 739 q 707 750 626 774 q 844 658 788 726 q 931 431 913 578 q 924 354 935 396 q 892 276 913 313 q 827 214 867 236 q 740 206 788 192 q 667 256 693 219 z "},"A":{"ha":749,"x_min":314,"x_max":1035,"o":"m 551 292 q 746 314 647 299 q 735 434 739 367 q 730 540 731 501 q 730 647 729 579 q 731 717 731 714 l 731 738 l 679 604 l 551 292 m 521 214 l 428 -14 q 408 -34 422 -28 q 379 -35 393 -40 q 359 -15 365 -29 q 358 14 353 0 l 438 210 q 351 208 394 208 q 325 219 336 208 q 314 246 314 231 q 325 272 314 261 q 351 283 336 283 q 469 286 408 283 l 610 635 q 653 744 626 672 q 688 833 681 817 l 717 910 q 724 926 721 922 q 747 944 732 942 q 783 936 768 950 q 800 906 794 926 q 804 879 803 894 q 807 815 806 854 l 807 774 q 806 735 807 751 q 806 717 806 719 q 805 645 806 711 q 805 542 804 579 q 809 440 806 504 q 821 325 813 376 l 878 336 q 906 330 893 339 q 922 306 919 321 q 916 277 925 290 q 892 261 907 264 l 835 251 q 882 136 853 178 q 992 82 924 74 q 1019 74 1007 83 q 1033 49 1032 64 q 1025 21 1035 33 q 1000 7 1015 8 q 821 93 888 -6 q 761 240 782 149 q 521 214 638 222 z "},"B":{"ha":650,"x_min":210,"x_max":874,"o":"m 385 465 l 450 490 q 597 551 539 522 q 776 724 760 633 q 750 796 785 768 q 568 790 681 849 q 478 729 519 767 q 414 654 436 692 q 404 590 407 611 l 385 465 m 369 378 q 319 143 346 247 q 389 94 340 114 q 503 67 438 74 q 629 69 568 60 q 722 100 690 78 q 788 208 785 139 q 732 319 790 276 q 644 362 700 344 q 538 385 588 379 q 369 378 458 393 m 569 457 q 776 381 701 436 q 855 270 836 336 q 849 140 874 204 q 764 36 825 76 q 644 -4 717 7 q 494 -8 571 -15 q 297 60 368 4 l 286 22 q 268 0 282 7 q 239 -3 254 -7 q 217 15 224 1 q 214 44 210 29 q 296 396 260 194 q 303 429 290 414 l 329 601 q 340 669 333 625 q 342 676 340 672 q 367 911 367 831 q 378 938 367 926 q 404 949 389 949 q 431 938 419 949 q 442 911 442 926 q 435 790 442 856 q 533 858 481 832 q 619 889 576 879 q 709 892 661 899 q 794 854 757 885 q 844 790 829 829 q 851 710 858 751 q 632 485 828 582 q 569 457 603 471 z "},"C":{"ha":654,"x_min":258,"x_max":926,"o":"m 694 515 q 692 814 731 728 q 660 850 678 842 q 615 847 642 857 q 470 711 544 821 q 367 458 396 601 q 375 202 336 299 q 492 82 414 106 q 670 111 571 58 q 854 297 769 164 q 878 315 863 311 q 906 310 893 318 q 923 286 919 301 q 918 258 926 271 q 701 42 824 108 q 469 10 579 -24 q 308 169 357 46 q 294 472 258 292 q 411 757 326 632 q 589 917 496 883 q 686 919 642 938 q 760 844 735 901 q 769 504 808 738 q 754 480 767 489 q 726 473 742 471 q 702 488 711 475 q 694 515 693 500 z "},"D":{"ha":793,"x_min":249,"x_max":1046,"o":"m 394 121 l 407 192 q 389 186 397 189 q 344 161 354 174 q 351 143 342 156 q 394 121 363 129 m 826 122 q 758 92 794 106 q 529 43 663 56 q 458 39 492 39 l 457 29 q 442 5 454 14 q 414 -2 429 -4 q 390 13 399 0 q 382 40 381 25 l 383 47 q 290 99 319 60 q 283 204 249 154 q 363 257 307 236 q 419 274 388 267 q 514 857 496 731 q 440 846 482 854 q 412 852 425 843 q 396 876 399 861 q 402 905 393 892 q 426 921 411 918 q 525 933 483 931 l 528 953 q 543 977 531 968 q 571 984 556 986 q 595 969 586 982 q 603 942 604 957 l 601 933 q 744 899 675 928 q 958 730 879 840 q 1042 493 1036 619 q 1008 315 1046 400 q 892 167 969 229 q 968 89 936 132 q 974 61 976 76 q 960 37 972 46 q 932 30 947 28 q 907 44 917 32 q 826 122 875 88 m 826 211 q 935 336 900 263 q 967 490 971 410 q 896 687 961 594 q 714 829 831 779 q 590 858 656 856 q 499 286 569 717 q 519 288 510 288 q 826 211 682 294 m 747 168 q 522 213 638 218 q 485 208 508 213 l 469 114 q 522 118 492 115 q 731 161 646 131 q 747 168 739 165 z "},"E":{"ha":726,"x_min":294,"x_max":981,"o":"m 753 708 q 813 774 818 743 q 797 798 811 785 q 757 821 783 811 q 694 831 728 831 q 623 821 660 831 q 551 783 586 811 q 489 713 515 754 q 490 599 444 640 q 593 568 513 579 q 650 561 621 568 q 654 560 653 561 q 658 558 656 560 q 671 549 665 556 q 679 515 685 533 q 660 490 675 499 q 646 486 654 488 l 640 486 q 625 488 635 486 q 594 492 619 489 l 589 493 q 496 461 542 490 q 418 382 451 432 q 376 261 378 322 q 413 151 374 199 q 656 89 499 54 q 919 214 782 117 q 949 220 933 222 q 972 205 964 218 q 978 176 981 192 q 964 153 976 161 q 672 15 813 46 q 357 101 472 -29 q 305 207 315 147 q 309 321 294 267 q 356 424 324 375 q 461 528 399 489 q 440 543 450 535 q 397 613 407 574 q 396 686 388 653 q 425 751 406 719 q 504 843 458 807 q 600 893 551 879 q 695 906 649 907 q 782 892 742 906 q 853 849 824 876 q 888 785 882 822 q 789 642 900 703 q 760 639 775 635 q 738 657 746 643 q 735 685 731 671 q 753 708 739 700 z "},"F":{"ha":800,"x_min":263,"x_max":1151,"o":"m 532 424 q 740 426 653 463 q 785 404 758 418 q 788 440 786 415 q 797 564 793 529 q 858 800 813 676 q 808 803 838 800 q 619 813 661 813 q 447 790 518 814 q 332 706 376 767 q 307 691 322 693 q 279 698 292 689 q 265 722 267 707 q 271 750 263 738 q 418 859 329 829 q 621 888 507 889 q 813 878 664 888 q 907 874 876 874 l 921 874 q 981 876 954 874 q 1010 882 994 878 l 1038 889 q 1068 900 1049 893 l 1100 911 q 1128 908 1114 915 q 1147 887 1142 901 q 1144 858 1151 872 q 1122 839 1138 844 l 1093 829 q 1060 818 1074 822 q 1026 809 1046 814 q 989 801 1006 804 q 939 799 965 799 q 872 553 888 669 q 863 436 867 517 q 857 364 860 392 q 875 357 867 360 q 924 350 904 346 q 968 381 947 354 q 993 394 978 393 q 1021 386 1008 396 q 1035 361 1033 376 q 1026 333 1036 346 q 939 276 989 286 q 850 286 899 268 l 846 288 q 740 81 821 161 q 639 13 700 40 q 517 -19 578 -14 q 388 3 446 -24 q 301 96 329 31 q 301 126 296 111 q 322 146 307 140 q 351 146 336 151 q 371 126 365 140 q 510 56 404 47 q 608 81 560 60 q 688 133 657 103 q 776 322 757 204 l 774 324 q 710 357 728 350 q 557 351 650 383 q 528 354 542 347 q 509 376 514 361 q 511 404 504 390 q 532 424 518 418 z "},"G":{"ha":783,"x_min":325,"x_max":1044,"o":"m 569 297 q 792 378 647 382 q 904 368 822 376 q 1006 361 971 360 q 1033 351 1021 361 q 1044 325 1044 340 q 1034 298 1044 310 q 1008 286 1024 286 q 910 292 969 285 q 738 57 829 125 q 565 10 658 -1 q 364 154 417 28 q 343 390 325 247 q 385 550 351 458 q 464 722 417 640 q 744 933 592 938 q 831 899 796 932 q 882 819 867 865 q 897 758 892 792 q 903 694 903 724 q 904 633 904 665 l 904 579 q 894 552 904 564 q 868 540 883 540 q 841 551 853 540 q 829 576 829 561 q 828 636 829 606 q 828 692 828 667 q 824 745 828 718 q 813 794 819 772 q 742 858 790 857 q 633 814 688 860 q 528 683 578 768 q 454 525 485 610 q 418 382 425 440 q 433 183 403 257 q 574 85 469 97 q 693 118 638 76 q 831 300 765 171 q 789 303 808 303 q 625 247 679 307 q 599 235 614 236 q 572 244 583 233 q 560 271 561 256 q 569 297 558 286 z "},"H":{"ha":708,"x_min":210,"x_max":986,"o":"m 435 329 q 461 522 451 419 q 418 525 440 525 l 399 525 l 382 525 q 370 524 378 525 q 359 523 363 524 q 351 519 356 522 q 342 513 347 517 q 313 439 299 476 q 386 358 326 400 q 435 329 410 343 m 783 238 q 756 296 771 269 q 535 506 658 463 q 504 296 524 394 q 783 238 629 246 m 981 878 q 915 251 924 543 l 915 238 l 944 240 q 972 232 960 242 q 985 206 983 222 q 976 178 986 190 q 950 165 967 167 l 915 163 l 915 122 l 915 100 l 915 78 l 915 60 l 915 40 l 915 35 l 915 32 l 915 31 l 914 28 q 914 22 914 25 q 911 15 913 18 q 896 0 906 6 q 860 -4 878 -10 q 832 17 843 0 q 822 54 825 31 q 819 86 821 61 q 818 106 818 101 l 804 161 q 489 222 631 167 q 411 -12 458 97 q 390 -32 404 -26 q 362 -31 376 -37 q 342 -11 347 -25 q 342 18 336 3 q 418 253 389 126 q 344 297 379 272 q 242 414 264 351 q 294 571 210 500 q 320 588 307 581 q 349 597 333 594 q 373 601 365 600 q 399 601 381 601 q 418 600 417 600 q 467 597 443 600 q 472 824 472 700 q 483 850 472 839 q 510 861 494 861 q 536 850 525 861 q 547 824 547 839 q 540 583 547 692 q 819 335 703 535 q 842 292 832 314 q 906 889 853 571 q 921 913 908 904 q 949 920 933 922 q 973 906 964 918 q 981 878 982 893 z "},"I":{"ha":519,"x_min":274,"x_max":779,"o":"m 383 372 l 383 374 q 392 519 379 425 q 433 696 406 613 q 518 851 468 800 q 674 896 588 924 q 767 781 746 872 q 774 653 779 729 q 747 492 769 596 q 690 289 725 388 q 604 96 650 169 q 475 -15 543 -1 q 350 31 401 -31 q 294 149 314 72 q 275 268 279 206 q 274 311 274 293 q 276 329 275 322 q 279 339 278 335 q 294 358 285 351 q 324 367 304 364 q 353 371 335 369 q 383 372 367 371 m 349 294 q 350 272 349 285 q 367 168 353 218 q 407 78 382 108 q 458 57 431 51 q 540 135 497 65 q 619 314 582 201 q 674 507 653 408 q 699 658 696 606 q 693 764 703 722 q 651 824 682 814 q 572 800 608 838 q 504 672 533 760 q 467 510 479 596 q 458 379 454 424 l 458 375 q 561 379 554 378 q 590 371 578 381 q 603 345 601 361 q 594 317 604 329 q 569 304 585 306 q 475 301 558 303 q 524 189 486 269 q 524 160 529 175 q 504 140 518 146 q 476 139 490 133 q 454 158 461 144 q 397 299 410 254 q 360 296 375 297 q 349 294 353 296 z "},"J":{"ha":578,"x_min":224,"x_max":874,"o":"m 703 304 q 619 -75 678 60 q 503 -226 579 -167 q 444 -262 474 -250 q 375 -272 414 -275 q 303 -242 336 -268 q 261 -69 224 -179 q 342 67 282 -10 q 454 199 396 138 q 293 244 351 193 q 231 418 226 303 q 280 617 233 514 q 390 782 326 721 q 485 847 433 824 q 621 838 572 888 q 701 643 681 776 q 710 393 718 536 q 829 431 771 422 q 857 423 844 432 q 872 399 869 414 q 865 371 874 383 q 840 356 856 358 q 703 304 775 346 m 631 349 l 632 349 l 635 388 q 628 631 643 529 q 568 785 610 742 q 517 779 556 797 q 443 729 476 761 q 348 586 389 676 q 306 415 307 496 q 342 300 303 336 q 500 281 390 258 q 544 294 522 285 q 577 312 565 304 q 619 343 589 319 q 631 349 625 347 m 621 249 q 400 22 508 161 q 332 -93 349 -46 q 350 -183 313 -154 q 457 -168 394 -218 q 550 -44 518 -119 q 621 249 594 57 z "},"K":{"ha":650,"x_min":151,"x_max":901,"o":"m 493 903 q 468 865 482 897 q 431 735 451 826 l 431 729 q 440 738 435 733 q 506 833 488 779 q 506 892 521 876 q 493 903 497 901 m 219 767 q 338 696 275 697 l 346 696 l 358 751 q 399 896 379 851 q 457 968 424 950 q 561 944 510 997 q 576 808 607 896 q 489 681 551 736 q 411 633 453 649 l 375 429 q 460 489 418 457 q 464 492 461 490 q 644 665 564 571 q 767 854 725 758 q 788 874 774 868 q 816 873 801 879 q 836 853 831 867 q 836 824 842 839 q 531 450 750 626 q 540 428 533 442 q 572 351 561 376 q 605 283 583 326 q 643 215 626 239 q 685 160 660 192 q 736 110 711 128 q 795 76 761 92 q 868 53 829 60 q 892 36 883 49 q 898 8 901 24 q 882 -16 894 -7 q 854 -22 869 -25 q 783 0 817 -14 q 722 29 749 14 q 668 71 694 44 l 624 117 q 583 170 606 135 q 550 225 561 206 q 519 286 539 244 l 494 344 q 469 403 486 361 q 367 336 418 365 q 357 332 363 333 q 285 22 324 149 q 267 0 281 7 q 238 -3 253 -7 q 215 15 222 1 q 213 44 208 29 q 292 393 253 174 l 332 621 q 161 719 238 625 q 153 747 151 732 q 167 772 154 763 q 194 781 179 782 q 219 767 210 779 z "},"L":{"ha":653,"x_min":168,"x_max":1018,"o":"m 772 751 q 835 764 806 754 q 878 794 858 771 q 904 849 897 818 q 904 892 911 875 q 882 910 899 906 q 808 846 846 918 q 772 751 789 807 m 508 138 q 371 158 447 169 q 257 78 278 146 q 276 0 239 21 q 376 8 321 -24 q 508 138 451 50 m 678 676 q 467 724 579 685 q 446 743 453 729 q 444 772 439 757 q 463 793 449 786 q 492 796 476 800 q 694 750 601 757 q 742 879 714 826 q 899 982 806 1004 q 974 921 953 969 q 978 831 989 881 q 935 745 967 785 q 857 692 903 706 q 754 675 810 678 q 740 608 751 660 l 724 529 q 708 456 718 500 q 686 372 697 411 q 663 296 675 333 q 606 157 635 217 q 671 85 633 131 q 764 -26 753 -15 q 826 -81 797 -62 q 890 -106 854 -99 q 964 -96 926 -112 q 993 -97 979 -90 q 1013 -117 1007 -103 q 1012 -146 1018 -132 q 992 -165 1006 -160 q 921 -181 956 -179 q 858 -176 886 -183 q 803 -153 831 -169 q 753 -119 775 -137 q 710 -78 732 -101 q 614 38 696 -62 l 567 90 q 413 -58 501 -8 q 326 -83 372 -81 q 242 -65 279 -86 q 184 0 200 -43 q 185 100 168 43 q 251 192 204 158 q 360 233 299 225 q 544 203 461 247 q 592 319 569 254 l 613 389 q 635 469 624 424 l 649 535 l 665 614 q 678 676 678 672 z "},"M":{"ha":861,"x_min":193,"x_max":1213,"o":"m 197 533 q 238 638 203 561 q 313 778 272 713 q 403 892 363 861 q 468 910 436 917 q 521 858 504 901 q 528 839 525 849 q 558 876 543 860 q 653 932 606 926 q 763 878 717 940 q 789 783 783 847 q 788 688 792 743 q 896 833 843 785 q 969 875 933 867 q 1051 854 1015 885 q 1101 714 1100 814 q 1082 535 1103 642 q 1040 358 1068 463 l 1007 236 q 974 4 976 96 q 987 -81 972 -50 q 1022 -121 1001 -111 q 1149 -68 1074 -143 q 1175 -57 1160 -57 q 1201 -68 1190 -57 q 1213 -94 1213 -79 q 1201 -121 1213 -110 q 1097 -190 1150 -172 q 993 -189 1043 -208 q 920 -116 944 -168 q 899 7 896 -64 q 935 253 901 104 q 967 378 936 264 q 1008 550 996 488 q 1026 713 1028 650 q 1004 796 1025 778 q 985 801 994 804 q 946 778 968 797 q 843 633 897 733 q 761 449 794 543 l 756 429 q 746 367 749 386 q 743 351 744 363 q 742 338 742 340 q 738 319 740 325 q 732 308 736 313 q 685 296 714 282 q 673 303 678 299 q 667 313 668 308 l 665 317 q 664 325 664 321 q 667 390 658 349 q 682 446 672 415 q 686 478 685 468 q 711 672 706 597 q 714 778 717 736 q 701 833 711 821 q 663 858 682 860 q 613 825 642 856 q 567 762 588 799 q 538 697 546 725 q 536 669 538 685 q 496 438 528 574 q 374 29 451 247 q 356 8 369 15 q 327 6 342 1 q 306 25 313 11 q 304 54 299 39 q 422 454 379 267 q 461 676 453 586 q 463 686 461 681 q 463 701 460 693 q 464 710 463 706 q 451 831 467 789 q 450 833 450 832 l 449 832 q 376 739 419 810 q 307 608 339 676 q 269 517 275 538 q 253 493 267 501 q 225 488 240 485 q 201 505 210 492 q 197 533 193 518 z "},"N":{"ha":699,"x_min":249,"x_max":1050,"o":"m 258 817 q 383 925 325 897 q 501 922 450 956 q 579 744 568 879 q 657 844 618 803 q 793 925 731 919 q 919 818 881 931 q 915 450 961 699 l 890 331 q 865 192 874 244 q 856 97 857 142 q 885 -54 851 -3 q 1000 -87 919 -107 q 1028 -92 1015 -83 q 1046 -115 1042 -100 q 1042 -142 1050 -129 q 1019 -160 1033 -156 q 822 -94 886 -193 q 781 100 776 -24 q 790 203 782 146 q 818 347 800 258 q 842 464 836 435 q 850 793 885 694 q 830 832 840 818 q 813 848 819 846 q 799 850 807 850 q 711 792 764 847 q 625 677 665 744 q 571 568 585 610 q 525 369 558 478 q 463 189 492 261 l 386 7 q 365 -12 379 -7 q 336 -12 350 -18 q 317 9 322 -6 q 317 38 311 24 l 390 211 q 451 381 419 281 q 494 563 482 481 q 496 575 494 569 q 497 585 496 579 q 506 672 504 629 q 496 797 508 750 q 461 860 482 846 q 415 857 444 871 q 317 769 372 836 q 291 756 307 757 q 263 764 275 754 q 250 790 251 774 q 258 817 249 806 z "},"O":{"ha":694,"x_min":253,"x_max":994,"o":"m 833 588 q 628 607 731 571 q 464 742 507 650 q 369 503 403 638 q 350 224 329 342 q 458 68 372 101 q 657 113 561 29 q 800 353 750 194 q 833 588 838 472 m 825 663 q 710 846 800 796 q 590 871 660 874 q 519 821 557 861 l 522 801 q 653 678 542 717 q 825 663 739 647 m 614 946 q 746 913 692 942 q 896 692 861 849 l 933 719 q 961 726 946 728 q 985 711 976 724 q 992 683 994 699 q 978 658 990 668 q 907 611 924 619 q 871 329 917 474 q 706 57 814 151 q 431 -1 578 -57 q 276 211 306 46 q 296 521 253 344 q 415 806 338 686 q 449 851 432 831 q 471 897 454 878 q 561 943 501 933 q 578 944 569 944 q 600 947 589 947 q 614 946 607 947 z "},"P":{"ha":694,"x_min":210,"x_max":1033,"o":"m 564 842 q 568 814 572 829 q 507 393 529 639 q 706 447 628 413 q 826 511 778 479 q 899 589 874 544 q 903 746 947 675 q 761 842 861 815 q 564 842 667 867 m 225 744 q 781 914 517 983 q 967 785 908 881 q 965 553 1033 676 q 898 474 942 511 q 821 419 854 438 q 736 378 786 400 q 500 317 646 338 l 488 178 q 478 44 481 86 q 465 19 476 29 q 438 10 453 8 q 412 23 422 11 q 403 50 401 35 l 415 197 q 428 363 424 310 q 443 507 433 417 q 465 672 453 597 q 493 819 478 747 q 272 686 385 778 q 244 678 260 676 q 219 692 229 679 q 211 719 210 704 q 225 744 213 735 z "},"Q":{"ha":694,"x_min":253,"x_max":994,"o":"m 833 588 q 628 607 731 571 q 464 742 507 650 q 369 503 403 638 q 350 224 329 342 q 458 68 372 101 q 561 60 510 49 l 508 125 q 501 153 499 138 q 515 178 503 169 q 542 185 526 188 q 567 172 558 183 q 632 93 603 125 q 657 113 644 101 q 800 353 750 194 q 833 588 838 472 m 825 663 q 710 846 800 796 q 590 871 660 874 q 519 821 557 861 l 522 801 q 653 678 542 717 q 825 663 739 647 m 617 0 q 431 -1 526 -37 q 276 211 306 46 q 296 521 253 344 q 415 806 338 686 q 449 851 432 831 q 471 897 454 878 q 561 943 501 933 q 578 944 569 944 q 600 947 589 947 q 614 946 607 947 q 746 913 692 942 q 896 692 861 849 l 933 719 q 961 726 946 728 q 985 711 976 724 q 992 683 994 699 q 978 658 990 668 q 907 611 924 619 q 871 329 917 474 q 706 57 814 151 q 685 39 696 47 q 826 -46 756 -25 q 848 -64 840 -50 q 851 -92 856 -78 q 833 -115 847 -107 q 804 -118 819 -122 q 617 0 708 -89 z "},"R":{"ha":743,"x_min":218,"x_max":1028,"o":"m 521 818 q 519 808 521 814 q 463 429 483 646 q 635 476 564 444 q 792 600 757 535 q 794 733 829 671 q 682 817 761 794 q 521 818 604 839 m 231 738 q 455 876 331 829 q 701 889 579 924 q 861 769 811 857 q 858 564 914 671 q 665 410 813 479 q 511 361 596 378 q 540 317 518 351 l 571 269 l 601 225 l 633 178 q 665 139 646 161 l 700 96 q 993 -71 835 -56 q 1018 -84 1008 -72 q 1026 -112 1028 -96 q 1013 -137 1025 -128 q 985 -146 1001 -147 q 644 46 799 -128 l 614 81 q 582 121 599 99 l 557 158 l 526 200 l 501 238 l 476 279 q 451 317 456 311 l 440 172 q 429 39 432 79 q 416 13 428 24 q 389 4 404 3 q 363 17 374 6 q 354 44 353 29 l 365 189 q 378 347 374 294 q 392 486 383 400 q 413 646 401 572 q 439 790 425 719 q 281 682 357 751 q 254 672 269 672 q 228 684 239 672 q 218 711 218 696 q 231 738 218 726 z "},"S":{"ha":606,"x_min":181,"x_max":893,"o":"m 633 408 q 474 368 547 394 q 376 320 428 350 q 292 257 324 290 q 257 193 257 222 q 301 129 257 161 q 415 74 354 90 q 526 63 475 57 q 618 93 578 69 q 678 153 657 117 q 697 248 700 190 q 657 374 693 306 q 633 408 650 388 m 825 788 q 700 874 783 842 q 617 881 667 886 q 522 851 567 875 q 440 728 426 803 q 474 682 442 718 q 558 594 499 654 q 664 488 650 503 q 797 496 729 496 q 824 485 813 496 q 835 458 835 474 q 824 432 835 443 q 797 421 813 421 q 718 418 758 421 l 724 410 q 767 181 788 279 q 657 29 747 83 q 465 -11 578 -21 q 257 68 353 -1 q 182 194 181 124 q 238 310 182 253 q 337 385 278 350 q 449 438 396 419 q 574 474 507 460 l 507 540 q 418 632 443 603 q 365 714 371 683 q 390 835 354 782 q 489 918 426 888 q 608 956 544 947 q 725 943 672 963 q 883 835 829 906 q 891 806 893 822 q 877 781 889 790 q 849 774 865 772 q 825 788 833 776 z "},"T":{"ha":769,"x_min":233,"x_max":1133,"o":"m 393 561 q 302 580 340 554 q 249 650 264 606 q 243 735 233 688 q 288 817 253 783 q 417 875 326 851 q 592 904 479 890 q 771 922 599 906 q 907 939 868 932 q 1008 969 935 946 l 1056 986 l 1072 990 q 1079 993 1076 992 l 1088 993 q 1099 992 1093 993 q 1119 976 1111 988 q 1122 931 1133 954 q 1107 910 1118 919 q 1099 903 1101 906 q 1094 899 1096 900 q 1093 898 1093 899 q 1092 897 1093 897 q 972 661 1001 767 q 949 488 958 607 q 929 292 938 342 q 905 195 919 239 q 865 108 890 151 q 799 32 840 65 q 701 -21 757 -1 q 619 -37 660 -36 q 547 -28 579 -37 q 480 3 514 -18 q 421 45 446 24 q 368 96 396 67 q 357 123 357 107 q 368 149 357 139 q 395 160 379 160 q 421 149 411 160 q 549 51 490 78 q 676 49 608 25 q 799 142 758 79 q 854 304 839 206 q 874 493 863 351 q 900 681 882 617 q 994 886 926 778 q 921 867 947 871 q 778 847 879 857 q 600 829 633 833 q 435 801 497 818 q 340 761 364 785 q 316 719 321 744 q 319 675 311 694 q 382 636 335 629 q 410 628 397 638 q 424 604 422 619 q 417 576 426 589 q 393 561 408 564 z "},"U":{"ha":654,"x_min":282,"x_max":926,"o":"m 886 728 l 872 658 q 858 578 863 611 l 847 500 q 838 415 840 454 q 843 189 826 279 q 911 50 860 89 q 924 26 922 42 q 917 -2 926 10 q 892 -16 908 -14 q 864 -8 876 -18 q 768 175 792 47 q 758 353 756 251 q 660 151 710 231 q 507 7 585 32 q 338 63 401 -25 q 288 218 292 125 q 325 592 282 361 q 429 939 368 824 q 452 957 438 953 q 481 953 467 961 q 499 931 494 946 q 496 903 503 917 q 397 578 439 799 q 363 221 357 356 q 398 107 365 151 q 485 79 431 63 q 596 192 536 94 q 706 425 650 276 q 840 881 792 654 q 856 904 843 896 q 885 909 869 913 q 908 892 900 906 q 913 864 917 879 l 913 861 q 911 849 913 856 q 900 796 910 842 q 886 728 890 750 z "},"V":{"ha":767,"x_min":211,"x_max":1119,"o":"m 215 596 q 296 774 244 690 q 374 858 333 835 q 490 839 438 893 q 543 731 517 810 q 582 576 561 674 q 632 306 606 465 q 649 178 643 231 l 668 231 q 685 277 678 258 q 694 301 693 296 q 853 642 772 494 q 1051 940 933 789 q 1076 953 1061 951 q 1103 946 1092 956 q 1117 921 1115 936 q 1110 893 1119 906 q 918 606 994 746 q 764 274 840 463 q 746 222 763 269 l 715 143 l 682 61 q 667 32 674 43 q 660 19 663 25 q 643 4 651 10 q 601 8 621 -7 q 589 22 593 14 q 585 36 586 28 q 581 61 583 46 q 576 128 578 83 q 557 294 574 192 q 510 561 528 476 q 471 707 490 650 q 435 786 451 771 q 410 793 424 800 q 358 733 388 779 q 288 574 314 660 q 269 551 283 558 q 240 549 256 544 q 218 567 225 553 q 215 596 211 581 z "},"W":{"ha":964,"x_min":211,"x_max":1315,"o":"m 215 656 q 241 726 221 683 q 288 804 261 769 q 360 865 322 850 q 464 849 415 888 q 482 822 475 840 q 492 796 488 811 q 508 721 500 768 q 533 518 521 644 q 557 178 554 296 l 557 172 l 557 158 l 557 146 l 557 133 l 603 243 q 667 386 643 338 q 694 436 683 418 q 710 454 703 447 q 750 468 728 471 q 779 447 767 464 q 792 428 786 440 q 813 376 801 410 q 860 235 821 356 q 908 99 890 140 q 925 174 915 126 q 940 247 932 204 l 954 322 q 964 367 960 353 q 1250 924 1054 718 q 1277 935 1261 935 q 1304 924 1293 935 q 1315 898 1315 914 q 1306 871 1315 882 q 1036 347 1122 679 l 1026 304 q 1013 232 1021 275 q 999 160 1006 189 q 975 56 985 92 q 961 18 968 32 q 950 1 956 8 q 919 -15 938 -14 q 883 -3 900 -17 q 865 18 874 6 q 839 69 853 36 q 789 211 821 114 q 743 351 751 328 l 739 361 l 735 353 q 672 214 711 306 l 613 72 l 593 25 q 585 10 588 15 q 581 3 583 6 q 576 -4 579 -1 q 554 -15 567 -12 q 510 1 528 -18 q 493 31 500 13 q 483 89 486 53 q 482 146 482 114 l 482 158 l 482 169 l 482 175 q 458 511 479 292 q 433 710 446 635 q 419 775 426 751 q 414 792 417 786 l 414 793 q 389 796 401 801 q 347 758 369 789 q 309 695 325 731 q 288 639 293 660 q 272 615 285 624 q 243 610 258 607 q 219 627 228 614 q 215 656 211 640 z "},"X":{"ha":601,"x_min":339,"x_max":881,"o":"m 517 425 l 501 456 l 472 517 l 440 578 q 413 636 431 597 q 386 700 396 675 l 364 763 q 343 832 351 799 q 347 860 339 847 q 369 878 354 874 q 398 874 385 882 q 415 851 411 867 q 429 804 421 828 q 443 763 438 781 q 460 719 449 746 q 476 681 472 692 q 496 637 481 669 q 515 598 511 604 q 537 553 518 592 q 557 511 556 515 q 813 913 667 726 q 838 926 822 925 q 865 918 853 928 q 879 893 878 908 q 871 865 881 878 q 599 426 711 661 q 721 207 664 294 q 858 49 778 119 q 871 24 869 39 q 862 -3 872 8 q 836 -17 851 -15 q 808 -7 821 -18 q 673 144 731 60 q 560 338 615 228 q 442 22 496 192 q 422 0 436 7 q 394 -2 408 -7 q 372 17 379 3 q 369 44 365 31 q 517 425 435 251 z "},"Y":{"ha":628,"x_min":274,"x_max":906,"o":"m 479 790 q 472 753 478 778 l 456 689 q 438 617 444 649 q 383 351 400 465 q 379 124 361 199 q 403 72 388 86 q 444 64 417 60 q 640 264 542 79 q 765 568 692 360 q 819 776 778 606 q 826 822 821 785 q 831 842 829 838 q 832 849 832 846 q 840 861 835 856 q 868 874 851 874 q 900 857 889 874 l 906 842 l 906 836 l 906 831 q 894 706 904 771 q 865 555 883 640 q 842 438 847 469 q 794 126 831 381 q 788 83 793 122 q 781 31 782 43 q 773 -14 779 19 q 762 -66 767 -47 q 749 -110 757 -85 q 731 -156 740 -133 q 486 -326 658 -311 q 299 -299 381 -335 q 279 -277 285 -292 q 280 -249 274 -262 q 301 -229 286 -235 q 329 -229 315 -224 q 481 -251 394 -258 q 663 -125 610 -240 q 676 -93 669 -110 q 686 -56 682 -76 l 694 -22 q 703 19 699 -7 q 708 56 707 44 q 714 97 710 67 l 719 138 l 743 304 q 707 229 725 264 q 456 -11 592 11 q 353 15 394 -21 q 306 107 319 46 q 308 363 285 197 q 364 635 325 476 l 382 706 l 397 769 l 407 804 q 422 828 410 819 q 450 834 435 838 q 474 818 465 831 q 479 790 483 806 z "},"Z":{"ha":807,"x_min":157,"x_max":1118,"o":"m 838 14 q 743 18 793 18 q 563 -1 651 18 q 413 -50 474 -19 q 303 -133 347 -83 q 276 -224 251 -187 q 399 -275 313 -279 q 594 -211 486 -271 q 740 -107 675 -167 q 838 14 804 -47 m 297 639 q 476 793 392 743 q 600 832 543 832 q 724 767 675 831 q 751 647 765 711 q 697 547 742 600 q 610 464 668 513 q 762 452 694 479 q 874 365 829 425 q 933 233 917 310 q 939 78 949 157 q 938 71 939 74 q 1104 -10 1040 46 q 1117 -35 1115 -19 q 1108 -62 1118 -50 q 1082 -75 1097 -74 q 1054 -65 1067 -76 q 915 0 1003 -22 q 801 -153 879 -78 q 632 -276 725 -225 q 403 -350 506 -346 q 213 -265 274 -357 q 247 -82 157 -181 q 379 17 301 -22 q 546 72 449 51 q 743 93 643 93 q 864 86 807 93 q 814 321 883 229 q 611 389 743 415 q 531 357 583 382 q 435 318 468 325 q 424 317 429 317 q 394 331 406 318 q 388 364 383 346 q 393 375 389 369 q 404 389 396 382 q 435 415 414 399 q 465 442 440 421 l 499 469 q 542 506 513 482 q 597 551 572 529 q 640 596 622 574 q 678 663 672 633 q 663 722 685 693 q 600 757 638 756 q 514 728 564 757 q 353 589 439 683 q 327 576 343 578 q 300 585 311 575 q 288 612 289 596 q 297 639 286 628 z "},"[":{"ha":510,"x_min":263,"x_max":879,"o":"m 581 482 q 608 557 594 522 q 674 664 638 628 q 789 699 726 719 q 879 543 879 667 q 832 329 879 454 q 733 136 790 222 q 681 69 706 94 q 614 39 646 36 q 593 46 603 40 q 585 53 589 49 q 569 67 579 58 l 529 108 l 467 174 q 431 211 460 181 l 388 258 q 349 305 372 276 q 310 360 326 333 q 285 413 294 386 q 285 520 263 469 q 359 592 308 571 q 464 597 410 614 q 574 496 528 576 l 581 482 z "},"\\":{"ha":433,"x_min":275,"x_max":785,"o":"m 711 -24 q 283 700 493 413 q 277 728 275 713 q 292 752 279 743 q 319 759 304 761 q 344 744 335 757 q 778 10 557 451 q 780 -19 785 -4 q 761 -40 775 -33 q 733 -42 747 -47 q 711 -24 718 -37 z "},"]":{"ha":486,"x_min":143,"x_max":856,"o":"m 494 518 q 601 689 528 632 q 680 725 639 718 q 758 717 721 732 q 821 666 797 701 q 849 583 844 631 q 757 308 856 489 l 718 240 l 679 172 q 650 113 665 146 q 626 56 635 81 q 607 35 621 42 q 578 32 593 28 q 574 35 575 33 q 556 46 563 38 q 371 203 483 124 q 319 232 354 214 q 261 265 276 256 q 161 378 183 313 q 158 485 143 432 q 211 568 174 538 q 300 609 249 599 q 407 589 351 619 q 494 518 449 567 m 499 394 q 478 421 482 403 q 371 522 418 497 q 293 530 329 540 q 238 482 257 519 q 233 403 218 444 q 300 329 246 363 q 356 299 314 321 q 413 264 393 278 q 576 132 506 200 q 610 197 590 163 l 654 278 l 692 344 q 774 578 779 506 q 731 647 769 631 q 649 631 690 664 q 587 551 611 601 q 554 444 563 500 l 558 440 q 565 413 567 428 q 550 388 563 397 q 523 381 538 379 q 499 394 508 382 z "},"^":{"ha":354,"x_min":404,"x_max":708,"o":"m 408 588 q 463 736 424 638 q 499 825 483 793 q 515 856 508 844 q 528 869 521 865 q 567 881 544 886 q 589 867 579 878 q 599 853 594 861 q 615 822 607 842 q 651 738 631 790 l 683 651 q 703 599 701 601 q 702 569 708 583 q 681 550 696 556 q 653 551 667 544 q 633 571 639 557 q 614 624 632 574 l 582 710 l 557 771 q 532 710 546 746 q 481 565 496 615 q 463 544 476 551 q 434 540 449 536 q 412 558 419 544 q 408 588 404 572 z "},"_":{"ha":636,"x_min":458,"x_max":983,"o":"m 494 -76 q 632 -76 563 -75 q 810 -82 701 -78 q 947 -87 919 -86 q 973 -99 963 -87 q 983 -126 983 -111 q 972 -152 983 -142 q 944 -162 960 -162 q 808 -157 914 -161 q 634 -151 703 -153 q 497 -151 565 -150 q 469 -141 481 -151 q 458 -115 458 -131 q 469 -87 458 -99 q 494 -76 479 -76 z "},"`":{"ha":268,"x_min":486,"x_max":622,"o":"m 560 822 l 574 794 l 581 779 l 585 769 q 590 761 589 763 q 599 747 592 760 l 614 722 q 618 694 622 708 q 601 671 614 679 q 573 667 588 663 q 550 683 558 671 q 535 708 543 696 l 525 725 q 519 735 524 726 q 515 745 515 743 q 506 761 514 747 q 493 789 499 775 q 491 817 486 803 q 510 839 496 832 q 538 841 524 846 q 560 822 553 836 z "},"a":{"ha":517,"x_min":235,"x_max":871,"o":"m 583 383 q 586 382 585 383 q 599 354 597 371 q 594 325 600 342 q 588 308 594 322 l 586 301 q 578 256 578 257 q 574 208 575 232 q 571 178 571 182 q 582 89 571 122 q 628 43 597 51 q 679 57 656 36 q 729 133 704 79 q 767 240 747 174 q 796 331 793 324 q 815 352 801 346 q 844 353 829 358 q 865 333 858 347 q 865 306 871 319 q 839 218 864 300 q 797 101 818 149 q 728 0 767 33 q 608 -29 674 -47 q 513 64 539 -10 q 506 86 508 74 q 482 51 494 67 q 392 -21 439 -7 q 274 22 326 -40 q 239 163 235 68 q 276 326 243 243 q 367 460 313 417 q 519 472 440 515 q 576 418 564 446 q 583 388 581 406 l 583 383 m 513 343 q 508 378 511 353 q 506 390 507 388 q 483 406 507 393 q 413 400 447 426 q 346 299 374 369 q 314 158 317 229 q 332 69 311 93 q 371 51 353 46 q 422 97 393 58 q 471 181 449 132 q 501 257 493 228 q 504 267 503 263 l 504 276 q 513 335 508 313 q 514 342 513 339 q 513 343 514 343 z "},"b":{"ha":375,"x_min":268,"x_max":728,"o":"m 376 569 q 444 643 417 608 q 528 786 515 728 q 515 832 533 819 q 479 826 499 844 q 376 569 418 772 m 531 257 q 531 217 532 235 q 493 75 525 144 q 363 -28 443 -35 q 292 21 317 -24 q 271 94 276 49 q 271 222 268 119 q 315 574 275 382 q 458 907 369 832 q 526 938 490 935 q 593 921 563 940 q 635 866 622 901 q 638 790 647 831 q 526 601 621 707 q 376 456 469 538 q 368 450 372 451 q 346 219 349 318 q 346 103 343 124 q 358 57 349 72 q 368 47 363 47 q 425 106 397 44 q 456 222 451 164 q 453 272 457 242 q 451 276 453 274 q 447 283 450 278 q 454 344 431 319 q 518 361 482 374 q 558 333 536 356 q 603 299 593 300 q 628 304 611 297 q 676 324 675 324 q 706 320 692 328 q 724 298 719 313 q 720 269 728 283 q 699 251 713 256 q 686 247 692 250 l 672 242 q 657 235 664 238 q 592 224 621 219 q 531 257 561 229 z "},"c":{"ha":376,"x_min":250,"x_max":742,"o":"m 492 339 q 483 385 489 367 q 474 406 478 403 l 468 410 q 419 378 453 414 q 353 258 378 332 q 340 124 328 186 q 417 50 351 65 q 532 76 485 35 q 665 336 618 153 q 683 359 669 351 q 711 363 696 367 q 734 345 726 358 q 738 317 742 332 q 582 21 685 111 q 497 -22 546 -11 q 400 -24 447 -33 q 313 22 350 -11 q 265 110 276 56 q 281 281 250 192 q 365 429 313 371 q 489 482 429 497 q 567 344 556 463 q 558 317 568 329 q 533 304 549 306 q 505 313 517 303 q 492 339 493 322 z "},"d":{"ha":519,"x_min":232,"x_max":879,"o":"m 519 189 q 507 246 513 215 q 490 324 492 321 q 489 335 489 329 q 428 378 457 378 q 361 324 394 378 q 317 188 324 263 q 338 74 308 113 q 401 60 360 43 q 478 122 446 78 q 519 189 499 151 m 554 346 q 567 317 561 333 q 568 314 567 315 q 636 661 607 460 q 636 668 636 665 q 638 699 636 676 q 639 732 639 721 q 636 788 642 769 q 619 815 631 815 q 588 789 604 817 q 543 561 549 724 q 554 346 539 444 m 472 443 q 468 600 465 522 q 551 890 478 800 q 660 946 600 950 q 717 922 693 944 q 754 863 742 900 q 761 778 764 831 q 759 740 761 765 q 757 704 757 715 q 753 689 757 697 q 599 181 690 368 l 610 143 q 653 65 631 85 q 664 60 658 60 q 685 69 672 60 q 801 329 765 132 q 817 353 804 344 q 846 360 831 363 q 870 344 861 357 q 876 315 879 331 q 732 11 835 90 q 664 -15 697 -15 q 603 8 631 -15 q 549 93 572 36 l 539 78 q 429 -10 494 17 q 351 -19 394 -28 q 276 29 307 -11 q 242 196 232 90 q 297 364 251 289 q 428 453 353 451 q 472 443 450 453 z "},"e":{"ha":361,"x_min":244,"x_max":729,"o":"m 336 218 q 404 210 369 199 q 479 274 447 225 q 507 363 510 321 q 474 408 506 399 q 396 368 436 422 q 336 218 350 308 m 335 138 q 356 72 339 97 q 475 40 390 21 q 583 131 544 57 q 608 185 597 157 q 632 251 619 214 q 654 315 644 289 q 674 335 660 329 q 702 336 688 342 q 723 317 717 331 q 724 288 729 303 l 704 229 q 678 157 690 190 q 650 94 665 124 q 492 -32 596 -8 q 294 31 357 -64 q 263 225 244 104 q 336 414 278 338 q 410 476 368 456 q 499 481 451 496 q 582 367 578 453 q 542 232 586 300 q 428 139 496 161 q 335 138 381 124 z "},"f":{"ha":371,"x_min":193,"x_max":725,"o":"m 497 699 q 481 678 489 692 q 444 600 463 650 q 376 360 411 515 q 346 215 358 282 q 492 528 442 308 q 503 651 504 582 q 497 699 501 682 m 281 -314 q 310 -283 296 -312 q 335 -189 326 -250 q 336 0 350 -79 q 319 71 329 44 l 296 -72 q 290 -96 294 -76 l 285 -133 q 277 -179 281 -153 q 272 -228 274 -206 q 276 -306 269 -281 l 281 -314 m 247 93 q 236 108 239 100 q 237 138 231 124 q 257 157 243 151 l 258 157 q 303 376 281 279 q 374 626 339 531 q 417 717 394 685 q 478 774 444 763 q 531 772 506 785 q 563 736 551 761 q 578 653 576 707 q 564 511 579 575 q 390 154 508 263 q 482 169 426 151 q 581 225 540 188 q 651 325 619 261 q 673 344 658 339 q 701 342 688 349 q 720 320 715 335 q 718 292 725 306 q 632 169 682 218 q 504 97 581 121 q 396 79 442 78 q 411 11 404 51 q 408 -200 425 -79 q 378 -317 399 -272 q 289 -389 344 -382 q 232 -372 256 -393 q 206 -328 214 -356 q 197 -224 193 -289 q 203 -171 199 -199 q 210 -122 207 -142 l 218 -82 q 221 -61 221 -62 l 247 93 z "},"g":{"ha":458,"x_min":233,"x_max":828,"o":"m 542 -122 l 519 -133 q 464 -169 482 -154 q 422 -242 433 -194 q 436 -303 411 -285 q 465 -314 453 -315 q 488 -303 476 -312 q 528 -225 515 -276 q 542 -122 536 -189 m 551 90 q 501 26 529 53 q 408 -25 457 -18 q 296 15 349 -32 q 254 189 233 72 q 333 371 272 283 q 469 482 399 465 q 554 468 517 494 q 604 404 585 447 q 607 403 606 404 q 615 392 613 397 l 619 381 l 621 378 l 621 374 q 625 39 632 253 q 735 190 703 118 q 744 235 738 196 l 747 257 q 750 278 749 268 q 751 289 751 288 q 767 313 754 304 q 794 320 779 322 q 819 306 810 318 q 826 278 828 293 q 825 267 826 276 q 822 245 824 257 q 818 224 819 233 q 804 160 810 174 q 727 40 778 101 q 621 -67 676 -21 q 600 -242 614 -186 q 539 -357 583 -315 q 472 -389 508 -385 q 392 -364 432 -393 q 349 -225 326 -317 q 417 -111 367 -153 q 483 -69 440 -93 q 542 -33 526 -44 l 547 -29 q 551 90 550 26 m 542 360 q 511 406 528 394 q 488 410 501 413 q 394 328 444 399 q 328 175 343 253 q 346 71 314 100 q 399 50 372 47 q 449 79 422 53 q 497 145 476 106 q 526 218 518 185 q 544 338 536 263 q 546 351 544 340 q 542 360 543 356 z "},"h":{"ha":515,"x_min":256,"x_max":899,"o":"m 347 542 q 358 557 351 546 q 393 615 372 575 q 426 697 414 656 q 439 772 442 744 q 426 797 438 793 q 386 760 406 804 q 360 660 367 717 q 347 542 351 604 m 256 13 q 257 75 257 67 q 260 121 258 106 q 288 651 260 453 q 325 786 299 728 q 381 858 346 831 q 467 867 417 886 q 532 775 526 846 q 514 660 536 728 q 468 554 496 607 q 419 475 440 501 q 378 435 396 446 q 342 418 369 429 q 338 310 339 367 l 353 335 q 432 429 392 397 q 543 463 489 476 q 613 358 601 449 q 614 218 617 325 q 621 94 613 131 q 647 58 629 60 q 740 132 693 53 q 782 224 758 163 q 801 286 789 243 q 824 354 815 331 q 843 376 829 369 q 872 376 857 382 q 892 357 886 371 q 893 329 899 343 q 874 265 886 308 q 851 196 861 219 q 804 93 826 131 q 639 -17 732 -26 q 549 78 568 -8 q 539 219 538 124 q 538 350 542 319 q 524 390 532 392 q 479 372 507 394 q 415 294 449 347 q 364 199 386 249 q 335 122 342 149 l 335 119 l 335 6 q 324 -21 335 -10 q 297 -32 313 -32 q 265 -14 276 -32 q 256 13 256 -3 z "},"i":{"ha":206,"x_min":251,"x_max":583,"o":"m 367 428 q 353 342 365 417 q 335 219 340 272 q 328 110 326 150 q 339 56 331 65 q 353 44 347 46 q 365 50 357 44 q 425 133 392 69 q 507 340 457 196 q 526 361 513 354 q 555 363 540 368 q 576 344 569 358 q 579 315 583 331 q 492 99 526 165 q 410 -10 450 19 q 346 -29 378 -33 q 283 6 311 -26 q 253 106 257 36 q 260 229 251 154 q 278 351 265 276 q 292 436 290 426 q 306 462 294 453 q 334 469 318 471 q 359 455 350 467 q 367 428 368 443 m 375 660 q 386 633 386 649 q 375 607 386 618 q 349 596 364 596 q 322 607 333 596 q 311 633 311 618 q 322 660 311 649 q 349 671 333 671 q 375 660 364 671 z "},"j":{"ha":222,"x_min":43,"x_max":574,"o":"m 263 -22 q 271 203 268 53 q 278 429 274 354 q 291 455 279 444 q 318 464 303 465 q 344 451 333 463 q 353 424 354 439 q 347 231 349 358 q 342 51 344 103 q 497 297 488 196 q 511 322 499 313 q 539 331 524 332 q 564 317 554 329 q 572 289 574 304 q 545 194 567 242 q 486 101 524 147 q 416 20 449 54 q 335 -58 383 -14 q 300 -272 324 -178 q 295 -296 300 -275 q 287 -328 290 -317 q 276 -358 283 -340 q 257 -389 268 -376 q 197 -434 233 -421 q 124 -436 160 -447 q 64 -387 85 -424 q 46 -299 43 -350 q 126 -153 50 -236 q 263 -22 158 -117 m 250 -135 q 182 -190 208 -167 q 121 -272 124 -242 q 147 -321 118 -314 q 199 -304 175 -328 q 208 -289 204 -297 q 215 -274 213 -281 q 221 -254 217 -268 l 228 -231 q 250 -135 242 -185 m 346 665 q 357 639 357 654 q 346 613 357 624 q 319 601 335 601 q 293 613 304 601 q 282 639 282 624 q 293 665 282 654 q 319 676 304 676 q 346 665 335 676 z "},"k":{"ha":457,"x_min":278,"x_max":825,"o":"m 365 532 q 376 549 369 538 q 407 616 389 569 q 438 710 425 663 q 449 794 451 763 q 438 824 447 818 q 400 781 418 832 q 376 667 383 732 q 365 532 369 603 m 354 265 q 353 203 353 236 l 354 203 q 490 257 424 211 q 554 354 560 304 q 538 388 551 376 q 436 375 496 421 q 354 265 381 331 m 396 135 q 572 69 482 49 q 679 193 622 82 q 749 376 721 278 q 766 399 753 392 q 794 403 779 407 q 817 385 810 399 q 821 357 825 372 q 746 160 792 250 q 589 -3 672 17 q 353 72 465 -32 l 353 32 q 342 6 353 17 q 315 -6 331 -6 q 289 6 300 -6 q 278 32 278 17 q 278 258 278 194 q 285 449 279 322 q 306 678 292 576 q 343 813 317 754 q 399 885 364 857 q 485 893 435 913 q 550 801 544 872 q 532 686 554 754 q 486 581 514 633 q 438 501 458 528 q 396 461 414 472 q 360 444 388 456 l 357 404 q 390 433 374 421 q 448 467 418 456 q 515 476 478 479 q 585 446 551 472 q 629 363 624 415 q 532 194 639 268 q 396 135 469 153 z "},"l":{"ha":318,"x_min":233,"x_max":658,"o":"m 314 311 q 483 699 433 479 q 488 781 493 743 q 481 806 486 799 q 472 807 478 808 q 451 788 465 806 q 418 729 435 767 q 372 604 394 679 q 318 347 333 475 q 314 311 315 329 m 331 194 q 356 92 336 128 q 408 43 381 51 q 478 50 447 32 q 529 114 506 68 q 581 310 568 189 q 594 335 582 325 q 623 343 607 344 q 649 329 639 342 q 657 301 658 317 q 599 81 643 168 q 519 -12 567 17 q 386 -29 460 -50 q 290 56 329 -12 q 261 358 233 151 q 326 647 279 506 q 383 792 354 733 q 431 869 407 840 q 504 918 467 911 q 585 890 554 925 q 611 825 606 867 q 603 710 619 771 q 342 203 535 421 q 331 194 338 197 z "},"m":{"ha":754,"x_min":225,"x_max":1103,"o":"m 561 364 q 678 475 607 450 q 768 464 729 492 q 811 390 803 439 q 816 347 815 374 q 815 303 817 321 l 811 247 q 808 199 808 208 q 807 106 804 139 q 821 53 810 67 q 844 42 831 39 q 897 75 867 47 q 953 135 926 100 q 989 190 979 169 q 1026 318 1018 253 q 1041 343 1029 333 q 1068 351 1053 353 q 1093 337 1083 349 q 1101 310 1103 325 q 1056 157 1092 233 q 1013 89 1043 131 q 947 18 982 49 q 860 -32 901 -22 q 760 8 799 -44 q 732 99 738 40 q 733 203 729 138 q 737 255 735 219 q 740 306 739 290 q 741 343 742 322 q 739 376 740 364 q 725 403 735 396 q 703 403 717 408 q 599 265 640 382 q 578 199 588 233 q 561 120 569 164 q 549 63 553 76 q 543 46 546 50 q 540 39 542 42 q 522 25 533 29 q 496 25 508 19 q 478 39 485 29 q 472 53 474 46 q 471 65 471 58 l 476 104 q 489 201 489 197 q 492 314 496 264 q 465 403 486 379 q 447 401 458 401 q 363 333 400 397 q 325 233 339 290 q 301 33 317 151 q 300 25 300 28 q 297 15 299 19 q 293 6 296 10 q 287 0 290 3 q 272 -8 283 -3 q 249 -7 260 -14 q 235 2 240 -4 q 228 12 229 8 q 226 17 226 15 q 225 24 225 19 l 225 31 l 225 36 q 229 85 226 51 q 244 214 239 172 q 251 246 247 229 q 260 394 258 325 q 271 420 260 410 q 299 431 282 431 q 328 414 318 431 q 442 476 378 471 q 521 453 496 481 q 561 364 549 421 m 546 63 l 546 61 l 546 63 z "},"n":{"ha":526,"x_min":235,"x_max":876,"o":"m 488 400 q 472 389 482 397 q 414 315 446 368 q 364 224 388 271 q 336 157 342 175 q 331 136 333 150 q 310 22 321 78 q 308 14 310 17 q 306 3 308 8 q 299 -6 303 -1 q 256 -14 279 -25 q 236 10 240 -7 q 235 17 235 13 l 235 24 l 235 31 q 242 71 236 43 q 257 150 250 118 q 283 399 275 272 q 297 424 285 414 q 324 433 308 435 q 349 420 339 432 q 358 393 360 408 q 357 364 357 378 q 422 446 392 419 q 531 461 482 497 q 565 404 556 443 q 574 338 572 378 q 572 256 574 313 q 569 188 569 199 q 582 67 568 103 q 597 44 588 50 q 624 39 606 38 q 665 53 651 42 q 697 97 675 63 q 756 214 728 144 l 764 238 l 764 240 l 765 251 q 767 255 767 253 q 768 258 768 257 l 774 268 l 801 335 q 822 354 808 349 q 851 353 836 360 q 871 333 865 347 q 871 304 876 319 l 854 267 l 854 264 q 825 186 851 254 q 761 56 794 110 q 714 -4 733 13 q 629 -36 682 -31 q 553 -18 585 -40 q 511 40 525 1 q 494 189 493 89 q 497 256 496 201 q 499 336 499 310 q 493 385 497 368 q 488 400 490 396 z "},"o":{"ha":475,"x_min":225,"x_max":844,"o":"m 464 40 l 458 46 q 387 167 414 97 q 361 306 360 238 q 326 221 339 264 q 317 89 303 143 q 379 29 331 40 q 464 40 428 19 m 515 96 q 549 232 546 150 q 521 382 553 328 q 496 408 510 404 q 468 404 485 414 q 465 401 467 404 q 456 381 461 393 q 444 239 425 319 q 515 96 463 158 m 510 483 l 524 478 q 586 419 561 464 q 624 228 629 344 q 574 46 619 119 q 615 33 594 35 q 704 100 665 31 q 722 133 714 117 q 733 161 729 150 q 743 192 738 172 q 751 221 749 213 q 760 255 754 229 q 768 290 765 281 q 784 314 771 306 q 813 319 797 322 q 836 302 828 315 q 840 274 844 289 q 833 239 839 265 q 824 203 826 213 q 816 171 822 193 q 804 135 810 149 q 790 101 799 121 q 771 64 781 82 q 611 -42 708 -46 q 522 -11 567 -39 q 365 -43 456 -62 q 244 69 271 -25 q 254 243 225 144 q 339 406 282 335 q 475 497 403 485 q 510 483 496 500 z "},"p":{"ha":493,"x_min":250,"x_max":843,"o":"m 332 85 q 343 82 338 85 q 543 110 485 32 q 575 195 568 143 q 569 297 582 247 q 537 378 558 349 q 493 411 515 408 q 440 386 469 415 q 354 251 396 346 q 340 235 349 242 q 335 164 336 193 l 332 85 m 506 -3 q 329 8 431 -25 q 328 -194 328 -51 q 325 -415 328 -337 q 313 -441 325 -431 q 286 -451 301 -451 q 260 -440 271 -451 q 250 -412 250 -428 q 253 -142 251 -343 q 260 167 254 58 q 269 281 261 201 q 278 401 276 360 q 290 427 278 417 q 317 438 301 438 q 342 426 332 438 q 353 401 353 415 q 389 442 371 425 q 504 486 444 494 q 594 428 558 478 q 643 314 629 379 q 650 194 657 260 q 614 81 643 129 q 685 122 658 92 q 699 144 692 132 q 713 167 707 157 q 726 200 718 178 q 738 233 733 222 q 752 276 742 244 q 767 324 763 308 q 786 344 772 338 q 815 347 800 351 q 836 328 829 342 q 839 299 843 314 l 825 256 l 808 211 l 794 172 q 779 135 786 149 q 763 103 772 121 q 742 74 753 86 q 649 13 706 31 q 506 -3 593 -6 z "},"q":{"ha":456,"x_min":226,"x_max":797,"o":"m 549 -35 q 529 -150 536 -97 q 521 -321 515 -257 q 549 -390 528 -382 l 560 -393 q 565 -387 563 -392 q 583 -310 579 -365 q 578 -133 589 -242 q 549 -35 572 -76 m 478 -6 q 417 -22 468 -10 q 323 -10 369 -35 q 256 61 276 14 q 260 231 226 131 q 350 388 289 318 q 482 475 417 465 q 560 454 526 481 q 593 413 579 439 q 619 400 610 411 q 629 383 626 393 q 631 372 629 378 q 628 343 631 363 q 618 281 624 319 q 606 217 610 233 q 590 157 596 183 l 569 64 l 576 57 q 580 55 578 57 q 583 53 582 53 q 615 56 604 50 q 689 158 661 78 q 721 308 708 214 q 735 333 724 324 q 763 340 747 342 q 788 326 779 338 q 796 297 797 314 q 760 133 782 196 q 649 -11 722 24 q 625 -19 638 -17 q 653 -125 647 -67 q 658 -317 664 -240 q 629 -426 651 -390 q 583 -465 611 -456 q 518 -460 553 -475 q 447 -328 457 -433 q 454 -140 439 -256 q 478 -6 463 -81 m 536 354 q 513 394 526 385 q 492 400 504 401 q 407 339 456 394 q 331 207 356 279 q 325 92 307 133 q 357 57 335 68 q 400 50 379 46 q 418 55 407 53 q 434 58 429 57 q 444 61 439 60 q 453 65 450 63 q 460 69 457 67 q 515 207 494 104 q 527 268 518 217 q 542 344 536 319 q 536 354 539 349 z "},"r":{"ha":411,"x_min":275,"x_max":767,"o":"m 368 492 q 483 474 426 478 l 485 474 q 497 475 488 475 q 547 456 531 479 q 556 428 556 444 q 554 410 556 421 q 547 372 553 397 l 533 321 q 519 267 524 285 q 497 154 503 199 q 497 76 489 100 q 515 47 503 58 q 543 38 528 36 q 638 136 593 40 q 693 307 672 210 q 708 331 694 322 q 735 337 721 340 q 758 320 749 333 q 763 293 767 307 q 703 104 740 186 q 546 -37 640 -32 q 471 -12 503 -40 q 427 55 439 17 q 425 164 415 93 q 449 285 431 213 q 463 339 454 303 l 475 389 l 478 400 q 389 411 432 403 l 383 381 q 376 354 379 363 q 372 342 375 349 l 363 314 q 347 276 356 296 q 328 255 342 261 q 301 254 315 249 q 281 274 288 260 q 281 301 275 288 q 294 340 288 322 q 303 363 300 357 q 307 375 306 369 q 311 396 308 381 l 322 446 q 324 451 322 449 q 325 464 324 458 q 340 488 328 479 q 368 492 353 496 z "},"s":{"ha":510,"x_min":181,"x_max":863,"o":"m 401 39 l 376 61 q 328 103 349 89 q 283 128 301 124 q 264 126 271 132 q 263 103 254 118 q 325 51 281 71 q 401 39 365 33 m 278 329 q 308 401 279 332 l 328 446 q 335 463 332 457 q 339 468 338 465 q 342 472 340 471 q 353 483 346 479 q 417 478 383 503 q 451 439 433 465 q 507 322 479 396 q 547 190 535 253 q 550 82 564 115 q 539 56 544 68 l 564 49 q 701 115 640 24 q 788 308 738 168 q 806 329 792 322 q 834 331 819 336 q 856 313 849 326 q 857 283 863 299 q 764 72 806 135 q 542 -24 671 -65 l 518 -17 l 486 -6 q 433 -32 463 -24 q 294 -17 368 -50 q 197 65 228 13 q 183 126 181 90 q 217 185 186 161 q 303 200 254 214 q 374 164 335 192 q 428 117 396 146 q 459 88 456 90 q 467 82 463 85 q 481 110 475 94 q 474 175 485 122 q 438 296 463 231 q 389 397 413 363 l 378 372 q 344 296 347 300 q 323 277 338 282 q 294 279 308 272 q 276 301 281 286 q 278 329 271 315 z "},"t":{"ha":289,"x_min":168,"x_max":642,"o":"m 297 501 q 200 518 251 506 q 176 534 185 521 q 172 563 168 547 q 188 586 175 578 q 217 590 201 594 q 313 575 268 579 q 376 817 339 689 q 394 838 381 831 q 423 842 408 846 q 445 824 438 838 q 449 794 453 810 q 390 575 414 681 q 486 589 435 578 q 515 585 501 593 q 531 561 528 576 q 526 533 535 546 q 503 517 518 519 q 374 499 435 501 q 342 143 326 269 q 363 70 347 97 q 397 36 379 43 q 485 97 439 21 q 564 335 535 181 q 581 359 568 350 q 608 365 593 368 q 633 349 624 361 q 639 321 642 336 q 549 58 606 153 q 466 -27 513 -1 q 371 -35 419 -53 q 300 28 328 -18 q 267 135 274 74 q 297 501 250 272 z "},"u":{"ha":525,"x_min":272,"x_max":874,"o":"m 378 428 q 347 194 349 314 q 364 82 347 118 q 403 58 376 54 q 489 151 450 65 q 536 307 515 211 q 551 394 536 311 q 558 429 556 421 q 560 438 558 435 q 568 450 563 444 q 597 463 579 463 q 629 443 618 461 l 633 428 l 633 425 l 633 422 l 633 414 q 622 336 632 400 q 606 225 610 268 q 603 119 599 158 q 617 67 606 78 q 667 54 643 42 q 725 121 694 68 q 772 227 751 167 q 797 324 792 288 q 813 348 800 339 q 840 355 825 357 q 865 340 856 353 q 872 313 874 328 q 843 203 865 269 q 790 83 821 136 q 700 -14 749 11 q 567 11 631 -49 q 533 74 543 33 q 414 -17 483 -4 q 296 50 332 -31 q 272 196 272 103 q 306 447 274 324 q 323 470 310 463 q 351 474 336 478 q 374 456 367 469 q 378 428 382 443 z "},"v":{"ha":515,"x_min":275,"x_max":881,"o":"m 560 431 q 554 418 557 426 q 564 322 542 375 q 581 293 571 306 q 589 354 588 326 q 567 428 590 415 q 560 431 563 429 m 388 431 q 356 211 358 307 q 365 99 353 143 q 400 46 378 57 q 486 67 439 28 q 576 197 538 110 l 583 213 q 518 293 542 242 q 506 439 485 371 q 547 496 517 478 q 628 494 583 515 q 693 353 697 463 q 679 257 692 308 q 815 318 738 257 q 845 326 829 328 q 871 313 861 325 q 879 285 881 300 q 865 260 878 269 q 654 183 750 169 l 647 168 q 538 10 601 65 q 365 -21 450 -61 q 289 79 311 6 q 278 214 275 133 q 313 447 282 317 q 329 471 315 463 q 358 476 343 479 q 383 459 374 472 q 388 431 392 446 z "},"w":{"ha":733,"x_min":276,"x_max":1083,"o":"m 840 431 q 814 424 825 429 q 789 383 792 411 q 829 274 774 319 q 854 256 840 263 l 854 260 q 858 376 869 307 q 840 431 850 411 m 424 447 l 410 404 l 394 361 q 382 318 389 344 l 368 274 q 359 231 364 256 q 353 188 354 207 q 351 147 351 168 q 354 107 351 126 q 394 42 363 51 q 465 72 426 31 q 482 92 474 81 l 494 108 q 507 131 500 117 l 518 151 q 531 175 521 156 q 543 199 542 194 q 558 258 546 222 q 571 319 569 299 q 584 345 572 335 q 611 354 596 356 q 637 341 626 353 q 646 314 647 329 q 629 238 644 286 q 618 190 621 207 q 617 179 618 185 l 617 176 q 640 57 613 106 q 676 32 657 29 q 783 133 738 44 q 815 215 803 171 q 761 272 783 235 q 735 403 726 329 q 763 472 739 447 q 840 507 792 508 q 899 460 881 507 q 911 396 907 435 q 910 289 917 333 q 906 264 907 276 l 908 264 q 1028 296 954 264 q 1057 296 1043 301 q 1077 276 1071 290 q 1078 247 1083 261 q 1058 228 1072 233 q 908 190 971 190 q 888 192 897 190 q 850 100 872 142 q 690 -39 789 -21 q 622 -28 651 -47 q 576 21 593 -8 q 556 67 564 42 q 521 22 539 42 q 371 -29 450 -54 q 310 17 335 -17 q 279 96 286 50 q 276 144 276 119 q 278 193 276 169 q 285 244 281 217 q 296 291 290 271 q 310 340 301 311 l 324 386 l 338 431 l 351 468 q 371 490 357 483 q 399 492 385 497 q 421 474 414 488 q 424 447 428 461 z "},"x":{"ha":474,"x_min":279,"x_max":850,"o":"m 324 454 q 350 483 329 476 q 379 480 365 488 q 397 458 393 472 q 451 282 433 335 q 540 475 493 367 q 561 494 547 489 q 590 494 575 500 q 610 474 604 488 q 611 444 617 460 q 486 185 546 296 q 560 54 525 92 q 594 33 578 35 q 631 49 610 32 q 774 304 694 103 q 794 324 779 318 q 823 325 808 331 q 844 306 838 319 q 844 276 850 292 q 678 -8 760 57 q 585 -40 633 -46 q 504 3 543 -36 q 440 103 471 38 q 351 -36 396 28 q 327 -51 343 -49 q 298 -45 311 -54 q 282 -21 285 -36 q 289 8 279 -6 q 403 190 349 93 l 400 196 q 369 286 386 235 q 331 268 357 263 q 305 284 314 271 q 300 311 296 297 l 307 350 q 313 376 311 368 q 316 388 315 383 q 319 442 317 392 q 324 454 319 449 z "},"y":{"ha":457,"x_min":251,"x_max":813,"o":"m 528 -114 l 489 -142 q 407 -261 414 -200 q 412 -290 404 -279 q 429 -304 419 -301 q 443 -303 435 -306 q 466 -287 451 -301 q 493 -246 481 -274 q 528 -114 515 -197 m 372 406 q 332 165 338 246 q 340 47 326 85 q 353 29 346 33 q 371 28 358 25 q 408 58 388 32 q 451 136 429 86 q 511 297 476 189 q 535 383 519 324 q 543 417 542 408 q 547 428 546 424 q 557 443 550 436 q 581 453 568 453 q 613 439 600 454 q 617 430 615 435 q 621 422 619 425 l 621 419 l 621 393 q 618 356 619 381 q 614 292 614 300 q 613 176 613 258 q 613 43 614 94 q 687 153 661 93 q 736 310 713 214 q 752 333 739 325 q 781 338 765 342 q 804 322 796 335 q 808 293 813 308 q 747 104 782 179 q 639 -35 713 29 q 608 -60 625 -47 q 560 -279 597 -200 q 494 -360 533 -335 q 413 -376 456 -386 q 349 -332 372 -368 q 332 -253 326 -296 q 443 -82 343 -160 q 522 -28 465 -65 l 536 -18 q 538 11 536 -4 q 539 147 539 64 l 521 104 q 467 13 494 47 q 388 -44 429 -36 q 313 -35 344 -54 q 271 22 285 -17 q 257 169 251 74 q 300 422 263 257 q 316 446 303 438 q 344 451 329 454 q 368 434 360 447 q 372 406 376 421 z "},"z":{"ha":479,"x_min":217,"x_max":794,"o":"m 579 -82 q 563 -85 572 -83 q 519 -90 558 -85 q 458 -99 479 -96 q 325 -161 346 -117 q 328 -219 306 -203 q 406 -226 351 -236 q 513 -178 463 -215 q 579 -82 563 -140 m 292 390 q 424 483 336 476 q 517 453 482 488 q 517 240 603 368 q 503 222 510 232 q 517 218 510 221 q 657 25 638 171 q 675 38 667 31 q 689 50 683 44 q 707 70 694 56 q 729 94 719 85 q 756 107 740 107 q 783 97 771 107 q 794 71 794 86 q 785 44 794 56 q 762 19 776 36 q 741 -3 747 3 q 722 -21 735 -10 q 695 -40 710 -32 q 661 -58 681 -49 l 658 -60 l 658 -64 q 576 -243 646 -172 q 421 -333 507 -314 q 278 -308 331 -353 q 256 -153 217 -254 q 443 -29 290 -61 q 506 -19 464 -25 q 550 -11 547 -12 q 585 -4 571 -8 q 558 90 582 50 q 489 149 533 131 q 458 154 474 154 l 449 144 q 426 131 436 133 q 396 129 411 124 q 371 153 379 136 q 372 186 364 169 q 378 194 374 190 q 385 203 381 197 l 404 224 q 454 283 436 257 q 464 400 506 358 q 429 408 453 410 q 358 356 383 404 q 333 297 347 336 q 310 232 317 249 q 288 213 303 218 q 260 213 274 207 q 240 234 246 219 q 241 263 235 249 q 264 322 247 276 q 292 390 281 368 z "},"{":{"ha":264,"x_min":215,"x_max":479,"o":"m 442 756 q 338 693 381 756 q 308 563 296 631 q 310 552 308 557 q 315 542 311 547 q 320 532 318 536 q 328 520 322 528 q 335 509 333 513 q 345 496 338 506 q 356 482 353 486 q 399 357 406 411 q 338 275 392 311 q 401 203 390 238 q 397 132 413 167 q 385 108 393 124 l 374 90 q 329 -78 321 -22 q 436 -179 339 -140 q 456 -199 450 -185 q 457 -227 463 -212 q 438 -248 451 -242 q 408 -249 424 -254 q 256 -89 271 -194 q 307 124 243 -10 q 319 147 311 132 q 328 163 326 158 q 329 181 332 171 q 292 215 326 192 q 263 235 290 217 q 250 244 254 240 q 243 250 246 247 q 234 281 232 264 q 251 311 236 299 q 265 319 257 315 q 274 325 268 321 l 283 331 q 293 336 289 333 q 324 368 322 356 q 294 438 328 392 q 283 453 293 440 l 272 469 q 260 485 268 474 q 249 506 253 497 q 240 526 244 515 q 233 549 236 538 q 276 736 215 647 q 442 831 340 831 q 468 819 457 831 q 479 793 479 808 q 468 767 479 778 q 442 756 457 756 z "},"|":{"ha":208,"x_min":478,"x_max":556,"o":"m 556 763 q 553 508 553 643 q 554 207 553 372 q 556 -49 556 42 q 544 -75 556 -64 q 518 -86 533 -86 q 492 -75 503 -86 q 481 -49 481 -64 q 479 208 481 42 q 478 509 478 374 q 481 765 478 644 q 492 791 481 781 q 519 801 503 801 q 545 790 535 801 q 556 763 556 779 z "},"}":{"ha":389,"x_min":311,"x_max":607,"o":"m 354 -169 q 460 -117 414 -175 q 500 11 508 -57 q 458 96 499 32 q 426 225 414 171 q 493 300 436 269 q 435 378 442 342 q 446 449 426 413 q 460 471 450 457 q 469 488 468 483 q 528 651 532 597 q 429 761 524 715 q 410 783 415 768 q 413 811 406 797 q 434 830 419 825 q 463 828 449 835 q 603 657 596 764 q 536 451 607 579 q 522 429 532 443 q 511 413 514 418 q 507 394 506 401 q 543 357 510 383 l 571 336 l 583 326 q 590 318 588 322 q 596 286 600 303 q 576 258 593 269 q 561 250 571 256 l 532 236 q 499 208 501 219 q 524 135 493 185 q 533 120 525 132 q 544 103 540 108 l 553 83 q 563 63 560 72 q 570 42 567 54 q 575 19 574 31 q 519 -164 586 -79 q 442 -227 488 -204 q 346 -244 397 -250 q 321 -231 331 -243 q 313 -203 311 -218 q 326 -178 314 -187 q 354 -169 339 -168 z "},"~":{"ha":329,"x_min":139,"x_max":683,"o":"m 143 550 q 208 663 164 615 q 353 704 278 738 q 410 647 388 688 l 424 615 q 436 586 435 590 q 464 544 449 558 q 511 526 479 529 q 568 560 543 524 q 607 651 586 588 q 626 674 613 667 q 655 676 640 681 q 676 657 669 671 q 679 629 683 643 q 629 517 654 554 q 503 451 579 444 q 417 485 447 457 q 367 557 386 514 q 354 588 365 561 l 343 613 q 322 635 333 631 q 264 613 296 647 q 215 528 231 576 q 196 506 210 513 q 167 503 182 499 q 146 522 153 508 q 143 550 139 536 z "},"":{"ha":347,"x_min":599,"x_max":694,"o":"m 692 492 q 679 201 682 381 q 674 -93 675 -57 q 661 -119 672 -108 q 635 -128 650 -129 q 609 -117 619 -128 q 599 -90 599 -106 q 604 201 600 -50 q 617 497 607 382 q 630 524 618 514 q 658 532 642 533 q 683 519 674 531 q 692 492 693 507 m 683 667 q 694 640 694 656 q 683 614 694 625 q 657 603 672 603 q 631 614 642 603 q 619 640 619 625 q 631 667 619 656 q 657 678 642 678 q 683 667 672 678 z "},"":{"ha":321,"x_min":267,"x_max":669,"o":"m 425 178 q 429 494 432 419 q 426 493 428 494 q 353 404 378 476 q 349 269 329 336 q 425 178 369 203 m 501 565 q 610 500 556 549 q 622 474 621 489 q 613 447 624 458 q 586 435 601 436 q 560 444 571 433 q 504 483 531 471 q 500 165 506 411 q 608 215 544 168 q 636 222 621 224 q 660 207 651 219 q 667 179 669 194 q 653 154 665 164 q 497 90 567 93 l 497 33 q 486 7 497 18 q 460 -4 475 -4 q 433 7 444 -4 q 422 33 422 18 l 422 100 q 331 151 368 114 q 281 237 294 189 q 267 334 267 285 q 282 428 268 383 q 403 564 318 535 q 426 571 414 568 q 419 650 424 611 q 428 678 418 665 q 453 692 438 690 q 481 683 468 693 q 494 658 493 674 q 501 565 499 613 z "},"":{"ha":547,"x_min":310,"x_max":897,"o":"m 663 708 q 625 744 639 738 q 596 733 614 749 q 515 510 532 679 q 511 451 513 479 q 586 453 551 451 q 613 444 601 454 q 625 417 624 433 q 616 390 626 401 q 589 378 606 379 q 508 376 553 376 l 508 363 q 503 229 507 265 q 488 131 497 175 q 578 135 540 146 q 665 92 613 125 q 732 50 717 57 q 774 46 758 39 q 824 103 799 54 q 847 121 832 117 q 875 117 861 125 q 893 95 889 110 q 890 67 897 81 q 801 -25 851 -6 q 701 -18 756 -42 q 624 28 681 -8 q 558 63 582 56 q 522 63 546 67 q 483 50 499 58 q 478 42 481 47 q 475 36 476 38 q 457 15 467 22 q 431 7 444 6 q 401 18 414 7 q 394 88 372 46 l 400 97 q 403 103 401 101 q 405 106 404 104 q 406 108 406 107 q 428 238 421 164 q 433 364 432 271 l 433 376 q 392 378 422 378 q 346 379 363 379 q 320 390 331 379 q 310 417 310 401 q 321 444 310 433 q 349 454 332 454 q 395 453 365 454 q 436 451 425 453 q 440 517 438 486 q 549 792 458 717 q 654 814 600 835 q 721 756 686 800 q 728 728 731 743 q 715 703 726 713 q 688 695 703 693 q 663 708 672 697 z "},"":{"ha":644,"x_min":414,"x_max":992,"o":"m 492 501 l 489 504 l 425 565 q 414 592 414 576 q 424 619 414 608 q 451 631 435 631 q 478 621 467 631 l 538 561 q 571 586 554 576 l 576 589 q 590 600 582 596 q 792 618 699 657 q 875 556 840 597 l 928 607 q 955 618 939 618 q 981 607 971 618 q 992 580 992 596 q 981 554 992 564 l 915 490 l 917 489 q 940 340 947 424 q 883 192 932 256 q 943 129 911 165 q 953 101 954 117 q 940 76 951 86 q 913 67 928 65 q 888 79 897 68 q 831 138 858 113 q 829 140 831 139 l 826 138 q 726 99 783 107 q 619 104 669 90 q 551 129 582 113 l 499 53 q 475 37 490 40 q 447 42 460 33 q 431 67 435 51 q 438 94 428 82 l 493 176 q 456 242 468 206 q 463 432 428 326 q 492 501 474 469 m 610 522 q 533 410 560 493 q 528 264 507 326 q 636 176 549 197 q 782 199 722 156 q 861 319 844 243 q 847 458 878 396 q 764 549 818 525 q 624 533 701 574 q 621 532 622 532 q 610 522 615 526 z "},"":{"ha":493,"x_min":358,"x_max":843,"o":"m 433 722 q 540 493 464 650 l 603 368 l 604 367 l 606 369 q 650 500 622 414 l 694 643 q 725 738 717 718 q 745 758 731 753 q 774 758 760 764 q 794 738 789 753 q 794 710 800 724 q 765 621 788 693 l 721 476 q 675 342 693 389 l 672 335 q 806 336 736 336 q 832 325 821 336 q 843 299 843 314 q 832 272 843 283 q 806 261 821 261 q 639 258 717 261 l 639 186 q 768 192 713 192 q 794 181 783 192 q 806 154 806 169 q 794 128 806 139 q 768 117 783 117 q 640 111 711 117 l 640 25 q 629 -1 640 10 q 603 -12 618 -12 q 576 -1 588 -12 q 565 25 565 10 l 565 104 q 419 92 461 94 q 392 101 404 90 q 379 126 381 111 q 388 153 378 142 q 414 167 399 165 q 564 179 456 169 l 564 256 q 401 246 481 253 q 374 255 386 244 q 361 281 363 265 q 370 308 360 296 q 396 321 381 319 q 539 331 465 326 l 538 332 q 472 461 515 372 q 364 694 389 633 q 364 723 358 708 q 384 743 369 738 q 413 743 399 749 q 433 722 428 738 z "},"":{"ha":289,"x_min":531,"x_max":639,"o":"m 638 628 q 631 510 635 597 q 622 388 628 433 q 608 363 619 372 q 581 355 596 353 q 556 369 565 357 q 547 396 546 381 q 556 513 551 432 q 563 633 560 603 q 576 659 564 649 q 603 668 588 669 q 628 655 618 667 q 638 628 639 643 m 614 239 q 607 24 614 126 q 594 -2 606 8 q 567 -11 582 -12 q 541 2 551 -10 q 532 29 531 14 q 539 239 539 129 q 550 265 539 254 q 576 276 561 276 q 603 265 592 276 q 614 239 614 254 z "},"":{"ha":369,"x_min":350,"x_max":740,"o":"m 575 401 q 508 408 542 411 q 464 390 475 406 q 458 347 450 368 q 488 307 465 329 q 504 304 496 307 q 521 297 508 301 l 535 290 l 547 286 q 560 281 556 282 q 573 278 565 281 q 588 276 581 276 l 603 276 q 640 297 628 276 q 640 339 653 318 q 575 401 625 367 m 644 611 q 600 656 625 647 q 560 647 581 661 q 526 606 536 633 q 525 553 515 578 q 599 475 539 518 q 613 467 600 475 l 626 456 l 640 447 q 654 435 650 439 l 668 422 q 682 409 676 415 q 694 394 688 403 q 704 378 700 386 q 705 260 740 317 q 604 201 669 203 q 644 147 632 172 q 661 18 682 69 q 576 -46 642 -32 q 472 -43 531 -56 q 371 -6 414 -31 q 354 17 358 1 q 358 45 350 32 q 381 63 365 58 q 410 58 396 67 q 486 31 442 40 q 561 28 531 21 q 592 46 586 33 q 578 114 600 67 q 529 169 567 135 l 493 200 q 453 236 465 224 q 389 319 404 281 q 403 432 365 378 q 482 481 428 469 q 456 525 465 501 q 455 631 435 579 q 519 711 475 683 q 621 728 569 742 q 711 644 678 711 q 713 616 718 631 q 694 594 708 601 q 666 592 681 588 q 644 611 651 597 z "},"":{"ha":417,"x_min":503,"x_max":764,"o":"m 567 631 q 578 604 578 619 q 567 578 578 589 q 540 567 556 567 q 514 578 525 567 q 503 604 503 589 q 514 631 503 619 q 540 642 525 642 q 567 631 556 642 m 753 626 q 764 600 764 615 q 753 574 764 585 q 726 563 742 563 q 700 574 711 563 q 689 600 689 585 q 700 626 689 615 q 726 638 711 638 q 753 626 742 638 z "},"":{"ha":657,"x_min":303,"x_max":1019,"o":"m 565 728 q 453 594 503 696 q 385 317 390 469 q 439 71 378 157 q 639 1 504 -22 q 810 97 736 18 q 917 281 885 175 q 932 486 949 386 q 863 635 919 569 q 725 726 806 700 q 565 728 644 751 m 592 810 q 860 739 736 833 q 1007 497 983 644 q 1001 319 1019 413 q 939 144 983 226 q 819 3 894 63 q 653 -74 744 -57 q 378 28 471 -104 q 310 319 303 136 q 386 628 317 486 q 533 796 449 754 q 536 797 535 796 q 575 810 556 806 q 592 810 583 813 m 665 492 q 647 529 657 521 q 643 531 646 532 q 619 513 633 528 q 594 474 606 497 q 569 256 547 369 q 614 185 582 190 q 683 232 646 179 q 707 248 692 244 q 735 242 722 251 q 751 218 747 233 q 744 190 754 203 q 679 126 717 149 q 601 110 642 104 q 533 152 560 117 q 494 242 506 188 q 491 375 483 304 q 525 504 499 446 q 567 567 542 539 q 622 603 592 594 q 696 586 664 614 q 738 511 724 563 q 734 483 742 496 q 711 465 726 469 q 683 469 696 461 q 665 492 669 476 z "},"":{"ha":575,"x_min":417,"x_max":946,"o":"m 706 431 q 700 424 703 426 q 600 347 658 369 q 461 378 517 315 q 438 510 417 426 q 501 638 453 578 q 613 717 554 703 q 736 660 692 736 q 731 614 751 635 q 761 603 749 617 q 774 576 771 593 q 775 560 775 569 q 774 526 775 554 q 776 453 771 478 q 803 411 783 421 q 896 413 831 394 q 924 409 910 417 q 942 387 938 401 q 938 358 946 372 q 915 340 931 344 q 765 344 821 314 q 706 431 719 371 m 672 621 q 631 644 654 650 q 560 590 596 636 q 510 493 522 544 q 517 428 499 447 q 574 418 539 404 q 642 471 611 432 q 675 538 650 482 l 692 576 q 699 590 696 586 q 703 597 701 594 q 708 603 706 600 q 672 621 683 600 z "},"":{"ha":614,"x_min":493,"x_max":964,"o":"m 746 396 q 593 225 651 283 q 572 208 588 219 q 582 193 576 201 q 625 149 597 175 q 717 74 643 132 q 731 49 729 64 q 722 21 732 33 q 697 7 713 8 q 669 15 682 6 q 575 94 594 75 q 524 147 542 124 q 494 213 496 183 q 521 264 493 242 l 533 272 q 540 278 538 275 q 688 443 596 333 q 713 457 697 456 q 741 449 729 458 q 754 423 753 439 q 746 396 756 407 m 940 390 q 849 261 899 317 l 835 246 q 822 232 825 236 l 819 231 q 836 211 825 224 l 953 86 q 963 59 964 75 q 950 33 961 43 q 923 24 939 22 q 897 36 907 25 l 781 161 q 751 199 760 183 q 744 246 739 222 q 765 282 749 264 l 779 296 q 793 313 789 306 q 876 426 838 361 q 899 444 883 440 q 927 441 914 449 q 944 418 940 433 q 940 390 949 403 z "},"":{"ha":619,"x_min":414,"x_max":968,"o":"m 451 457 q 682 467 472 457 l 824 472 q 869 475 854 474 l 883 475 l 888 475 l 889 475 l 890 475 l 893 475 q 906 471 899 475 q 965 350 960 444 q 965 288 968 324 q 964 243 964 244 q 953 217 964 228 q 926 206 942 206 q 900 217 911 206 q 889 243 889 228 q 890 290 889 247 q 892 344 893 324 q 878 400 889 386 l 872 400 q 826 397 857 399 l 685 392 q 451 382 474 382 q 425 393 436 382 q 414 419 414 404 q 425 446 414 435 q 451 457 436 457 z "},"":{"ha":657,"x_min":303,"x_max":1019,"o":"m 565 728 q 453 594 503 696 q 385 317 390 469 q 439 71 378 157 q 639 1 504 -22 q 810 97 736 18 q 917 281 885 175 q 932 486 949 386 q 863 635 919 569 q 725 726 806 700 q 565 728 644 751 m 592 810 q 860 739 736 833 q 1007 497 983 644 q 1001 319 1019 413 q 939 144 983 226 q 819 3 894 63 q 653 -74 744 -57 q 378 28 471 -104 q 310 319 303 136 q 386 628 317 486 q 533 796 449 754 q 536 797 535 796 q 575 810 556 806 q 592 810 583 813 m 594 529 q 592 374 594 443 l 613 389 q 669 436 644 413 q 721 558 738 507 q 672 575 713 583 q 627 558 649 571 q 597 533 606 546 q 594 529 596 531 m 518 528 l 518 536 q 519 547 518 540 q 519 557 519 553 l 519 568 l 519 569 l 519 571 l 519 575 q 521 581 521 578 q 525 588 522 583 q 544 603 532 599 q 564 606 554 607 q 657 649 604 639 q 739 642 700 657 q 793 581 778 628 q 722 383 824 486 q 657 328 694 356 l 656 326 l 656 325 q 701 278 669 310 q 793 186 786 196 q 801 158 803 174 q 786 134 799 143 q 758 127 774 125 q 735 142 743 129 l 650 224 q 599 276 615 257 l 589 289 q 578 121 585 200 q 565 96 576 106 q 537 88 553 86 q 511 101 521 89 q 503 129 501 113 q 519 515 518 292 q 518 528 518 521 z "},"":{"ha":613,"x_min":453,"x_max":960,"o":"m 490 797 q 688 799 535 797 q 924 800 840 801 q 949 789 939 800 q 960 762 960 778 q 949 735 960 746 q 921 725 938 725 q 687 724 839 726 q 490 722 535 722 q 464 733 475 722 q 453 760 453 744 q 464 786 453 775 q 490 797 475 797 z "},"":{"ha":454,"x_min":542,"x_max":819,"o":"m 594 689 q 605 715 594 704 q 631 726 615 726 q 751 682 707 729 q 808 569 797 635 q 799 454 819 507 q 719 376 775 392 q 601 401 650 357 q 551 503 563 438 q 553 603 542 551 q 594 689 564 654 m 660 647 q 628 595 639 633 q 625 515 618 557 q 651 457 632 475 q 700 449 669 440 q 729 482 718 454 q 735 557 742 515 q 663 649 722 633 q 660 647 661 647 z "},"":{"ha":475,"x_min":311,"x_max":824,"o":"m 468 481 q 563 483 510 483 q 567 568 564 535 q 580 594 568 583 q 607 603 592 604 q 633 590 622 601 q 642 563 643 578 q 638 482 639 529 q 736 481 707 481 q 763 469 751 481 q 774 443 774 458 q 763 417 774 428 q 736 406 751 406 q 636 407 707 406 q 631 317 633 354 q 617 290 629 300 q 590 282 606 281 q 564 295 574 283 q 556 322 554 307 q 561 408 558 360 q 471 406 511 408 q 444 415 456 404 q 432 441 433 425 q 441 468 431 457 q 468 481 451 479 m 346 194 q 568 201 432 203 q 785 201 742 200 q 812 191 800 201 q 824 165 824 181 q 813 138 824 150 q 788 126 803 126 q 568 126 742 125 q 354 119 432 128 q 326 128 338 118 q 313 153 314 138 q 321 181 311 169 q 346 194 331 193 z "},"":{"ha":451,"x_min":468,"x_max":811,"o":"m 513 644 q 594 708 546 686 q 686 725 642 731 q 764 669 742 718 q 765 553 785 624 q 672 413 750 497 q 607 343 654 390 q 771 353 628 346 q 797 344 786 354 q 810 317 808 333 q 801 290 811 301 q 774 278 790 279 q 564 261 607 269 l 561 261 q 559 260 560 261 q 554 258 558 260 q 544 256 550 257 q 485 269 506 243 q 479 317 468 292 q 494 336 483 326 q 506 346 496 338 l 510 349 q 560 401 522 363 q 617 463 597 440 q 693 572 683 535 q 696 638 706 617 q 676 651 690 649 q 624 640 654 654 q 571 597 593 625 q 546 583 561 585 q 518 592 531 582 q 504 617 506 601 q 513 644 503 632 z "},"":{"ha":449,"x_min":478,"x_max":815,"o":"m 485 614 q 567 693 511 663 q 699 683 644 733 q 721 596 736 649 q 683 525 713 564 l 682 524 q 779 476 753 521 q 792 364 815 418 q 721 293 774 324 q 553 240 649 251 q 525 249 538 239 q 511 274 513 258 q 519 301 510 289 q 544 315 529 314 q 683 358 625 325 q 722 394 715 376 q 715 438 731 413 q 660 449 707 451 q 618 444 640 449 q 606 442 613 443 l 601 440 l 600 440 l 599 439 l 597 439 l 596 439 l 592 439 l 585 439 q 561 454 571 442 q 554 483 551 467 q 558 494 556 489 q 563 501 560 497 l 569 508 l 583 525 q 624 569 608 550 q 649 615 643 597 q 649 628 651 625 q 603 626 632 643 q 551 578 567 607 q 529 560 544 564 q 500 563 514 556 q 482 585 486 569 q 485 614 478 600 z "},"":{"ha":425,"x_min":597,"x_max":776,"o":"m 769 667 q 665 519 739 611 q 640 506 656 507 q 613 514 625 504 q 599 539 600 524 q 607 567 597 554 q 703 703 676 653 q 725 721 710 717 q 754 718 740 725 q 772 696 768 711 q 769 667 776 681 z "},"":{"ha":672,"x_min":393,"x_max":1026,"o":"m 568 475 q 568 307 574 394 q 572 251 569 279 q 649 43 588 100 q 701 29 667 24 q 838 210 801 42 q 853 309 847 256 q 862 423 858 363 q 867 506 865 483 q 880 531 868 521 q 908 539 892 540 q 933 526 924 538 q 942 497 943 514 q 938 419 940 478 q 927 301 933 358 q 911 194 921 243 q 907 181 910 188 q 933 93 918 119 q 996 47 951 60 q 1019 29 1011 43 q 1022 1 1026 15 q 1004 -22 1018 -14 q 976 -25 990 -29 q 868 56 903 -4 q 864 64 865 60 q 713 -46 810 -32 q 651 -42 683 -50 q 596 -12 618 -33 q 538 75 560 24 q 469 -186 513 -47 q 451 -208 464 -201 q 422 -210 438 -215 q 400 -192 407 -206 q 397 -164 393 -179 q 493 308 479 99 q 490 382 492 333 q 482 500 486 465 q 490 527 481 515 q 515 541 499 539 q 542 534 531 543 q 557 508 554 525 q 558 497 557 504 q 568 475 567 488 z "},"":{"ha":586,"x_min":364,"x_max":979,"o":"m 785 326 q 867 328 822 325 q 865 651 869 521 q 803 682 838 672 q 785 326 790 443 m 708 258 q 685 264 696 261 q 463 386 550 296 q 407 594 364 488 q 557 733 442 683 q 671 765 611 757 q 794 762 731 774 q 906 715 857 750 q 938 686 932 713 q 971 643 957 667 q 976 615 979 629 q 958 592 972 600 q 942 586 950 588 q 941 254 944 469 q 938 -29 938 39 q 926 -56 938 -44 q 900 -67 915 -67 q 874 -56 885 -67 q 863 -29 863 -44 q 865 253 863 49 q 783 251 821 250 q 778 -25 778 103 q 767 -51 778 -40 q 740 -62 756 -62 q 714 -51 725 -62 q 703 -25 703 -40 q 708 258 703 106 m 728 694 q 588 665 656 696 q 476 567 500 626 q 515 439 451 504 q 701 336 589 364 q 711 335 706 336 q 728 689 715 453 l 728 694 z "},"":{"ha":294,"x_min":567,"x_max":642,"o":"m 631 335 q 642 308 642 324 q 631 282 642 293 q 604 271 619 271 q 578 282 589 271 q 567 308 567 293 q 578 335 567 324 q 604 346 589 346 q 631 335 619 346 z "},"":{"ha":353,"x_min":497,"x_max":711,"o":"m 628 -174 q 631 -175 628 -178 q 628 -174 629 -174 m 644 -24 q 601 -79 617 -58 q 593 -93 597 -87 q 622 -96 614 -94 q 676 -115 657 -100 q 699 -187 711 -142 q 640 -247 688 -229 q 579 -258 614 -257 q 533 -256 578 -258 q 508 -242 518 -254 q 499 -215 497 -231 q 512 -190 500 -200 q 539 -181 524 -179 q 558 -182 546 -181 q 576 -183 569 -183 q 614 -176 599 -182 q 622 -172 619 -175 q 613 -171 618 -171 q 590 -169 604 -169 q 571 -167 576 -168 q 547 -162 557 -165 q 518 -144 528 -157 q 508 -107 506 -128 q 515 -81 510 -94 q 540 -37 522 -62 q 586 24 556 -14 q 611 38 596 36 q 639 29 626 39 q 653 4 651 19 q 644 -24 654 -11 z "},"":{"ha":340,"x_min":582,"x_max":690,"o":"m 690 685 q 660 335 690 500 q 643 310 656 319 q 615 305 631 301 q 591 321 600 308 q 585 349 582 333 q 615 685 615 507 q 626 711 615 700 q 653 722 638 722 q 679 711 668 722 q 690 685 690 700 z "},"":{"ha":454,"x_min":482,"x_max":826,"o":"m 646 738 q 689 747 664 758 q 797 634 768 713 q 808 478 826 556 q 731 357 789 396 q 576 347 663 311 q 500 434 518 372 q 494 561 482 496 q 545 677 507 625 q 642 738 583 729 l 646 738 m 653 663 q 602 628 626 660 q 568 547 578 596 q 569 463 558 499 q 607 417 581 428 q 689 419 654 396 q 735 496 722 442 q 731 597 747 547 q 672 671 714 647 q 653 663 664 664 z "},"":{"ha":618,"x_min":518,"x_max":968,"o":"m 586 463 q 624 424 590 457 l 689 356 l 751 288 q 772 258 765 269 q 781 244 778 250 q 783 217 786 229 q 781 206 783 211 q 776 199 778 201 l 774 197 q 767 189 771 193 q 746 168 760 181 l 688 114 l 649 78 l 611 44 q 593 29 597 32 q 566 18 582 18 q 540 29 550 18 q 529 56 529 40 q 540 82 529 72 q 560 100 544 86 l 597 133 l 638 169 l 694 222 l 701 229 l 693 239 q 635 304 674 263 l 569 371 l 528 413 q 519 440 518 425 q 533 466 521 456 q 560 475 544 476 q 586 463 575 474 m 757 450 l 867 343 q 931 278 911 300 q 953 250 944 261 q 961 236 958 243 q 967 211 968 224 q 954 181 965 197 q 938 158 949 172 q 889 104 919 136 q 803 17 833 44 q 776 7 792 7 q 751 19 761 7 q 740 46 740 31 q 753 72 740 61 q 833 156 779 97 q 879 206 863 186 l 886 214 q 875 228 881 219 l 814 290 l 704 397 q 693 424 693 408 q 704 450 693 439 q 731 461 715 461 q 757 450 746 461 z "},"":{"ha":806,"x_min":507,"x_max":1153,"o":"m 1019 221 l 1018 246 q 1010 360 1014 313 l 965 299 l 917 226 q 978 222 942 224 q 1019 221 997 222 m 594 676 q 588 525 593 631 q 582 363 582 419 q 571 336 582 347 q 544 325 560 325 q 518 336 529 325 q 507 363 507 347 q 513 526 507 419 q 519 679 518 633 q 531 705 519 694 q 558 715 542 715 q 584 704 574 715 q 594 676 594 693 m 919 728 q 624 -11 717 275 q 604 -33 618 -26 q 576 -35 590 -40 q 554 -17 561 -31 q 551 11 547 -3 q 850 758 647 303 q 872 778 857 772 q 900 777 886 783 q 919 756 914 771 q 919 728 925 742 m 1072 457 q 1093 250 1086 375 q 1094 218 1093 236 l 1115 218 q 1142 207 1131 218 q 1153 181 1153 196 q 1142 154 1153 165 q 1115 143 1131 143 l 1097 143 q 1104 49 1100 89 q 1096 22 1106 33 q 1070 8 1086 10 q 1042 17 1054 7 q 1029 43 1031 26 q 1022 146 1025 85 q 975 147 997 147 q 893 153 924 150 q 865 154 875 154 q 854 157 858 156 q 846 158 850 157 q 828 174 835 163 q 821 200 819 185 q 824 211 821 206 q 829 225 825 217 l 847 257 l 904 340 l 997 472 q 1032 488 1010 489 q 1058 480 1046 489 q 1072 457 1069 471 z "},"":{"ha":764,"x_min":507,"x_max":1124,"o":"m 594 676 q 588 525 593 631 q 582 363 582 419 q 571 336 582 347 q 544 325 560 325 q 518 336 529 325 q 507 363 507 347 q 513 526 507 419 q 519 679 518 633 q 531 705 519 694 q 558 715 542 715 q 584 704 574 715 q 594 676 594 693 m 919 728 q 624 -11 717 275 q 604 -33 618 -26 q 576 -35 590 -40 q 554 -17 561 -31 q 551 11 547 -3 q 850 758 647 303 q 872 778 857 772 q 900 777 886 783 q 919 756 914 771 q 919 728 925 742 m 856 339 q 927 408 882 382 q 1015 433 972 433 q 1097 396 1071 433 q 1101 293 1124 356 q 1042 215 1092 265 l 953 131 q 882 54 900 81 q 876 44 879 49 l 882 44 l 888 44 q 1058 49 964 39 q 1086 40 1074 50 q 1100 15 1099 31 q 1092 -12 1101 0 q 1067 -26 1082 -25 q 882 -31 965 -37 l 875 -31 q 858 -32 863 -32 q 808 -10 825 -32 q 797 50 789 15 q 821 97 803 71 q 901 185 844 131 l 989 268 q 1032 318 1028 307 q 1035 353 1040 344 q 1015 358 1031 358 q 964 342 992 358 q 919 300 936 326 q 897 283 911 288 q 869 288 882 279 q 851 310 856 296 q 856 339 847 325 z "},"":{"ha":806,"x_min":379,"x_max":1154,"o":"m 1021 221 l 1019 246 q 1011 360 1015 313 l 967 299 l 918 226 q 979 222 943 224 q 1021 221 999 222 m 921 728 q 625 -11 718 275 q 606 -33 619 -26 q 577 -35 592 -40 q 556 -17 563 -31 q 553 11 549 -3 q 851 758 649 303 q 873 778 858 772 q 901 777 888 783 q 921 756 915 771 q 921 728 926 742 m 1074 457 q 1094 250 1088 375 q 1096 218 1094 236 l 1117 218 q 1143 207 1132 218 q 1154 181 1154 196 q 1143 154 1154 165 q 1117 143 1132 143 l 1099 143 q 1106 49 1101 89 q 1097 22 1107 33 q 1072 8 1088 10 q 1044 17 1056 7 q 1031 43 1032 26 q 1024 146 1026 85 q 976 147 999 147 q 894 153 925 150 q 867 154 876 154 q 856 157 860 156 q 847 158 851 157 q 829 174 836 163 q 822 200 821 185 q 825 211 822 206 q 831 225 826 217 l 849 257 l 906 340 l 999 472 q 1033 488 1011 489 q 1059 480 1047 489 q 1074 457 1071 471 m 467 731 q 585 743 532 747 q 656 719 631 740 q 676 632 692 688 q 639 586 669 610 l 628 578 q 663 539 649 564 q 669 426 700 476 q 589 369 647 389 q 417 347 513 342 q 390 360 400 349 q 381 387 379 371 q 393 413 382 403 q 419 422 404 424 q 564 440 501 418 q 606 465 597 451 q 599 500 613 476 q 558 521 583 525 q 544 518 553 521 q 540 517 543 518 q 534 515 536 515 q 529 514 532 515 q 504 513 515 511 q 479 528 489 517 q 471 554 471 539 q 488 586 469 572 q 490 588 489 586 l 492 588 l 493 588 l 493 589 l 494 589 l 497 590 l 511 597 q 553 619 533 608 q 593 644 578 633 q 600 651 597 649 q 604 654 603 653 l 606 656 l 606 663 q 579 668 599 667 q 486 658 539 671 q 458 663 471 654 q 440 685 444 671 q 444 713 436 700 q 467 731 453 726 z "},"":{"ha":593,"x_min":511,"x_max":953,"o":"m 951 -28 q 881 -167 939 -110 q 749 -243 822 -225 q 610 -232 671 -262 q 522 -112 539 -197 q 558 21 511 -54 q 651 146 575 49 q 749 291 715 225 q 779 428 782 357 q 790 455 779 443 q 815 467 800 467 q 842 456 831 467 q 854 431 854 446 q 832 301 856 367 q 781 195 808 236 q 711 99 754 154 q 622 -19 636 4 q 597 -99 590 -68 q 643 -165 606 -147 q 731 -171 679 -183 q 826 -115 785 -157 q 876 -17 868 -74 q 892 8 879 -1 q 919 15 904 17 q 944 0 935 13 q 951 -28 953 -12 m 858 647 q 869 621 869 636 q 858 594 869 606 q 832 583 847 583 q 806 594 817 583 q 794 621 794 606 q 806 647 794 636 q 832 658 817 658 q 858 647 847 658 z "},"":{"ha":964,"x_min":592,"x_max":1313,"o":"m 829 292 q 1024 314 925 299 q 1013 434 1017 367 q 1008 540 1008 501 q 1008 647 1007 579 q 1008 717 1008 714 l 1008 738 l 957 604 l 829 292 m 799 214 l 706 -14 q 685 -34 700 -28 q 657 -35 671 -40 q 637 -15 643 -29 q 636 14 631 0 l 715 210 q 629 208 672 208 q 603 219 614 208 q 592 246 592 231 q 603 272 592 261 q 629 283 614 283 q 747 286 686 283 l 888 635 q 931 744 904 672 q 965 833 958 817 l 994 910 q 1001 926 999 922 q 1025 944 1010 942 q 1061 936 1046 950 q 1078 906 1072 926 q 1082 879 1081 894 q 1085 815 1083 854 l 1085 774 q 1084 735 1085 751 q 1083 717 1083 719 q 1083 645 1083 711 q 1083 542 1082 579 q 1087 440 1083 504 q 1099 325 1090 376 l 1156 336 q 1184 330 1171 339 q 1200 306 1197 321 q 1194 277 1203 290 q 1169 261 1185 264 l 1113 251 q 1160 136 1131 178 q 1269 82 1201 74 q 1297 74 1285 83 q 1311 49 1310 64 q 1303 21 1313 33 q 1278 7 1293 8 q 1099 93 1165 -6 q 1039 240 1060 149 q 799 214 915 222 m 1008 1097 l 1107 1017 q 1122 992 1119 1008 q 1115 965 1124 976 q 1090 951 1106 953 q 1063 958 1074 949 l 961 1039 q 947 1065 949 1049 q 956 1092 946 1081 q 981 1106 965 1104 q 1008 1097 997 1107 z "},"":{"ha":964,"x_min":592,"x_max":1313,"o":"m 829 292 q 1024 314 925 299 q 1013 434 1017 367 q 1008 540 1008 501 q 1008 647 1007 579 q 1008 717 1008 714 l 1008 738 l 957 604 l 829 292 m 799 214 l 706 -14 q 685 -34 700 -28 q 657 -35 671 -40 q 637 -15 643 -29 q 636 14 631 0 l 715 210 q 629 208 672 208 q 603 219 614 208 q 592 246 592 231 q 603 272 592 261 q 629 283 614 283 q 747 286 686 283 l 888 635 q 931 744 904 672 q 965 833 958 817 l 994 910 q 1001 926 999 922 q 1025 944 1010 942 q 1061 936 1046 950 q 1078 906 1072 926 q 1082 879 1081 894 q 1085 815 1083 854 l 1085 774 q 1084 735 1085 751 q 1083 717 1083 719 q 1083 645 1083 711 q 1083 542 1082 579 q 1087 440 1083 504 q 1099 325 1090 376 l 1156 336 q 1184 330 1171 339 q 1200 306 1197 321 q 1194 277 1203 290 q 1169 261 1185 264 l 1113 251 q 1160 136 1131 178 q 1269 82 1201 74 q 1297 74 1285 83 q 1311 49 1310 64 q 1303 21 1313 33 q 1278 7 1293 8 q 1099 93 1165 -6 q 1039 240 1060 149 q 799 214 915 222 m 928 1011 q 1057 1089 1029 1069 q 1086 1094 1071 1097 q 1110 1077 1101 1090 q 1115 1049 1118 1064 q 1099 1025 1111 1033 q 964 947 1068 1006 q 936 943 951 939 q 913 960 921 947 q 910 989 906 974 q 928 1011 914 1004 z "},"":{"ha":964,"x_min":592,"x_max":1313,"o":"m 829 292 q 1024 314 925 299 q 1013 434 1017 367 q 1008 540 1008 501 q 1008 647 1007 579 q 1008 717 1008 714 l 1008 738 l 957 604 l 829 292 m 799 214 l 706 -14 q 685 -34 700 -28 q 657 -35 671 -40 q 637 -15 643 -29 q 636 14 631 0 l 715 210 q 629 208 672 208 q 603 219 614 208 q 592 246 592 231 q 603 272 592 261 q 629 283 614 283 q 747 286 686 283 l 888 635 q 931 744 904 672 q 965 833 958 817 l 994 910 q 1001 926 999 922 q 1025 944 1010 942 q 1061 936 1046 950 q 1078 906 1072 926 q 1082 879 1081 894 q 1085 815 1083 854 l 1085 774 q 1084 735 1085 751 q 1083 717 1083 719 q 1083 645 1083 711 q 1083 542 1082 579 q 1087 440 1083 504 q 1099 325 1090 376 l 1156 336 q 1184 330 1171 339 q 1200 306 1197 321 q 1194 277 1203 290 q 1169 261 1185 264 l 1113 251 q 1160 136 1131 178 q 1269 82 1201 74 q 1297 74 1285 83 q 1311 49 1310 64 q 1303 21 1313 33 q 1278 7 1293 8 q 1099 93 1165 -6 q 1039 240 1060 149 q 799 214 915 222 m 926 1007 q 953 1032 940 1019 l 978 1056 l 993 1071 q 1019 1092 1008 1085 q 1059 1101 1039 1104 q 1096 1081 1079 1099 q 1115 1051 1104 1071 q 1136 1011 1121 1042 l 1165 958 q 1168 930 1172 944 q 1150 908 1164 915 q 1122 904 1136 900 q 1099 922 1107 908 l 1072 975 q 1050 1015 1056 1006 l 1047 1018 l 1046 1017 q 1028 1000 1040 1013 l 1003 976 l 976 951 q 949 942 965 940 q 923 954 933 943 q 914 981 913 965 q 926 1007 915 997 z "},"":{"ha":964,"x_min":592,"x_max":1313,"o":"m 829 292 q 1024 314 925 299 q 1013 434 1017 367 q 1008 540 1008 501 q 1008 647 1007 579 q 1008 717 1008 714 l 1008 738 l 957 604 l 829 292 m 799 214 l 706 -14 q 685 -34 700 -28 q 657 -35 671 -40 q 637 -15 643 -29 q 636 14 631 0 l 715 210 q 629 208 672 208 q 603 219 614 208 q 592 246 592 231 q 603 272 592 261 q 629 283 614 283 q 747 286 686 283 l 888 635 q 931 744 904 672 q 965 833 958 817 l 994 910 q 1001 926 999 922 q 1025 944 1010 942 q 1061 936 1046 950 q 1078 906 1072 926 q 1082 879 1081 894 q 1085 815 1083 854 l 1085 774 q 1084 735 1085 751 q 1083 717 1083 719 q 1083 645 1083 711 q 1083 542 1082 579 q 1087 440 1083 504 q 1099 325 1090 376 l 1156 336 q 1184 330 1171 339 q 1200 306 1197 321 q 1194 277 1203 290 q 1169 261 1185 264 l 1113 251 q 1160 136 1131 178 q 1269 82 1201 74 q 1297 74 1285 83 q 1311 49 1310 64 q 1303 21 1313 33 q 1278 7 1293 8 q 1099 93 1165 -6 q 1039 240 1060 149 q 799 214 915 222 m 919 1024 q 963 1082 949 1068 q 1006 1114 983 1106 q 1072 1106 1042 1129 q 1099 1061 1092 1092 l 1101 1047 q 1111 1033 1107 1039 q 1128 1063 1119 1043 q 1149 1082 1135 1076 q 1178 1081 1164 1088 q 1197 1060 1192 1075 q 1197 1032 1203 1046 q 1138 961 1172 976 q 1038 1008 1082 938 q 1026 1040 1031 1019 l 1018 1032 q 983 982 1008 1022 q 959 966 974 969 q 931 972 944 963 q 915 995 918 981 q 919 1024 911 1010 z "},"":{"ha":964,"x_min":592,"x_max":1313,"o":"m 829 292 q 1024 314 925 299 q 1013 434 1017 367 q 1008 540 1008 501 q 1008 647 1007 579 q 1008 717 1008 714 l 1008 738 l 957 604 l 829 292 m 799 214 l 706 -14 q 685 -34 700 -28 q 657 -35 671 -40 q 637 -15 643 -29 q 636 14 631 0 l 715 210 q 629 208 672 208 q 603 219 614 208 q 592 246 592 231 q 603 272 592 261 q 629 283 614 283 q 747 286 686 283 l 888 635 q 931 744 904 672 q 965 833 958 817 l 994 910 q 1001 926 999 922 q 1025 944 1010 942 q 1061 936 1046 950 q 1078 906 1072 926 q 1082 879 1081 894 q 1085 815 1083 854 l 1085 774 q 1084 735 1085 751 q 1083 717 1083 719 q 1083 645 1083 711 q 1083 542 1082 579 q 1087 440 1083 504 q 1099 325 1090 376 l 1156 336 q 1184 330 1171 339 q 1200 306 1197 321 q 1194 277 1203 290 q 1169 261 1185 264 l 1113 251 q 1160 136 1131 178 q 1269 82 1201 74 q 1297 74 1285 83 q 1311 49 1310 64 q 1303 21 1313 33 q 1278 7 1293 8 q 1099 93 1165 -6 q 1039 240 1060 149 q 799 214 915 222 m 1007 1063 q 1018 1036 1018 1051 q 1007 1010 1018 1021 q 981 999 996 999 q 954 1010 965 999 q 943 1036 943 1021 q 954 1063 943 1051 q 981 1074 965 1074 q 1007 1063 996 1074 m 1128 1058 q 1139 1032 1139 1047 q 1128 1006 1139 1017 q 1101 994 1117 994 q 1075 1006 1086 994 q 1064 1032 1064 1017 q 1075 1058 1064 1047 q 1101 1069 1086 1069 q 1128 1058 1117 1069 z "},"":{"ha":964,"x_min":592,"x_max":1313,"o":"m 1042 946 q 1085 983 1071 961 q 1099 1024 1100 1006 q 1029 1058 1096 1061 q 985 1042 1000 1057 q 968 1006 969 1026 q 1011 938 965 960 q 1026 945 1018 943 q 1042 946 1033 947 m 829 292 q 1024 314 925 299 q 1013 434 1017 367 q 1008 540 1008 501 q 1008 647 1007 579 q 1008 717 1008 714 l 1008 738 l 957 604 l 829 292 m 799 214 l 706 -14 q 685 -34 700 -28 q 657 -35 671 -40 q 637 -15 643 -29 q 636 14 631 0 l 715 210 q 629 208 672 208 q 603 219 614 208 q 592 246 592 231 q 603 272 592 261 q 629 283 614 283 q 747 286 686 283 l 888 635 q 931 744 904 672 q 965 833 958 817 l 979 869 q 913 929 936 890 q 893 1010 890 968 q 932 1095 896 1060 q 1026 1133 968 1131 q 1129 1108 1089 1136 q 1174 1029 1169 1079 q 1151 947 1176 988 q 1082 882 1126 907 l 1082 879 q 1085 815 1083 854 l 1085 774 q 1084 735 1085 751 q 1083 717 1083 719 q 1083 645 1083 711 q 1083 542 1082 579 q 1087 440 1083 504 q 1099 325 1090 376 l 1156 336 q 1184 330 1171 339 q 1200 306 1197 321 q 1194 277 1203 290 q 1169 261 1185 264 l 1113 251 q 1160 136 1131 178 q 1269 82 1201 74 q 1297 74 1285 83 q 1311 49 1310 64 q 1303 21 1313 33 q 1278 7 1293 8 q 1099 93 1165 -6 q 1039 240 1060 149 q 799 214 915 222 z "},"":{"ha":857,"x_min":303,"x_max":1213,"o":"m 549 381 q 683 393 614 385 q 680 480 681 436 q 680 579 679 524 q 681 646 681 635 l 681 661 q 681 687 681 671 q 682 715 682 703 l 629 579 l 549 381 m 517 304 l 378 -39 q 358 -59 372 -53 q 329 -60 343 -65 q 309 -40 315 -54 q 308 -11 303 -25 l 435 300 l 390 300 q 364 311 375 300 q 353 338 353 322 q 364 364 353 353 q 390 375 375 375 q 465 376 428 375 l 560 610 q 603 719 576 647 q 638 808 631 792 l 667 885 q 674 901 671 897 q 697 919 682 917 q 719 919 708 922 q 990 939 885 924 q 1018 931 1006 940 q 1033 907 1031 922 q 1026 879 1035 892 q 1001 864 1017 867 q 756 846 900 850 q 757 771 757 817 q 757 694 758 739 q 756 646 756 649 q 757 403 756 436 q 1033 451 888 421 q 1062 447 1049 456 q 1078 424 1075 439 q 1074 395 1082 408 q 1050 379 1065 382 q 764 328 899 347 q 772 281 768 307 q 946 51 810 74 q 985 49 971 50 q 1028 54 999 49 q 1074 64 1057 60 q 1119 76 1090 68 q 1164 88 1149 85 q 1192 83 1178 92 q 1209 60 1206 75 q 1204 32 1213 46 q 1181 15 1196 18 q 1142 4 1172 13 q 1094 -8 1113 -4 q 1040 -19 1075 -12 q 985 -26 1004 -26 q 932 -24 965 -25 q 697 267 746 10 q 690 318 693 292 q 517 304 600 308 z "},"":{"ha":818,"x_min":535,"x_max":1203,"o":"m 971 507 q 967 813 1007 724 q 935 849 954 842 q 892 846 918 856 q 746 707 821 819 q 644 449 674 596 q 653 189 613 286 q 771 65 693 90 q 835 58 801 57 q 850 60 843 61 q 994 124 921 68 q 1131 285 1068 181 q 1153 301 1139 297 q 1181 297 1168 306 q 1199 274 1194 289 q 1194 246 1203 260 q 1057 78 1133 143 q 900 -7 981 14 q 903 -108 918 -64 q 797 -211 883 -167 q 769 -213 785 -218 q 747 -195 754 -208 q 745 -167 740 -182 q 764 -144 750 -151 q 832 -83 821 -114 q 824 -18 840 -60 q 749 -6 785 -17 q 585 156 636 31 q 569 463 535 282 q 687 752 601 624 q 865 917 772 881 q 964 918 918 936 q 1036 842 1011 900 q 1046 496 1083 733 q 1031 472 1043 481 q 1003 465 1018 463 q 978 479 988 467 q 971 507 969 492 z "},"":{"ha":828,"x_min":500,"x_max":1186,"o":"m 958 708 q 1018 774 1024 743 q 1003 798 1017 785 q 963 821 989 811 q 899 831 933 831 q 828 821 865 831 q 756 783 792 811 q 694 713 721 754 q 696 599 650 640 q 799 568 718 579 q 856 561 826 568 q 860 560 858 561 q 864 558 861 560 q 876 549 871 556 q 885 515 890 533 q 865 490 881 499 q 851 486 860 488 l 846 486 q 831 488 840 486 q 800 492 825 489 l 794 493 q 701 461 747 490 q 624 382 657 432 q 582 261 583 322 q 618 151 579 199 q 861 89 704 54 q 1125 214 988 117 q 1154 220 1139 222 q 1178 205 1169 218 q 1184 176 1186 192 q 1169 153 1182 161 q 878 15 1018 46 q 563 101 678 -29 q 510 207 521 147 q 515 321 500 267 q 561 424 529 375 q 667 528 604 489 q 646 543 656 535 q 603 613 613 574 q 601 686 593 653 q 631 751 611 719 q 710 843 664 807 q 806 893 757 879 q 901 906 854 907 q 988 892 947 906 q 1058 849 1029 876 q 1093 785 1088 822 q 994 642 1106 703 q 966 639 981 635 q 944 657 951 643 q 940 685 936 671 q 958 708 944 700 m 779 1065 q 911 1000 833 1047 q 928 978 924 993 q 924 949 932 963 q 901 932 917 936 q 872 936 886 928 q 754 993 801 978 q 733 1013 740 999 q 731 1041 726 1026 q 750 1063 736 1056 q 779 1065 764 1069 z "},"":{"ha":828,"x_min":500,"x_max":1186,"o":"m 958 708 q 1018 774 1024 743 q 1003 798 1017 785 q 963 821 989 811 q 899 831 933 831 q 828 821 865 831 q 756 783 792 811 q 694 713 721 754 q 696 599 650 640 q 799 568 718 579 q 856 561 826 568 q 860 560 858 561 q 864 558 861 560 q 876 549 871 556 q 885 515 890 533 q 865 490 881 499 q 851 486 860 488 l 846 486 q 831 488 840 486 q 800 492 825 489 l 794 493 q 701 461 747 490 q 624 382 657 432 q 582 261 583 322 q 618 151 579 199 q 861 89 704 54 q 1125 214 988 117 q 1154 220 1139 222 q 1178 205 1169 218 q 1184 176 1186 192 q 1169 153 1182 161 q 878 15 1018 46 q 563 101 678 -29 q 510 207 521 147 q 515 321 500 267 q 561 424 529 375 q 667 528 604 489 q 646 543 656 535 q 603 613 613 574 q 601 686 593 653 q 631 751 611 719 q 710 843 664 807 q 806 893 757 879 q 901 906 854 907 q 988 892 947 906 q 1058 849 1029 876 q 1093 785 1088 822 q 994 642 1106 703 q 966 639 981 635 q 944 657 951 643 q 940 685 936 671 q 958 708 944 700 m 763 994 q 879 1081 817 1032 q 908 1088 892 1090 q 933 1074 924 1086 q 940 1047 942 1063 q 926 1022 938 1031 q 804 933 861 971 q 776 927 792 924 q 752 943 761 931 q 747 971 743 956 q 763 994 750 986 z "},"":{"ha":828,"x_min":500,"x_max":1186,"o":"m 958 708 q 1018 774 1024 743 q 1003 798 1017 785 q 963 821 989 811 q 899 831 933 831 q 828 821 865 831 q 756 783 792 811 q 694 713 721 754 q 696 599 650 640 q 799 568 718 579 q 856 561 826 568 q 860 560 858 561 q 864 558 861 560 q 876 549 871 556 q 885 515 890 533 q 865 490 881 499 q 851 486 860 488 l 846 486 q 831 488 840 486 q 800 492 825 489 l 794 493 q 701 461 747 490 q 624 382 657 432 q 582 261 583 322 q 618 151 579 199 q 861 89 704 54 q 1125 214 988 117 q 1154 220 1139 222 q 1178 205 1169 218 q 1184 176 1186 192 q 1169 153 1182 161 q 878 15 1018 46 q 563 101 678 -29 q 510 207 521 147 q 515 321 500 267 q 561 424 529 375 q 667 528 604 489 q 646 543 656 535 q 603 613 613 574 q 601 686 593 653 q 631 751 611 719 q 710 843 664 807 q 806 893 757 879 q 901 906 854 907 q 988 892 947 906 q 1058 849 1029 876 q 1093 785 1088 822 q 994 642 1106 703 q 966 639 981 635 q 944 657 951 643 q 940 685 936 671 q 958 708 944 700 m 740 997 q 810 1074 792 1057 q 883 1107 849 1110 q 950 1061 918 1104 q 1008 971 967 1039 q 1013 942 1017 957 q 995 919 1008 928 q 967 915 982 911 q 944 932 953 919 q 890 1015 906 997 q 876 1031 883 1026 q 861 1018 871 1028 q 796 947 846 1004 q 771 935 786 936 q 744 944 756 933 q 731 969 732 954 q 740 997 729 985 z "},"":{"ha":828,"x_min":500,"x_max":1186,"o":"m 958 708 q 1018 774 1024 743 q 1003 798 1017 785 q 963 821 989 811 q 899 831 933 831 q 828 821 865 831 q 756 783 792 811 q 694 713 721 754 q 696 599 650 640 q 799 568 718 579 q 856 561 826 568 q 860 560 858 561 q 864 558 861 560 q 876 549 871 556 q 885 515 890 533 q 865 490 881 499 q 851 486 860 488 l 846 486 q 831 488 840 486 q 800 492 825 489 l 794 493 q 701 461 747 490 q 624 382 657 432 q 582 261 583 322 q 618 151 579 199 q 861 89 704 54 q 1125 214 988 117 q 1154 220 1139 222 q 1178 205 1169 218 q 1184 176 1186 192 q 1169 153 1182 161 q 878 15 1018 46 q 563 101 678 -29 q 510 207 521 147 q 515 321 500 267 q 561 424 529 375 q 667 528 604 489 q 646 543 656 535 q 603 613 613 574 q 601 686 593 653 q 631 751 611 719 q 710 843 664 807 q 806 893 757 879 q 901 906 854 907 q 988 892 947 906 q 1058 849 1029 876 q 1093 785 1088 822 q 994 642 1106 703 q 966 639 981 635 q 944 657 951 643 q 940 685 936 671 q 958 708 944 700 m 844 1010 q 856 983 856 999 q 844 957 856 968 q 818 946 833 946 q 792 957 803 946 q 781 983 781 968 q 792 1010 781 999 q 818 1021 803 1021 q 844 1010 833 1021 m 982 1013 q 993 986 993 1001 q 982 960 993 971 q 956 949 971 949 q 929 960 940 949 q 918 986 918 971 q 929 1013 918 1001 q 956 1024 940 1024 q 982 1013 971 1024 z "},"":{"ha":643,"x_min":489,"x_max":994,"o":"m 599 372 l 599 374 q 608 519 594 425 q 649 696 621 613 q 733 851 683 800 q 889 896 803 924 q 982 781 961 872 q 989 653 994 729 q 963 492 985 596 q 906 289 940 388 q 819 96 865 169 q 690 -15 758 -1 q 565 31 617 -31 q 510 149 529 72 q 490 268 494 206 q 489 311 489 293 q 492 329 490 322 q 494 339 493 335 q 510 358 500 351 q 539 367 519 364 q 568 371 550 369 q 599 372 582 371 m 564 294 q 565 272 564 285 q 582 168 568 218 q 622 78 597 108 q 674 57 646 51 q 756 135 713 65 q 835 314 797 201 q 890 507 868 408 q 914 658 911 606 q 908 764 918 722 q 867 824 897 814 q 788 800 824 838 q 719 672 749 760 q 682 510 694 596 q 674 379 669 424 l 674 375 q 776 379 769 378 q 805 371 793 381 q 818 345 817 361 q 810 317 819 329 q 785 304 800 306 q 690 301 774 303 q 739 189 701 269 q 739 160 744 175 q 719 140 733 146 q 691 139 706 133 q 669 158 676 144 q 613 299 625 254 q 575 296 590 297 q 564 294 568 296 m 821 1040 q 844 1031 833 1036 q 868 1019 856 1026 l 889 1008 q 911 994 896 1004 l 929 982 q 949 967 933 979 q 968 954 965 956 q 983 931 981 946 q 976 902 985 915 q 953 887 968 889 q 924 893 938 885 q 796 971 836 956 q 774 990 781 976 q 774 1019 768 1004 q 793 1040 779 1033 q 821 1040 807 1046 z "},"":{"ha":643,"x_min":489,"x_max":994,"o":"m 599 372 l 599 374 q 608 519 594 425 q 649 696 621 613 q 733 851 683 800 q 889 896 803 924 q 982 781 961 872 q 989 653 994 729 q 963 492 985 596 q 906 289 940 388 q 819 96 865 169 q 690 -15 758 -1 q 565 31 617 -31 q 510 149 529 72 q 490 268 494 206 q 489 311 489 293 q 492 329 490 322 q 494 339 493 335 q 510 358 500 351 q 539 367 519 364 q 568 371 550 369 q 599 372 582 371 m 564 294 q 565 272 564 285 q 582 168 568 218 q 622 78 597 108 q 674 57 646 51 q 756 135 713 65 q 835 314 797 201 q 890 507 868 408 q 914 658 911 606 q 908 764 918 722 q 867 824 897 814 q 788 800 824 838 q 719 672 749 760 q 682 510 694 596 q 674 379 669 424 l 674 375 q 776 379 769 378 q 805 371 793 381 q 818 345 817 361 q 810 317 819 329 q 785 304 800 306 q 690 301 774 303 q 739 189 701 269 q 739 160 744 175 q 719 140 733 146 q 691 139 706 133 q 669 158 676 144 q 613 299 625 254 q 575 296 590 297 q 564 294 568 296 m 751 967 q 822 1019 778 985 q 881 1063 867 1053 q 908 1069 893 1071 q 933 1054 924 1067 q 940 1026 942 1042 q 925 1001 938 1011 q 867 958 911 992 l 796 906 q 767 899 782 896 q 742 915 751 901 q 736 943 733 928 q 751 967 739 958 z "},"":{"ha":649,"x_min":489,"x_max":999,"o":"m 599 372 l 599 374 q 608 519 594 425 q 649 696 621 613 q 733 851 683 800 q 889 896 803 924 q 982 781 961 872 q 989 653 994 729 q 963 492 985 596 q 906 289 940 388 q 819 96 865 169 q 690 -15 758 -1 q 565 31 617 -31 q 510 149 529 72 q 490 268 494 206 q 489 311 489 293 q 492 329 490 322 q 494 339 493 335 q 510 358 500 351 q 539 367 519 364 q 568 371 550 369 q 599 372 582 371 m 564 294 q 565 272 564 285 q 582 168 568 218 q 622 78 597 108 q 674 57 646 51 q 756 135 713 65 q 835 314 797 201 q 890 507 868 408 q 914 658 911 606 q 908 764 918 722 q 867 824 897 814 q 788 800 824 838 q 719 672 749 760 q 682 510 694 596 q 674 379 669 424 l 674 375 q 776 379 769 378 q 805 371 793 381 q 818 345 817 361 q 810 317 819 329 q 785 304 800 306 q 690 301 774 303 q 739 189 701 269 q 739 160 744 175 q 719 140 733 146 q 691 139 706 133 q 669 158 676 144 q 613 299 625 254 q 575 296 590 297 q 564 294 568 296 m 869 1033 q 865 1039 867 1038 l 858 1036 q 869 1033 856 1033 m 743 986 q 815 1065 768 1011 q 840 1092 831 1083 q 878 1108 858 1107 q 921 1089 901 1110 q 940 1060 929 1079 q 961 1018 944 1050 l 992 961 q 994 933 999 947 q 976 910 990 918 q 948 907 963 903 q 925 925 933 911 l 876 1021 l 872 1017 q 796 933 824 961 q 769 922 785 922 q 743 933 754 922 q 732 960 732 944 q 743 986 732 975 z "},"":{"ha":643,"x_min":489,"x_max":994,"o":"m 599 372 l 599 374 q 608 519 594 425 q 649 696 621 613 q 733 851 683 800 q 889 896 803 924 q 982 781 961 872 q 989 653 994 729 q 963 492 985 596 q 906 289 940 388 q 819 96 865 169 q 690 -15 758 -1 q 565 31 617 -31 q 510 149 529 72 q 490 268 494 206 q 489 311 489 293 q 492 329 490 322 q 494 339 493 335 q 510 358 500 351 q 539 367 519 364 q 568 371 550 369 q 599 372 582 371 m 564 294 q 565 272 564 285 q 582 168 568 218 q 622 78 597 108 q 674 57 646 51 q 756 135 713 65 q 835 314 797 201 q 890 507 868 408 q 914 658 911 606 q 908 764 918 722 q 867 824 897 814 q 788 800 824 838 q 719 672 749 760 q 682 510 694 596 q 674 379 669 424 l 674 375 q 776 379 769 378 q 805 371 793 381 q 818 345 817 361 q 810 317 819 329 q 785 304 800 306 q 690 301 774 303 q 739 189 701 269 q 739 160 744 175 q 719 140 733 146 q 691 139 706 133 q 669 158 676 144 q 613 299 625 254 q 575 296 590 297 q 564 294 568 296 m 839 1014 q 850 988 850 1003 q 839 961 850 972 q 813 950 828 950 q 786 961 797 950 q 775 988 775 972 q 786 1014 775 1003 q 813 1025 797 1025 q 839 1014 828 1025 m 972 1010 q 983 983 983 999 q 972 957 983 968 q 946 946 961 946 q 919 957 931 946 q 908 983 908 968 q 919 1010 908 999 q 946 1021 931 1021 q 972 1010 961 1021 z "},"":{"ha":938,"x_min":526,"x_max":1324,"o":"m 672 121 l 685 192 q 667 186 675 189 q 622 161 632 174 q 629 143 619 156 q 672 121 640 129 m 1104 211 q 1213 336 1178 263 q 1244 490 1249 410 q 1174 687 1239 594 q 992 829 1108 779 q 868 858 933 856 q 814 515 849 719 q 906 511 850 514 q 933 499 922 510 q 942 472 943 488 q 929 445 940 456 q 903 436 918 435 q 801 440 840 439 l 776 286 q 797 288 788 288 q 1104 211 960 294 m 1025 168 q 800 213 915 218 q 763 208 786 213 l 747 114 q 800 118 769 115 q 1008 161 924 131 q 1025 168 1017 165 m 653 515 q 739 517 693 517 q 792 857 772 719 q 718 846 760 854 q 690 852 703 843 q 674 876 676 861 q 680 905 671 892 q 704 921 689 918 q 803 933 761 931 l 806 953 q 821 977 808 968 q 849 984 833 986 q 873 969 864 982 q 881 942 882 957 l 879 933 q 1022 899 953 928 q 1235 730 1157 840 q 1319 493 1314 619 q 1285 315 1324 400 q 1169 167 1247 229 q 1246 89 1214 132 q 1252 61 1254 76 q 1238 37 1250 46 q 1210 30 1225 28 q 1185 44 1194 32 q 1104 122 1153 88 q 1036 92 1072 106 q 807 43 940 56 q 736 39 769 39 l 735 29 q 719 5 732 14 q 692 -2 707 -4 q 667 13 676 0 q 660 40 658 25 l 661 47 q 568 99 597 60 q 561 204 526 154 q 640 257 585 236 q 697 274 665 267 l 726 442 q 656 440 689 442 q 629 450 640 439 q 617 476 618 461 q 626 503 615 492 q 653 515 638 514 z "},"":{"ha":976,"x_min":526,"x_max":1328,"o":"m 536 817 q 661 925 603 897 q 779 922 728 956 q 857 744 846 879 q 935 844 896 803 q 1071 925 1008 919 q 1197 818 1158 931 q 1193 450 1239 699 l 1168 331 q 1143 192 1151 244 q 1133 97 1135 142 q 1163 -54 1129 -3 q 1278 -87 1197 -107 q 1306 -92 1293 -83 q 1324 -115 1319 -100 q 1319 -142 1328 -129 q 1297 -160 1311 -156 q 1100 -94 1164 -193 q 1058 100 1054 -24 q 1068 203 1060 146 q 1096 347 1078 258 q 1119 464 1114 435 q 1128 793 1163 694 q 1108 832 1118 818 q 1091 848 1097 846 q 1076 850 1085 850 q 989 792 1042 847 q 903 677 943 744 q 849 568 863 610 q 803 369 836 478 q 740 189 769 261 l 664 7 q 642 -12 657 -7 q 614 -12 628 -18 q 594 9 600 -6 q 594 38 589 24 l 668 211 q 728 381 697 281 q 772 563 760 481 q 774 575 772 569 q 775 585 774 579 q 783 672 782 629 q 774 797 786 750 q 739 860 760 846 q 693 857 722 871 q 594 769 650 836 q 569 756 585 757 q 541 764 553 754 q 528 790 529 774 q 536 817 526 806 m 903 1018 q 989 1078 944 1072 q 1060 1056 1019 1081 q 1094 1038 1085 1039 q 1138 1057 1111 1036 q 1165 1065 1150 1067 q 1190 1051 1181 1064 q 1199 1024 1200 1039 q 1185 999 1197 1008 q 1086 964 1133 958 q 1019 992 1060 967 q 997 1003 1001 1003 q 961 971 985 1001 q 937 958 953 960 q 909 965 921 956 q 895 990 897 974 q 903 1018 893 1006 z "},"":{"ha":900,"x_min":531,"x_max":1272,"o":"m 1111 588 q 906 607 1008 571 q 742 742 785 650 q 647 503 681 638 q 628 224 607 342 q 736 68 650 101 q 935 113 839 29 q 1078 353 1028 194 q 1111 588 1115 472 m 1103 663 q 988 846 1078 796 q 868 871 938 874 q 797 821 835 861 l 800 801 q 931 678 819 717 q 1103 663 1017 647 m 892 946 q 1024 913 969 942 q 1174 692 1139 849 l 1211 719 q 1239 726 1224 728 q 1263 711 1254 724 q 1270 683 1272 699 q 1256 658 1268 668 q 1185 611 1201 619 q 1149 329 1194 474 q 983 57 1092 151 q 708 -1 856 -57 q 554 211 583 46 q 574 521 531 344 q 693 806 615 686 q 726 851 710 831 q 749 897 732 878 q 839 943 779 933 q 856 944 847 944 q 878 947 867 947 q 892 946 885 947 m 863 1079 l 985 1022 q 1004 1001 999 1015 q 1003 972 1010 986 q 983 953 997 958 q 954 953 968 947 l 832 1010 q 813 1031 818 1017 q 813 1060 807 1046 q 834 1079 819 1074 q 863 1079 849 1085 z "},"":{"ha":900,"x_min":531,"x_max":1272,"o":"m 1111 588 q 906 607 1008 571 q 742 742 785 650 q 647 503 681 638 q 628 224 607 342 q 736 68 650 101 q 935 113 839 29 q 1078 353 1028 194 q 1111 588 1115 472 m 1103 663 q 988 846 1078 796 q 868 871 938 874 q 797 821 835 861 l 800 801 q 931 678 819 717 q 1103 663 1017 647 m 892 946 q 1024 913 969 942 q 1174 692 1139 849 l 1211 719 q 1239 726 1224 728 q 1263 711 1254 724 q 1270 683 1272 699 q 1256 658 1268 668 q 1185 611 1201 619 q 1149 329 1194 474 q 983 57 1092 151 q 708 -1 856 -57 q 554 211 583 46 q 574 521 531 344 q 693 806 615 686 q 726 851 710 831 q 749 897 732 878 q 839 943 779 933 q 856 944 847 944 q 878 947 867 947 q 892 946 885 947 m 851 1051 q 961 1107 896 1069 q 990 1111 975 1115 q 1013 1094 1006 1107 q 1017 1065 1021 1081 q 1000 1043 1013 1050 q 879 982 928 1001 q 850 983 864 976 q 831 1003 836 989 q 831 1032 825 1018 q 851 1051 838 1046 z "},"":{"ha":900,"x_min":531,"x_max":1272,"o":"m 1111 588 q 906 607 1008 571 q 742 742 785 650 q 647 503 681 638 q 628 224 607 342 q 736 68 650 101 q 935 113 839 29 q 1078 353 1028 194 q 1111 588 1115 472 m 1103 663 q 988 846 1078 796 q 868 871 938 874 q 797 821 835 861 l 800 801 q 931 678 819 717 q 1103 663 1017 647 m 892 946 q 1024 913 969 942 q 1174 692 1139 849 l 1211 719 q 1239 726 1224 728 q 1263 711 1254 724 q 1270 683 1272 699 q 1256 658 1268 668 q 1185 611 1201 619 q 1149 329 1194 474 q 983 57 1092 151 q 708 -1 856 -57 q 554 211 583 46 q 574 521 531 344 q 693 806 615 686 q 726 851 710 831 q 749 897 732 878 q 839 943 779 933 q 856 944 847 944 q 878 947 867 947 q 892 946 885 947 m 772 1025 q 849 1099 828 1082 q 925 1115 889 1129 q 981 1068 947 1107 q 1047 994 1024 1018 q 1058 968 1058 983 q 1047 942 1058 953 q 1021 931 1036 931 q 994 942 1006 931 q 924 1019 968 968 q 901 1043 908 1038 q 894 1039 899 1042 q 828 972 878 1026 q 801 961 817 961 q 774 972 785 961 q 763 998 763 982 q 772 1025 763 1014 z "},"":{"ha":900,"x_min":531,"x_max":1272,"o":"m 1111 588 q 906 607 1008 571 q 742 742 785 650 q 647 503 681 638 q 628 224 607 342 q 736 68 650 101 q 935 113 839 29 q 1078 353 1028 194 q 1111 588 1115 472 m 1103 663 q 988 846 1078 796 q 868 871 938 874 q 797 821 835 861 l 800 801 q 931 678 819 717 q 1103 663 1017 647 m 892 946 q 1024 913 969 942 q 1174 692 1139 849 l 1211 719 q 1239 726 1224 728 q 1263 711 1254 724 q 1270 683 1272 699 q 1256 658 1268 668 q 1185 611 1201 619 q 1149 329 1194 474 q 983 57 1092 151 q 708 -1 856 -57 q 554 211 583 46 q 574 521 531 344 q 693 806 615 686 q 726 851 710 831 q 749 897 732 878 q 839 943 779 933 q 856 944 847 944 q 878 947 867 947 q 892 946 885 947 m 731 1028 q 814 1097 774 1086 q 893 1078 853 1107 l 917 1058 q 938 1042 932 1046 q 953 1036 943 1039 q 974 1036 963 1033 q 996 1051 979 1039 q 1031 1078 997 1051 q 1058 1086 1043 1088 q 1083 1072 1074 1085 q 1092 1044 1093 1060 q 1078 1019 1090 1029 q 1042 990 1043 992 q 988 961 1007 965 q 953 960 971 957 q 923 967 935 964 q 897 979 911 971 q 876 994 883 988 l 860 1008 q 849 1017 850 1015 q 833 1024 838 1025 q 792 983 818 1021 q 767 969 782 971 q 739 976 751 967 q 724 1000 726 985 q 731 1028 722 1015 z "},"":{"ha":900,"x_min":531,"x_max":1272,"o":"m 1111 588 q 906 607 1008 571 q 742 742 785 650 q 647 503 681 638 q 628 224 607 342 q 736 68 650 101 q 935 113 839 29 q 1078 353 1028 194 q 1111 588 1115 472 m 1103 663 q 988 846 1078 796 q 868 871 938 874 q 797 821 835 861 l 800 801 q 931 678 819 717 q 1103 663 1017 647 m 892 946 q 1024 913 969 942 q 1174 692 1139 849 l 1211 719 q 1239 726 1224 728 q 1263 711 1254 724 q 1270 683 1272 699 q 1256 658 1268 668 q 1185 611 1201 619 q 1149 329 1194 474 q 983 57 1092 151 q 708 -1 856 -57 q 554 211 583 46 q 574 521 531 344 q 693 806 615 686 q 726 851 710 831 q 749 897 732 878 q 839 943 779 933 q 856 944 847 944 q 878 947 867 947 q 892 946 885 947 m 838 1043 q 849 1017 849 1032 q 838 990 849 1001 q 811 979 826 979 q 785 990 796 979 q 774 1017 774 1001 q 785 1043 774 1032 q 811 1054 796 1054 q 838 1043 826 1054 m 992 1039 q 1003 1013 1003 1028 q 992 986 1003 997 q 965 975 981 975 q 939 986 950 975 q 928 1013 928 997 q 939 1039 928 1028 q 965 1050 950 1050 q 992 1039 981 1050 z "},"":{"ha":494,"x_min":549,"x_max":844,"o":"m 651 342 q 574 432 604 393 q 567 460 565 444 q 582 484 569 475 q 610 491 594 493 q 635 476 625 489 q 700 399 660 443 l 750 463 q 775 477 760 475 q 803 470 790 479 q 817 446 815 461 q 811 418 819 431 l 753 343 q 835 250 806 286 q 842 222 844 238 q 828 197 840 207 q 801 190 817 188 q 776 203 786 192 q 703 288 749 238 q 613 199 660 240 q 585 189 600 188 q 559 202 569 190 q 550 229 549 214 q 563 254 551 244 q 651 342 607 294 z "},"":{"ha":900,"x_min":481,"x_max":1251,"o":"m 921 674 l 1011 813 q 967 846 990 833 q 847 871 917 874 q 776 821 814 861 l 779 801 q 910 678 799 717 q 921 674 915 676 m 1000 660 q 1082 663 1043 656 q 1057 746 1074 708 l 1000 660 m 956 589 l 657 108 q 715 68 681 81 q 914 113 818 29 q 1057 353 1007 194 q 1090 588 1094 472 q 956 589 1025 578 m 879 608 q 721 742 764 651 q 626 503 660 638 q 607 224 586 342 q 617 185 611 203 l 879 608 m 617 43 l 553 -57 q 529 -73 544 -69 q 501 -68 514 -76 q 484 -44 488 -60 q 489 -15 481 -29 l 568 107 q 533 211 544 153 q 553 521 510 344 q 672 806 594 686 q 706 851 689 831 q 728 897 711 878 q 818 943 758 933 q 835 944 826 944 q 857 947 846 947 q 871 946 864 947 q 1003 913 949 942 q 1053 876 1029 897 l 1113 964 q 1136 981 1121 978 q 1165 974 1151 983 q 1181 950 1178 965 q 1174 922 1183 935 l 1103 817 q 1153 692 1138 764 l 1190 719 q 1218 726 1203 728 q 1242 711 1233 724 q 1249 683 1251 699 q 1235 658 1247 668 q 1164 611 1181 619 q 1128 329 1174 474 q 963 57 1071 151 q 688 -1 835 -57 q 617 43 647 14 z "},"":{"ha":792,"x_min":501,"x_max":1146,"o":"m 1106 728 l 1092 658 q 1078 578 1082 611 l 1067 500 q 1057 415 1060 454 q 1063 189 1046 279 q 1131 50 1079 89 q 1144 26 1142 42 q 1137 -2 1146 10 q 1112 -16 1128 -14 q 1083 -8 1096 -18 q 988 175 1011 47 q 978 353 975 251 q 879 151 929 231 q 726 7 804 32 q 557 63 621 -25 q 507 218 511 125 q 544 592 501 361 q 649 939 588 824 q 672 957 657 953 q 700 953 686 961 q 718 931 714 946 q 715 903 722 917 q 617 578 658 799 q 582 221 576 356 q 617 107 585 151 q 704 79 650 63 q 815 192 756 94 q 925 425 869 276 q 1060 881 1011 654 q 1076 904 1063 896 q 1104 909 1089 913 q 1128 892 1119 906 q 1132 864 1136 879 l 1132 861 q 1131 849 1132 856 q 1119 796 1129 842 q 1106 728 1110 750 m 907 1085 q 1010 997 947 1049 q 1024 972 1022 988 q 1015 944 1025 957 q 990 931 1006 932 q 963 939 975 929 q 857 1029 897 992 q 844 1056 846 1040 q 854 1082 843 1071 q 881 1094 865 1093 q 907 1085 896 1096 z "},"":{"ha":792,"x_min":501,"x_max":1146,"o":"m 1106 728 l 1092 658 q 1078 578 1082 611 l 1067 500 q 1057 415 1060 454 q 1063 189 1046 279 q 1131 50 1079 89 q 1144 26 1142 42 q 1137 -2 1146 10 q 1112 -16 1128 -14 q 1083 -8 1096 -18 q 988 175 1011 47 q 978 353 975 251 q 879 151 929 231 q 726 7 804 32 q 557 63 621 -25 q 507 218 511 125 q 544 592 501 361 q 649 939 588 824 q 672 957 657 953 q 700 953 686 961 q 718 931 714 946 q 715 903 722 917 q 617 578 658 799 q 582 221 576 356 q 617 107 585 151 q 704 79 650 63 q 815 192 756 94 q 925 425 869 276 q 1060 881 1011 654 q 1076 904 1063 896 q 1104 909 1089 913 q 1128 892 1119 906 q 1132 864 1136 879 l 1132 861 q 1131 849 1132 856 q 1119 796 1129 842 q 1106 728 1110 750 m 858 1000 q 914 1047 879 1015 q 968 1093 950 1079 q 996 1101 981 1103 q 1021 1088 1011 1100 q 1029 1060 1031 1075 q 1015 1035 1028 1044 q 961 989 996 1019 q 906 942 925 957 q 878 934 893 932 q 853 948 863 936 q 845 975 843 960 q 858 1000 847 990 z "},"":{"ha":792,"x_min":501,"x_max":1146,"o":"m 1106 728 l 1092 658 q 1078 578 1082 611 l 1067 500 q 1057 415 1060 454 q 1063 189 1046 279 q 1131 50 1079 89 q 1144 26 1142 42 q 1137 -2 1146 10 q 1112 -16 1128 -14 q 1083 -8 1096 -18 q 988 175 1011 47 q 978 353 975 251 q 879 151 929 231 q 726 7 804 32 q 557 63 621 -25 q 507 218 511 125 q 544 592 501 361 q 649 939 588 824 q 672 957 657 953 q 700 953 686 961 q 718 931 714 946 q 715 903 722 917 q 617 578 658 799 q 582 221 576 356 q 617 107 585 151 q 704 79 650 63 q 815 192 756 94 q 925 425 869 276 q 1060 881 1011 654 q 1076 904 1063 896 q 1104 909 1089 913 q 1128 892 1119 906 q 1132 864 1136 879 l 1132 861 q 1131 849 1132 856 q 1119 796 1129 842 q 1106 728 1110 750 m 793 1015 q 846 1085 838 1075 q 906 1133 878 1124 q 986 1110 950 1149 q 1042 1017 1014 1082 q 1042 988 1047 1001 q 1022 967 1036 974 q 993 967 1007 961 q 972 986 979 972 q 932 1058 950 1040 l 929 1061 q 904 1038 919 1057 q 854 971 897 1029 q 829 956 844 958 q 801 963 814 954 q 787 988 789 972 q 793 1015 785 1003 z "},"":{"ha":792,"x_min":501,"x_max":1146,"o":"m 1106 728 l 1092 658 q 1078 578 1082 611 l 1067 500 q 1057 415 1060 454 q 1063 189 1046 279 q 1131 50 1079 89 q 1144 26 1142 42 q 1137 -2 1146 10 q 1112 -16 1128 -14 q 1083 -8 1096 -18 q 988 175 1011 47 q 978 353 975 251 q 879 151 929 231 q 726 7 804 32 q 557 63 621 -25 q 507 218 511 125 q 544 592 501 361 q 649 939 588 824 q 672 957 657 953 q 700 953 686 961 q 718 931 714 946 q 715 903 722 917 q 617 578 658 799 q 582 221 576 356 q 617 107 585 151 q 704 79 650 63 q 815 192 756 94 q 925 425 869 276 q 1060 881 1011 654 q 1076 904 1063 896 q 1104 909 1089 913 q 1128 892 1119 906 q 1132 864 1136 879 l 1132 861 q 1131 849 1132 856 q 1119 796 1129 842 q 1106 728 1110 750 m 844 1039 q 856 1013 856 1028 q 844 986 856 997 q 818 975 833 975 q 792 986 803 975 q 781 1013 781 997 q 792 1039 781 1028 q 818 1050 803 1050 q 844 1039 833 1050 m 999 1033 q 1010 1007 1010 1022 q 999 981 1010 992 q 972 969 988 969 q 946 981 957 969 q 935 1007 935 992 q 946 1033 935 1022 q 972 1044 957 1044 q 999 1033 988 1044 z "},"":{"ha":757,"x_min":479,"x_max":1111,"o":"m 685 790 q 678 753 683 778 l 661 689 q 643 617 650 649 q 589 351 606 465 q 585 124 567 199 q 608 72 593 86 q 650 64 622 60 q 846 264 747 79 q 971 568 897 360 q 1025 776 983 606 q 1032 822 1026 785 q 1036 842 1035 838 q 1038 849 1038 846 q 1046 861 1040 856 q 1074 874 1057 874 q 1106 857 1094 874 l 1111 842 l 1111 836 l 1111 831 q 1099 706 1110 771 q 1071 555 1089 640 q 1047 438 1053 469 q 1000 126 1036 381 q 993 83 999 122 q 986 31 988 43 q 978 -14 985 19 q 967 -66 972 -47 q 954 -110 963 -85 q 936 -156 946 -133 q 692 -326 864 -311 q 504 -299 586 -335 q 485 -277 490 -292 q 485 -249 479 -262 q 506 -229 492 -235 q 535 -229 521 -224 q 686 -251 600 -258 q 868 -125 815 -240 q 881 -93 875 -110 q 892 -56 888 -76 l 900 -22 q 908 19 904 -7 q 914 56 913 44 q 919 97 915 67 l 925 138 l 949 304 q 913 229 931 264 q 661 -11 797 11 q 558 15 600 -21 q 511 107 525 46 q 514 363 490 197 q 569 635 531 476 l 588 706 l 603 769 l 613 804 q 628 828 615 819 q 656 834 640 838 q 680 818 671 831 q 685 790 689 806 m 790 896 l 904 988 q 931 996 915 997 q 957 983 947 994 q 965 955 967 971 q 951 929 964 939 l 838 838 q 810 829 825 828 q 785 843 794 831 q 776 871 775 856 q 790 896 778 886 z "},"":{"ha":721,"x_min":492,"x_max":1083,"o":"m 594 124 l 568 -86 q 554 -111 567 -101 q 526 -119 542 -121 q 501 -106 511 -118 q 493 -78 492 -93 q 533 223 503 3 q 578 596 564 443 q 593 894 593 749 q 604 921 593 910 q 631 932 615 932 q 657 921 646 932 q 668 894 668 910 q 654 608 668 764 q 838 718 747 689 q 988 714 928 747 q 1069 556 1060 674 q 908 263 1083 397 q 758 172 839 210 q 607 124 676 136 l 594 124 m 643 492 q 606 200 631 388 q 735 244 665 213 q 863 321 804 276 q 994 550 1004 431 q 951 649 988 628 q 861 647 919 667 q 743 583 804 628 q 649 497 682 539 l 643 492 z "},"":{"ha":767,"x_min":539,"x_max":1133,"o":"m 540 -44 q 543 135 543 36 q 542 322 543 235 q 553 510 540 408 q 594 697 567 611 q 689 872 632 807 q 889 942 775 971 q 986 832 978 919 q 956 686 992 775 q 893 554 942 650 q 872 507 878 522 l 867 493 q 904 465 869 483 q 954 439 908 463 q 1011 407 989 422 q 1104 300 1082 361 q 1088 114 1133 221 q 1022 17 1063 57 q 939 -40 982 -24 q 851 -60 896 -56 q 769 -50 806 -64 q 702 -11 731 -37 q 669 54 674 15 q 771 197 663 133 q 800 201 785 206 q 823 184 815 197 q 826 156 831 171 q 810 133 822 140 q 744 61 742 93 q 792 22 747 36 q 847 15 815 13 q 910 30 879 18 q 970 72 940 42 q 1018 144 1000 101 q 1035 274 1053 224 q 969 344 1021 313 q 919 372 951 357 l 868 399 q 792 483 799 438 q 801 535 789 503 l 826 588 q 886 714 874 682 q 911 825 915 786 q 869 869 908 860 q 744 822 801 888 q 667 672 699 769 q 627 497 639 592 q 617 320 615 403 q 618 140 618 238 q 615 -50 618 42 q 603 -76 614 -65 q 576 -85 592 -86 q 549 -72 560 -83 q 540 -44 539 -61 z "},"":{"ha":517,"x_min":235,"x_max":871,"o":"m 583 383 q 586 382 585 383 q 599 354 597 371 q 594 325 600 342 q 588 308 594 322 l 586 301 q 578 256 578 257 q 574 208 575 232 q 571 178 571 182 q 582 89 571 122 q 628 43 597 51 q 679 57 656 36 q 729 133 704 79 q 767 240 747 174 q 796 331 793 324 q 815 352 801 346 q 844 353 829 358 q 865 333 858 347 q 865 306 871 319 q 839 218 864 300 q 797 101 818 149 q 728 0 767 33 q 608 -29 674 -47 q 513 64 539 -10 q 506 86 508 74 q 482 51 494 67 q 392 -21 439 -7 q 274 22 326 -40 q 239 163 235 68 q 276 326 243 243 q 367 460 313 417 q 519 472 440 515 q 576 418 564 446 q 583 388 581 406 l 583 383 m 513 343 q 508 378 511 353 q 506 390 507 388 q 483 406 507 393 q 413 400 447 426 q 346 299 374 369 q 314 158 317 229 q 332 69 311 93 q 371 51 353 46 q 422 97 393 58 q 471 181 449 132 q 501 257 493 228 q 504 267 503 263 l 504 276 q 513 335 508 313 q 514 342 513 339 q 513 343 514 343 m 435 686 q 553 610 521 628 q 571 587 567 601 q 567 558 575 572 q 545 540 560 544 q 517 543 531 536 q 393 625 481 564 q 376 649 379 633 q 383 677 374 664 q 407 693 392 690 q 435 686 422 696 z "},"":{"ha":517,"x_min":235,"x_max":871,"o":"m 583 383 q 586 382 585 383 q 599 354 597 371 q 594 325 600 342 q 588 308 594 322 l 586 301 q 578 256 578 257 q 574 208 575 232 q 571 178 571 182 q 582 89 571 122 q 628 43 597 51 q 679 57 656 36 q 729 133 704 79 q 767 240 747 174 q 796 331 793 324 q 815 352 801 346 q 844 353 829 358 q 865 333 858 347 q 865 306 871 319 q 839 218 864 300 q 797 101 818 149 q 728 0 767 33 q 608 -29 674 -47 q 513 64 539 -10 q 506 86 508 74 q 482 51 494 67 q 392 -21 439 -7 q 274 22 326 -40 q 239 163 235 68 q 276 326 243 243 q 367 460 313 417 q 519 472 440 515 q 576 418 564 446 q 583 388 581 406 l 583 383 m 513 343 q 508 378 511 353 q 506 390 507 388 q 483 406 507 393 q 413 400 447 426 q 346 299 374 369 q 314 158 317 229 q 332 69 311 93 q 371 51 353 46 q 422 97 393 58 q 471 181 449 132 q 501 257 493 228 q 504 267 503 263 l 504 276 q 513 335 508 313 q 514 342 513 339 q 513 343 514 343 m 388 600 q 465 658 417 622 q 526 701 518 696 q 554 708 539 710 q 578 693 569 706 q 585 665 588 681 q 571 640 583 650 q 513 599 563 635 q 435 542 465 565 q 407 533 422 532 q 382 547 392 535 q 374 575 372 560 q 388 600 375 590 z "},"":{"ha":517,"x_min":235,"x_max":871,"o":"m 583 383 q 586 382 585 383 q 599 354 597 371 q 594 325 600 342 q 588 308 594 322 l 586 301 q 578 256 578 257 q 574 208 575 232 q 571 178 571 182 q 582 89 571 122 q 628 43 597 51 q 679 57 656 36 q 729 133 704 79 q 767 240 747 174 q 796 331 793 324 q 815 352 801 346 q 844 353 829 358 q 865 333 858 347 q 865 306 871 319 q 839 218 864 300 q 797 101 818 149 q 728 0 767 33 q 608 -29 674 -47 q 513 64 539 -10 q 506 86 508 74 q 482 51 494 67 q 392 -21 439 -7 q 274 22 326 -40 q 239 163 235 68 q 276 326 243 243 q 367 460 313 417 q 519 472 440 515 q 576 418 564 446 q 583 388 581 406 l 583 383 m 513 343 q 508 378 511 353 q 506 390 507 388 q 483 406 507 393 q 413 400 447 426 q 346 299 374 369 q 314 158 317 229 q 332 69 311 93 q 371 51 353 46 q 422 97 393 58 q 471 181 449 132 q 501 257 493 228 q 504 267 503 263 l 504 276 q 513 335 508 313 q 514 342 513 339 q 513 343 514 343 m 318 618 q 392 693 342 640 q 417 718 407 710 q 454 733 435 733 q 496 715 478 735 q 517 685 506 706 q 540 644 522 676 l 571 588 q 575 560 579 575 q 558 537 571 544 q 529 533 544 529 q 507 551 514 538 l 476 606 l 453 647 l 451 649 l 446 643 q 371 563 396 588 q 344 553 360 553 q 317 564 328 553 q 307 591 307 575 q 318 618 307 607 z "},"":{"ha":517,"x_min":235,"x_max":871,"o":"m 583 383 q 586 382 585 383 q 599 354 597 371 q 594 325 600 342 q 588 308 594 322 l 586 301 q 578 256 578 257 q 574 208 575 232 q 571 178 571 182 q 582 89 571 122 q 628 43 597 51 q 679 57 656 36 q 729 133 704 79 q 767 240 747 174 q 796 331 793 324 q 815 352 801 346 q 844 353 829 358 q 865 333 858 347 q 865 306 871 319 q 839 218 864 300 q 797 101 818 149 q 728 0 767 33 q 608 -29 674 -47 q 513 64 539 -10 q 506 86 508 74 q 482 51 494 67 q 392 -21 439 -7 q 274 22 326 -40 q 239 163 235 68 q 276 326 243 243 q 367 460 313 417 q 519 472 440 515 q 576 418 564 446 q 583 388 581 406 l 583 383 m 513 343 q 508 378 511 353 q 506 390 507 388 q 483 406 507 393 q 413 400 447 426 q 346 299 374 369 q 314 158 317 229 q 332 69 311 93 q 371 51 353 46 q 422 97 393 58 q 471 181 449 132 q 501 257 493 228 q 504 267 503 263 l 504 276 q 513 335 508 313 q 514 342 513 339 q 513 343 514 343 m 328 622 q 371 681 350 663 q 428 701 397 706 q 472 676 451 697 q 496 647 479 669 l 514 626 q 557 678 526 631 q 581 695 565 692 q 609 690 596 699 q 626 667 622 682 q 621 639 629 651 q 514 551 567 551 q 436 601 475 551 q 419 624 424 619 q 392 586 408 613 q 369 568 385 572 q 341 572 354 564 q 324 594 328 579 q 328 622 319 610 z "},"":{"ha":517,"x_min":235,"x_max":871,"o":"m 583 383 q 586 382 585 383 q 599 354 597 371 q 594 325 600 342 q 588 308 594 322 l 586 301 q 578 256 578 257 q 574 208 575 232 q 571 178 571 182 q 582 89 571 122 q 628 43 597 51 q 679 57 656 36 q 729 133 704 79 q 767 240 747 174 q 796 331 793 324 q 815 352 801 346 q 844 353 829 358 q 865 333 858 347 q 865 306 871 319 q 839 218 864 300 q 797 101 818 149 q 728 0 767 33 q 608 -29 674 -47 q 513 64 539 -10 q 506 86 508 74 q 482 51 494 67 q 392 -21 439 -7 q 274 22 326 -40 q 239 163 235 68 q 276 326 243 243 q 367 460 313 417 q 519 472 440 515 q 576 418 564 446 q 583 388 581 406 l 583 383 m 513 343 q 508 378 511 353 q 506 390 507 388 q 483 406 507 393 q 413 400 447 426 q 346 299 374 369 q 314 158 317 229 q 332 69 311 93 q 371 51 353 46 q 422 97 393 58 q 471 181 449 132 q 501 257 493 228 q 504 267 503 263 l 504 276 q 513 335 508 313 q 514 342 513 339 q 513 343 514 343 m 418 635 q 429 608 429 624 q 418 582 429 593 q 392 571 407 571 q 365 582 376 571 q 354 608 354 593 q 365 635 354 624 q 392 646 376 646 q 418 635 407 646 m 542 628 q 553 601 553 617 q 542 575 553 586 q 515 564 531 564 q 489 575 500 564 q 478 601 478 586 q 489 628 478 617 q 515 639 500 639 q 542 628 531 639 z "},"":{"ha":517,"x_min":235,"x_max":871,"o":"m 583 383 q 586 382 585 383 q 599 354 597 371 q 594 325 600 342 q 588 308 594 322 l 586 301 q 578 256 578 257 q 574 208 575 232 q 571 178 571 182 q 582 89 571 122 q 628 43 597 51 q 679 57 656 36 q 729 133 704 79 q 767 240 747 174 q 796 331 793 324 q 815 352 801 346 q 844 353 829 358 q 865 333 858 347 q 865 306 871 319 q 839 218 864 300 q 797 101 818 149 q 728 0 767 33 q 608 -29 674 -47 q 513 64 539 -10 q 506 86 508 74 q 482 51 494 67 q 392 -21 439 -7 q 274 22 326 -40 q 239 163 235 68 q 276 326 243 243 q 367 460 313 417 q 519 472 440 515 q 576 418 564 446 q 583 388 581 407 l 583 383 m 446 636 q 489 637 472 631 q 511 661 506 643 q 510 702 518 683 q 490 724 503 721 q 461 719 475 728 q 439 689 447 710 q 446 636 426 657 m 367 622 q 369 717 350 668 q 424 783 385 758 q 510 796 463 808 q 578 733 560 782 q 583 639 597 685 q 514 565 565 585 q 457 558 489 556 q 425 560 440 551 q 410 568 417 564 q 389 576 399 572 q 369 595 375 582 q 367 622 363 608 m 513 343 q 508 378 511 353 q 506 390 507 388 q 483 406 507 393 q 413 400 447 426 q 346 299 374 369 q 314 158 317 229 q 332 69 311 93 q 371 51 353 46 q 422 97 393 58 q 471 181 449 132 q 501 257 493 228 q 504 267 503 263 l 504 276 q 513 335 508 313 q 514 342 513 339 q 513 343 514 343 z "},"":{"ha":735,"x_min":235,"x_max":1089,"o":"m 796 331 q 801 414 813 389 q 796 419 799 419 q 781 418 790 422 q 704 337 742 403 q 665 169 667 271 q 700 81 664 113 q 729 133 714 101 q 767 240 747 174 l 779 281 q 782 292 779 286 l 786 303 q 796 331 792 321 m 583 383 q 586 382 585 383 q 599 354 597 371 q 594 325 600 342 q 588 308 594 322 l 586 301 q 578 256 578 257 q 574 208 575 232 q 571 178 571 182 q 582 89 571 122 q 628 43 597 51 q 633 42 631 43 q 590 169 589 94 q 641 377 593 290 q 754 488 689 464 q 821 492 789 501 q 871 443 856 479 q 857 278 896 383 l 839 218 q 797 101 817 143 q 768 49 783 72 q 911 89 850 36 q 932 110 922 99 q 951 138 942 122 q 965 166 960 154 q 979 200 971 178 l 990 231 q 1001 267 993 240 q 1013 300 1010 293 q 1032 322 1018 315 q 1060 324 1046 329 q 1082 306 1075 319 q 1085 278 1089 292 l 1074 242 l 1058 196 q 1042 154 1054 183 q 1019 108 1029 125 q 994 70 1010 92 q 961 33 978 49 q 849 -22 913 -8 q 729 -19 785 -36 q 711 -12 719 -17 q 608 -29 664 -44 q 513 64 539 -10 q 506 86 508 74 q 482 51 494 67 q 392 -21 439 -7 q 274 22 326 -40 q 239 163 235 68 q 276 326 243 243 q 367 460 313 417 q 519 472 440 515 q 576 418 564 446 q 583 388 581 406 l 583 383 m 513 343 q 508 378 511 353 q 506 390 507 388 q 483 406 507 393 q 413 400 447 426 q 346 299 374 369 q 314 158 317 229 q 332 69 311 93 q 371 51 353 46 q 422 97 393 58 q 471 181 449 132 q 501 257 493 228 q 504 267 503 263 l 504 276 q 513 335 508 313 q 514 342 513 339 q 513 343 514 343 z "},"":{"ha":376,"x_min":250,"x_max":742,"o":"m 492 339 q 483 385 489 367 q 474 406 478 403 l 468 410 q 419 378 453 414 q 353 258 378 332 q 340 124 328 186 q 417 50 351 65 q 532 76 485 35 q 665 336 618 153 q 683 359 669 351 q 711 363 696 367 q 734 345 726 358 q 738 317 742 332 q 582 21 685 111 q 467 -28 535 -22 q 469 -92 479 -61 q 386 -168 456 -140 q 358 -168 372 -174 q 338 -148 343 -162 q 338 -119 332 -133 q 358 -99 343 -104 q 397 -71 393 -85 q 381 -25 401 -57 q 375 -15 378 -21 q 265 110 283 18 q 281 281 250 192 q 365 429 313 371 q 489 482 429 497 q 567 344 556 463 q 558 317 568 329 q 533 304 549 306 q 505 313 517 303 q 492 339 493 322 z "},"":{"ha":361,"x_min":244,"x_max":729,"o":"m 336 218 q 404 210 369 199 q 479 274 447 225 q 507 363 510 321 q 474 408 506 399 q 396 368 436 422 q 336 218 350 308 m 335 138 q 356 72 339 97 q 475 40 390 21 q 583 131 544 57 q 608 185 597 157 q 632 251 619 214 q 654 315 644 289 q 674 335 660 329 q 702 336 688 342 q 723 317 717 331 q 724 288 729 303 l 704 229 q 678 157 690 190 q 650 94 665 124 q 492 -32 596 -8 q 294 31 357 -64 q 263 225 244 104 q 336 414 278 338 q 410 476 368 456 q 499 481 451 496 q 582 367 578 453 q 542 232 586 300 q 428 139 496 161 q 335 138 381 124 m 444 682 q 553 599 482 642 q 570 576 567 590 q 565 547 574 561 q 542 530 557 533 q 514 535 528 526 q 389 629 435 583 q 379 656 379 640 q 390 683 379 672 q 417 693 401 693 q 444 682 433 693 z "},"":{"ha":361,"x_min":244,"x_max":729,"o":"m 336 218 q 404 210 369 199 q 479 274 447 225 q 507 363 510 321 q 474 408 506 399 q 396 368 436 422 q 336 218 350 308 m 335 138 q 356 72 339 97 q 475 40 390 21 q 583 131 544 57 q 608 185 597 157 q 632 251 619 214 q 654 315 644 289 q 674 335 660 329 q 702 336 688 342 q 723 317 717 331 q 724 288 729 303 l 704 229 q 678 157 690 190 q 650 94 665 124 q 492 -32 596 -8 q 294 31 357 -64 q 263 225 244 104 q 336 414 278 338 q 410 476 368 456 q 499 481 451 496 q 582 367 578 453 q 542 232 586 300 q 428 139 496 161 q 335 138 381 124 m 386 611 q 511 719 481 685 q 537 732 521 731 q 564 723 553 733 q 576 697 575 713 q 567 669 578 681 q 433 553 532 631 q 406 545 421 543 q 381 559 390 547 q 373 586 371 571 q 386 611 375 601 z "},"":{"ha":361,"x_min":244,"x_max":729,"o":"m 336 218 q 404 210 369 199 q 479 274 447 225 q 507 363 510 321 q 474 408 506 399 q 396 368 436 422 q 336 218 350 308 m 335 138 q 356 72 339 97 q 475 40 390 21 q 583 131 544 57 q 608 185 597 157 q 632 251 619 214 q 654 315 644 289 q 674 335 660 329 q 702 336 688 342 q 723 317 717 331 q 724 288 729 303 l 704 229 q 678 157 690 190 q 650 94 665 124 q 492 -32 596 -8 q 294 31 357 -64 q 263 225 244 104 q 336 414 278 338 q 410 476 368 456 q 499 481 451 496 q 582 367 578 453 q 542 232 586 300 q 428 139 496 161 q 335 138 381 124 m 349 599 q 400 688 358 618 q 435 740 421 721 q 449 760 443 753 l 457 768 q 489 779 471 781 q 514 767 503 778 q 522 757 518 763 q 535 738 526 750 l 564 683 q 608 588 596 618 q 608 559 614 574 q 588 539 603 544 q 559 539 574 533 q 539 560 544 544 q 496 649 532 578 l 482 676 l 464 649 q 415 565 424 583 q 395 547 410 551 q 366 548 381 542 q 347 569 351 554 q 349 599 342 583 z "},"":{"ha":361,"x_min":244,"x_max":729,"o":"m 336 218 q 404 210 369 199 q 479 274 447 225 q 507 363 510 321 q 474 408 506 399 q 396 368 436 422 q 336 218 350 308 m 335 138 q 356 72 339 97 q 475 40 390 21 q 583 131 544 57 q 608 185 597 157 q 632 251 619 214 q 654 315 644 289 q 674 335 660 329 q 702 336 688 342 q 723 317 717 331 q 724 288 729 303 l 704 229 q 678 157 690 190 q 650 94 665 124 q 492 -32 596 -8 q 294 31 357 -64 q 263 225 244 104 q 336 414 278 338 q 410 476 368 456 q 499 481 451 496 q 582 367 578 453 q 542 232 586 300 q 428 139 496 161 q 335 138 381 124 m 440 646 q 451 619 451 635 q 440 593 451 604 q 414 582 429 582 q 388 593 399 582 q 376 619 376 604 q 388 646 376 635 q 414 657 399 657 q 440 646 429 657 m 556 643 q 567 617 567 632 q 556 590 567 601 q 529 579 544 579 q 503 590 514 579 q 492 617 492 601 q 503 643 492 632 q 529 654 514 654 q 556 643 544 654 z "},"":{"ha":206,"x_min":246,"x_max":586,"o":"m 369 428 q 356 342 368 417 q 338 219 343 272 q 331 110 329 150 q 342 56 333 65 q 356 44 350 46 q 368 50 360 44 q 428 133 394 69 q 510 340 460 196 q 529 361 515 354 q 558 363 543 368 q 579 344 572 358 q 582 315 586 331 q 494 99 529 165 q 413 -10 453 19 q 349 -29 381 -33 q 286 6 314 -26 q 256 106 260 36 q 263 229 254 154 q 281 351 268 276 q 294 436 293 426 q 309 462 297 453 q 337 469 321 471 q 362 455 353 467 q 369 428 371 443 m 303 657 q 365 625 318 650 q 425 596 404 604 q 444 575 439 589 q 444 547 450 561 q 424 526 438 532 q 394 526 410 521 q 331 558 369 538 q 269 590 279 586 q 251 612 256 597 q 253 640 246 626 q 274 659 260 654 q 303 657 289 664 z "},"":{"ha":211,"x_min":251,"x_max":583,"o":"m 367 428 q 353 342 365 417 q 335 219 340 272 q 328 110 326 150 q 339 56 331 65 q 353 44 347 46 q 365 50 357 44 q 425 133 392 69 q 507 340 457 196 q 526 361 513 354 q 555 363 540 368 q 576 344 569 358 q 579 315 583 331 q 492 99 526 165 q 410 -10 450 19 q 346 -29 378 -33 q 283 6 311 -26 q 253 106 257 36 q 260 229 251 154 q 278 351 265 276 q 292 436 290 426 q 306 462 294 453 q 334 469 318 471 q 359 455 350 467 q 367 428 368 443 m 281 603 q 308 619 294 610 q 331 635 322 628 q 358 656 340 642 q 383 676 375 671 q 412 684 396 686 q 437 670 428 682 q 444 642 446 658 q 431 618 442 626 l 404 597 l 376 575 l 349 556 q 317 536 332 544 q 288 533 303 529 q 266 551 274 538 q 263 580 258 565 q 281 603 267 594 z "},"":{"ha":211,"x_min":233,"x_max":585,"o":"m 368 428 q 354 342 367 417 q 336 219 342 272 q 329 110 328 150 q 340 56 332 65 q 354 44 349 46 q 367 50 358 44 q 426 133 393 69 q 508 340 458 196 q 528 361 514 354 q 556 363 542 368 q 578 344 571 358 q 581 315 585 331 q 493 99 528 165 q 411 -10 451 19 q 347 -29 379 -33 q 285 6 313 -26 q 254 106 258 36 q 261 229 253 154 q 279 351 267 276 q 293 436 292 426 q 308 462 296 453 q 335 469 319 471 q 360 455 351 467 q 368 428 369 443 m 242 578 q 313 683 292 661 q 349 708 331 706 q 385 700 369 713 q 399 681 394 693 q 407 651 404 671 q 413 621 413 624 q 438 556 422 581 q 442 528 446 543 q 426 504 439 513 q 397 499 413 496 q 374 517 382 503 q 342 596 353 550 l 306 539 q 282 522 297 525 q 253 526 267 518 q 237 550 240 535 q 242 578 233 565 z "},"":{"ha":211,"x_min":251,"x_max":583,"o":"m 367 428 q 353 342 365 417 q 335 219 340 272 q 328 110 326 150 q 339 56 331 65 q 353 44 347 46 q 365 50 357 44 q 425 133 392 69 q 507 340 457 196 q 526 361 513 354 q 555 363 540 368 q 576 344 569 358 q 579 315 583 331 q 492 99 526 165 q 410 -10 450 19 q 346 -29 378 -33 q 283 6 311 -26 q 253 106 257 36 q 260 229 251 154 q 278 351 265 276 q 292 436 290 426 q 306 462 294 453 q 334 469 318 471 q 359 455 350 467 q 367 428 368 443 m 325 639 q 336 613 336 628 q 325 586 336 597 q 299 575 314 575 q 272 586 283 575 q 261 613 261 597 q 272 639 261 628 q 299 650 283 650 q 325 639 314 650 m 426 632 q 438 606 438 621 q 426 579 438 590 q 400 568 415 568 q 374 579 385 568 q 363 606 363 590 q 374 632 363 621 q 400 643 385 643 q 426 632 415 643 z "},"":{"ha":642,"x_min":521,"x_max":1029,"o":"m 868 394 q 783 347 824 374 q 628 194 656 268 q 631 79 604 131 q 718 38 657 31 q 851 129 806 47 q 882 325 896 211 q 868 394 878 361 m 763 564 q 651 486 703 514 q 623 483 638 479 q 601 501 608 488 q 597 530 593 515 q 615 553 601 544 q 697 607 654 574 q 601 636 653 629 q 577 651 586 639 q 570 679 568 664 q 585 703 572 694 q 613 711 597 713 q 758 660 692 700 q 840 731 818 713 q 868 739 853 740 q 893 725 883 738 q 901 697 903 713 q 888 672 900 682 q 819 613 868 657 q 908 494 874 564 q 979 518 947 510 q 1008 515 994 522 q 1025 492 1021 507 q 1022 463 1029 476 q 999 446 1014 450 q 938 425 971 439 q 957 335 951 382 q 949 169 968 247 q 871 31 928 90 q 726 -37 814 -28 q 629 -22 671 -44 q 564 44 586 1 q 558 222 521 126 q 743 411 594 317 q 839 464 790 442 q 763 564 808 522 z "},"":{"ha":518,"x_min":235,"x_max":868,"o":"m 486 400 q 472 389 482 397 q 414 315 446 368 q 364 224 388 271 q 336 157 342 175 q 331 136 333 150 q 310 22 321 78 q 308 14 310 17 q 306 3 308 8 q 299 -6 303 -1 q 256 -14 279 -25 q 236 10 240 -7 q 235 17 235 13 l 235 24 l 235 31 q 242 71 236 43 q 257 150 250 118 q 283 399 275 272 q 297 424 285 414 q 324 433 308 435 q 349 420 339 432 q 358 393 360 408 q 357 364 357 378 q 422 446 392 419 q 531 461 482 497 q 571 361 565 435 q 569 236 572 333 q 574 117 568 157 q 600 47 581 65 q 629 35 615 33 q 661 54 643 38 q 726 147 696 85 q 792 308 772 242 q 810 331 796 324 q 838 335 824 339 q 860 317 853 331 q 864 289 868 303 q 793 114 843 215 q 713 -1 756 39 q 639 -39 676 -35 q 550 -8 590 -46 q 500 106 510 28 q 494 239 493 153 q 496 356 497 331 q 486 400 493 389 m 314 578 q 400 675 346 669 q 450 661 424 676 q 482 636 463 653 q 521 608 513 610 q 524 608 522 607 q 533 617 526 608 q 550 642 540 625 q 573 660 558 656 q 601 656 588 664 q 619 634 615 649 q 617 606 624 619 q 513 533 572 526 q 433 579 481 538 q 410 597 417 593 q 407 599 408 599 q 383 553 397 588 q 365 531 379 538 q 335 530 350 525 q 315 549 321 535 q 314 578 308 564 z "},"":{"ha":475,"x_min":225,"x_max":844,"o":"m 464 40 l 458 46 q 387 167 414 97 q 361 306 360 238 q 326 221 339 264 q 317 89 303 143 q 379 29 331 40 q 464 40 428 19 m 515 96 q 549 232 546 150 q 521 382 553 328 q 496 408 510 404 q 468 404 485 414 q 465 401 467 404 q 456 381 461 393 q 444 239 425 319 q 515 96 463 158 m 510 483 l 524 478 q 586 419 561 464 q 624 228 629 344 q 574 46 619 119 q 615 33 594 35 q 704 100 665 31 q 722 133 714 117 q 733 161 729 150 q 743 192 738 172 q 751 221 749 213 q 760 255 754 229 q 768 290 765 281 q 784 314 771 306 q 813 319 797 322 q 836 302 828 315 q 840 274 844 289 q 833 239 839 265 q 824 203 826 213 q 816 171 822 193 q 804 135 810 149 q 790 101 799 121 q 771 64 781 82 q 611 -42 708 -46 q 522 -11 567 -39 q 365 -43 456 -62 q 244 69 271 -25 q 254 243 225 144 q 339 406 282 335 q 475 497 403 485 q 510 483 496 500 m 449 667 q 581 581 533 606 q 599 558 594 574 q 597 530 604 543 q 575 512 590 517 q 547 514 560 507 q 404 606 494 542 q 390 631 392 615 q 397 658 388 646 q 421 673 406 671 q 449 667 436 675 z "},"":{"ha":475,"x_min":225,"x_max":844,"o":"m 464 40 l 458 46 q 387 167 414 97 q 361 306 360 238 q 326 221 339 264 q 317 89 303 143 q 379 29 331 40 q 464 40 428 19 m 515 96 q 549 232 546 150 q 521 382 553 328 q 496 408 510 404 q 468 404 485 414 q 465 401 467 404 q 456 381 461 393 q 444 239 425 319 q 515 96 463 158 m 510 483 l 524 478 q 586 419 561 464 q 624 228 629 344 q 574 46 619 119 q 615 33 594 35 q 704 100 665 31 q 722 133 714 117 q 733 161 729 150 q 743 192 738 172 q 751 221 749 213 q 760 255 754 229 q 768 290 765 281 q 784 314 771 306 q 813 319 797 322 q 836 302 828 315 q 840 274 844 289 q 833 239 839 265 q 824 203 826 213 q 816 171 822 193 q 804 135 810 149 q 790 101 799 121 q 771 64 781 82 q 611 -42 708 -46 q 522 -11 567 -39 q 365 -43 456 -62 q 244 69 271 -25 q 254 243 225 144 q 339 406 282 335 q 475 497 403 485 q 510 483 496 500 m 404 589 q 494 694 438 632 q 521 707 506 706 q 547 697 536 708 q 560 671 558 686 q 550 644 561 656 q 463 542 494 583 q 438 528 454 531 q 410 535 422 526 q 397 560 399 544 q 404 589 394 576 z "},"":{"ha":475,"x_min":225,"x_max":844,"o":"m 464 40 l 458 46 q 387 167 414 97 q 361 306 360 238 q 326 221 339 264 q 317 89 303 143 q 379 29 331 40 q 464 40 428 19 m 515 96 q 549 232 546 150 q 521 382 553 328 q 496 408 510 404 q 468 404 485 414 q 465 401 467 404 q 456 381 461 393 q 444 239 425 319 q 515 96 463 158 m 510 483 l 524 478 q 586 419 561 464 q 624 228 629 344 q 574 46 619 119 q 615 33 594 35 q 704 100 665 31 q 722 133 714 117 q 733 161 729 150 q 743 192 738 172 q 751 221 749 213 q 760 255 754 229 q 768 290 765 281 q 784 314 771 306 q 813 319 797 322 q 836 302 828 315 q 840 274 844 289 q 833 239 839 265 q 824 203 826 213 q 816 171 822 193 q 804 135 810 149 q 790 101 799 121 q 771 64 781 82 q 611 -42 708 -46 q 522 -11 567 -39 q 365 -43 456 -62 q 244 69 271 -25 q 254 243 225 144 q 339 406 282 335 q 475 497 403 485 q 510 483 496 500 m 388 607 q 442 679 440 678 q 501 718 472 717 q 565 681 535 719 l 615 606 q 620 576 624 592 q 603 553 617 561 q 575 548 590 544 q 551 564 560 551 q 506 635 514 624 l 504 636 l 500 632 q 449 563 500 631 q 424 548 439 550 q 396 555 408 546 q 381 579 383 564 q 388 607 379 594 z "},"":{"ha":475,"x_min":225,"x_max":844,"o":"m 464 40 l 458 46 q 387 167 414 97 q 361 306 360 238 q 326 221 339 264 q 317 89 303 143 q 379 29 331 40 q 464 40 428 19 m 515 96 q 549 232 546 150 q 521 382 553 328 q 496 408 510 404 q 468 404 485 414 q 465 401 467 404 q 456 381 461 393 q 444 239 425 319 q 515 96 463 158 m 510 483 l 524 478 q 586 419 561 464 q 624 228 629 344 q 574 46 619 119 q 615 33 594 35 q 704 100 665 31 q 722 133 714 117 q 733 161 729 150 q 743 192 738 172 q 751 221 749 213 q 760 255 754 229 q 768 290 765 281 q 784 314 771 306 q 813 319 797 322 q 836 302 828 315 q 840 274 844 289 q 833 239 839 265 q 824 203 826 213 q 816 171 822 193 q 804 135 810 149 q 790 101 799 121 q 771 64 781 82 q 611 -42 708 -46 q 522 -11 567 -39 q 365 -43 456 -62 q 244 69 271 -25 q 254 243 225 144 q 339 406 282 335 q 475 497 403 485 q 510 483 496 500 m 353 586 q 444 672 392 671 q 492 656 468 672 l 519 631 q 538 613 532 617 q 561 656 549 624 q 581 675 567 669 q 610 675 596 681 q 631 655 625 669 q 631 625 636 640 q 542 536 593 539 q 494 551 518 535 q 467 576 483 560 q 447 594 453 590 l 446 596 q 422 556 435 586 q 401 536 415 542 q 372 537 386 531 q 353 558 358 543 q 353 586 347 572 z "},"":{"ha":475,"x_min":225,"x_max":844,"o":"m 464 40 l 458 46 q 387 167 414 97 q 361 306 360 238 q 326 221 339 264 q 317 89 303 143 q 379 29 331 40 q 464 40 428 19 m 515 96 q 549 232 546 150 q 521 382 553 328 q 496 408 510 404 q 468 404 485 414 q 465 401 467 404 q 456 381 461 393 q 444 239 425 319 q 515 96 463 158 m 510 483 l 524 478 q 586 419 561 464 q 624 228 629 344 q 574 46 619 119 q 615 33 594 35 q 704 100 665 31 q 722 133 714 117 q 733 161 729 150 q 743 192 738 172 q 751 221 749 213 q 760 255 754 229 q 768 290 765 281 q 784 314 771 306 q 813 319 797 322 q 836 302 828 315 q 840 274 844 289 q 833 239 839 265 q 824 203 826 213 q 816 171 822 193 q 804 135 810 149 q 790 101 799 121 q 771 64 781 82 q 611 -42 708 -46 q 522 -11 567 -39 q 365 -43 456 -62 q 244 69 271 -25 q 254 243 225 144 q 339 406 282 335 q 475 497 403 485 q 510 483 496 500 m 442 643 q 453 617 453 632 q 442 590 453 601 q 415 579 431 579 q 389 590 400 579 q 378 617 378 601 q 389 643 378 632 q 415 654 400 654 q 442 643 431 654 m 567 639 q 578 613 578 628 q 567 586 578 597 q 540 575 556 575 q 514 586 525 575 q 503 613 503 597 q 514 639 503 628 q 540 650 525 650 q 567 639 556 650 z "},"":{"ha":358,"x_min":358,"x_max":706,"o":"m 396 338 q 667 343 407 338 q 694 333 683 343 q 706 306 706 322 q 695 279 706 290 q 669 268 685 268 q 396 263 407 263 q 369 274 381 263 q 358 300 358 285 q 369 326 358 315 q 396 338 381 338 m 557 443 q 568 417 568 432 q 557 390 568 401 q 531 379 546 379 q 504 390 515 379 q 493 417 493 401 q 504 443 493 432 q 531 454 515 454 q 557 443 546 454 m 556 228 q 567 201 567 217 q 556 175 567 186 q 529 164 544 164 q 503 175 514 164 q 492 201 492 186 q 503 228 492 217 q 529 239 514 239 q 556 228 544 239 z "},"":{"ha":475,"x_min":175,"x_max":825,"o":"m 428 226 l 514 357 q 501 382 508 371 q 476 408 490 404 q 449 404 465 414 q 446 401 447 404 q 436 381 442 393 q 428 226 403 318 m 461 143 q 496 96 476 117 q 529 232 526 151 q 531 246 531 239 l 483 175 l 461 143 m 375 150 q 342 306 340 229 q 307 221 319 264 q 297 89 283 143 q 310 63 301 74 q 375 150 340 101 m 415 78 l 378 28 q 444 40 415 24 l 439 46 q 415 78 426 61 m 324 -37 q 238 -126 281 -86 q 211 -135 226 -136 q 185 -124 196 -135 q 176 -97 175 -112 q 188 -71 176 -82 q 260 3 224 -37 q 225 69 236 31 q 235 243 206 144 q 319 406 263 335 q 456 497 383 485 q 490 483 476 500 l 504 478 q 563 428 539 465 q 640 531 604 486 q 665 544 650 543 q 693 536 681 546 q 707 511 706 526 q 699 483 708 496 q 596 343 651 425 q 604 228 607 290 q 554 46 600 121 q 596 33 575 35 q 685 100 646 31 q 702 133 694 117 q 714 161 710 150 q 724 192 718 172 q 732 221 729 213 q 740 255 735 229 q 749 290 746 281 q 765 314 751 306 q 793 319 778 322 q 817 302 808 315 q 821 274 825 289 q 813 239 819 265 q 805 203 807 213 q 797 171 803 193 q 785 135 790 149 q 770 101 779 121 q 751 64 761 82 q 592 -42 689 -46 q 503 -11 547 -39 q 346 -43 436 -62 q 324 -37 335 -42 z "},"":{"ha":525,"x_min":272,"x_max":874,"o":"m 463 679 q 485 651 471 669 q 506 624 499 633 q 526 603 514 615 q 549 581 538 590 q 563 556 561 571 q 554 528 564 540 q 529 514 544 515 q 501 522 514 513 q 472 550 488 535 q 448 576 457 565 q 425 606 439 586 l 404 632 q 396 660 394 644 q 410 685 397 675 q 438 693 422 694 q 463 679 453 692 m 378 428 q 347 194 349 314 q 364 82 347 118 q 403 58 376 54 q 489 151 450 65 q 536 307 515 211 q 551 394 536 311 q 558 429 556 421 q 560 438 558 435 q 568 450 563 444 q 597 463 579 463 q 629 443 618 461 l 633 428 l 633 425 l 633 422 l 633 414 q 622 336 632 400 q 606 225 610 268 q 603 119 599 158 q 617 67 606 78 q 667 54 643 42 q 725 121 694 68 q 772 227 751 167 q 797 324 792 288 q 813 348 800 339 q 840 355 825 357 q 865 340 856 353 q 872 313 874 328 q 843 203 865 269 q 790 83 821 136 q 700 -14 749 11 q 567 11 631 -49 q 533 74 543 33 q 414 -17 483 -4 q 296 50 332 -31 q 272 196 272 103 q 306 447 274 324 q 323 470 310 463 q 351 474 336 478 q 374 456 367 469 q 378 428 382 443 z "},"":{"ha":525,"x_min":272,"x_max":874,"o":"m 429 575 l 500 636 q 551 682 544 675 q 579 692 564 693 q 605 678 594 690 q 614 651 615 667 q 601 626 613 636 q 547 578 594 619 l 476 517 q 449 508 464 507 q 424 522 433 510 q 415 550 414 535 q 429 575 417 565 m 378 428 q 347 194 349 314 q 364 82 347 118 q 403 58 376 54 q 489 151 450 65 q 536 307 515 211 q 551 394 536 311 q 558 429 556 421 q 560 438 558 435 q 568 450 563 444 q 597 463 579 463 q 629 443 618 461 l 633 428 l 633 425 l 633 422 l 633 414 q 622 336 632 400 q 606 225 610 268 q 603 119 599 158 q 617 67 606 78 q 667 54 643 42 q 725 121 694 68 q 772 227 751 167 q 797 324 792 288 q 813 348 800 339 q 840 355 825 357 q 865 340 856 353 q 872 313 874 328 q 843 203 865 269 q 790 83 821 136 q 700 -14 749 11 q 567 11 631 -49 q 533 74 543 33 q 414 -17 483 -4 q 296 50 332 -31 q 272 196 272 103 q 306 447 274 324 q 323 470 310 463 q 351 474 336 478 q 374 456 367 469 q 378 428 382 443 z "},"":{"ha":525,"x_min":272,"x_max":874,"o":"m 382 583 l 417 622 q 439 647 436 646 q 461 669 451 663 q 496 683 478 683 q 556 646 528 686 q 604 572 558 643 q 609 543 613 558 q 592 519 606 528 q 564 515 579 511 q 540 531 549 518 q 524 558 533 543 l 508 583 l 497 600 l 494 597 l 438 533 q 411 521 426 521 q 384 531 396 521 q 372 557 372 542 q 382 583 372 572 m 378 428 q 347 194 349 314 q 364 82 347 118 q 403 58 376 54 q 489 151 450 65 q 536 307 515 211 q 551 394 536 311 q 558 429 556 421 q 560 438 558 435 q 568 450 563 444 q 597 463 579 463 q 629 443 618 461 l 633 428 l 633 425 l 633 422 l 633 414 q 622 336 632 400 q 606 225 610 268 q 603 119 599 158 q 617 67 606 78 q 667 54 643 42 q 725 121 694 68 q 772 227 751 167 q 797 324 792 288 q 813 348 800 339 q 840 355 825 357 q 865 340 856 353 q 872 313 874 328 q 843 203 865 269 q 790 83 821 136 q 700 -14 749 11 q 567 11 631 -49 q 533 74 543 33 q 414 -17 483 -4 q 296 50 332 -31 q 272 196 272 103 q 306 447 274 324 q 323 470 310 463 q 351 474 336 478 q 374 456 367 469 q 378 428 382 443 z "},"":{"ha":525,"x_min":272,"x_max":874,"o":"m 378 428 q 347 194 349 314 q 364 82 347 118 q 403 58 376 54 q 489 151 450 65 q 536 307 515 211 q 551 394 536 311 q 558 429 556 421 q 560 438 558 435 q 568 450 563 444 q 597 463 579 463 q 629 443 618 461 l 633 428 l 633 425 l 633 422 l 633 414 q 622 336 632 400 q 606 225 610 268 q 603 119 599 158 q 617 67 606 78 q 667 54 643 42 q 725 121 694 68 q 772 227 751 167 q 797 324 792 288 q 813 348 800 339 q 840 355 825 357 q 865 340 856 353 q 872 313 874 328 q 843 203 865 269 q 790 83 821 136 q 700 -14 749 11 q 567 11 631 -49 q 533 74 543 33 q 414 -17 483 -4 q 296 50 332 -31 q 272 196 272 103 q 306 447 274 324 q 323 470 310 463 q 351 474 336 478 q 374 456 367 469 q 378 428 382 443 m 478 657 q 489 631 489 646 q 478 604 489 615 q 451 593 467 593 q 425 604 436 593 q 414 631 414 615 q 425 657 414 646 q 451 668 436 668 q 478 657 467 668 m 586 642 q 597 615 597 631 q 586 589 597 600 q 560 578 575 578 q 533 589 544 578 q 522 615 522 600 q 533 642 522 631 q 560 653 544 653 q 586 642 575 653 z "},"":{"ha":457,"x_min":251,"x_max":813,"o":"m 528 -114 l 489 -142 q 407 -261 414 -200 q 412 -290 404 -279 q 429 -304 419 -301 q 443 -303 435 -306 q 466 -287 451 -301 q 493 -246 481 -274 q 528 -114 515 -197 m 372 406 q 332 165 338 246 q 340 47 326 85 q 353 29 346 33 q 371 28 358 25 q 408 58 388 32 q 451 136 429 86 q 511 297 476 189 q 535 383 519 324 q 543 417 542 408 q 547 428 546 424 q 557 443 550 436 q 581 453 568 453 q 613 439 600 454 q 617 430 615 435 q 621 422 619 425 l 621 419 l 621 393 q 618 356 619 381 q 614 292 614 300 q 613 176 613 258 q 613 43 614 94 q 687 153 661 93 q 736 310 713 214 q 752 333 739 325 q 781 338 765 342 q 804 322 796 335 q 808 293 813 308 q 747 104 782 179 q 639 -35 713 29 q 608 -60 625 -47 q 560 -279 597 -200 q 494 -360 533 -335 q 413 -376 456 -386 q 349 -332 372 -368 q 332 -253 326 -296 q 443 -82 343 -160 q 522 -28 465 -65 l 536 -18 q 538 11 536 -4 q 539 147 539 64 l 521 104 q 467 13 494 47 q 388 -44 429 -36 q 313 -35 344 -54 q 271 22 285 -17 q 257 169 251 74 q 300 422 263 257 q 316 446 303 438 q 344 451 329 454 q 368 434 360 447 q 372 406 376 421 m 431 518 l 533 629 q 558 642 543 640 q 585 633 574 643 q 599 607 597 622 q 589 579 600 592 l 486 465 q 460 454 475 454 q 433 465 444 454 q 421 490 421 475 q 431 518 421 506 z "},"":{"ha":763,"x_min":468,"x_max":1114,"o":"m 658 -11 l 642 -14 q 581 -22 604 -21 l 563 -22 q 544 -161 554 -92 q 529 -185 542 -176 q 501 -192 517 -194 q 477 -178 486 -190 q 469 -150 468 -165 q 529 660 529 265 q 540 686 529 675 q 567 697 551 697 q 593 686 582 697 q 604 660 604 675 q 600 447 604 554 q 711 499 649 489 q 842 471 783 511 q 921 343 901 431 q 914 199 938 272 q 838 72 890 126 q 1038 293 976 107 q 1057 314 1043 307 q 1085 316 1071 321 q 1107 297 1100 311 q 1110 268 1114 283 q 811 -8 1025 15 q 667 -11 800 -10 l 658 -11 m 651 64 q 715 79 704 75 q 826 181 786 107 q 849 326 865 254 q 800 408 835 385 q 722 425 765 432 q 642 384 678 418 q 599 300 607 350 q 592 285 596 292 q 572 63 583 174 l 585 63 q 651 64 608 64 z "},"":{"ha":457,"x_min":251,"x_max":813,"o":"m 528 -114 l 489 -142 q 407 -261 414 -200 q 412 -290 404 -279 q 429 -304 419 -301 q 443 -303 435 -306 q 466 -287 451 -301 q 493 -246 481 -274 q 528 -114 515 -197 m 372 406 q 332 165 338 246 q 340 47 326 85 q 353 29 346 33 q 371 28 358 25 q 408 58 388 32 q 451 136 429 86 q 511 297 476 189 q 535 383 519 324 q 543 417 542 408 q 547 428 546 424 q 557 443 550 436 q 581 453 568 453 q 613 439 600 454 q 617 430 615 435 q 621 422 619 425 l 621 419 l 621 393 q 618 356 619 381 q 614 292 614 300 q 613 176 613 258 q 613 43 614 94 q 687 153 661 93 q 736 310 713 214 q 752 333 739 325 q 781 338 765 342 q 804 322 796 335 q 808 293 813 308 q 747 104 782 179 q 639 -35 713 29 q 608 -60 625 -47 q 560 -279 597 -200 q 494 -360 533 -335 q 413 -376 456 -386 q 349 -332 372 -368 q 332 -253 326 -296 q 443 -82 343 -160 q 522 -28 465 -65 l 536 -18 q 538 11 536 -4 q 539 147 539 64 l 521 104 q 467 13 494 47 q 388 -44 429 -36 q 313 -35 344 -54 q 271 22 285 -17 q 257 169 251 74 q 300 422 263 257 q 316 446 303 438 q 344 451 329 454 q 368 434 360 447 q 372 406 376 421 m 457 558 q 468 532 468 547 q 457 506 468 517 q 431 494 446 494 q 404 506 415 494 q 393 532 393 517 q 404 558 393 547 q 431 569 415 569 q 457 558 446 569 m 558 561 q 569 535 569 550 q 558 508 569 519 q 532 497 547 497 q 506 508 517 497 q 494 535 494 519 q 506 561 494 550 q 532 572 517 572 q 558 561 547 572 z "},"":{"ha":653,"x_min":103,"x_max":1024,"o":"m 683 583 q 478 603 581 567 q 314 738 357 646 q 219 499 253 633 q 200 219 179 338 q 308 64 222 97 q 507 108 411 25 q 650 349 600 190 q 683 583 688 468 m 675 658 q 560 842 650 792 q 440 867 510 869 q 369 817 407 857 l 372 797 q 503 674 392 713 q 675 658 589 643 m 631 889 q 724 888 664 889 q 801 886 783 886 q 967 892 900 885 q 995 883 983 893 q 1008 858 1007 874 q 1000 830 1010 842 q 975 817 990 818 q 800 811 901 810 q 741 812 781 811 q 696 814 701 813 q 746 688 731 760 l 783 715 q 811 722 796 724 q 835 707 826 719 q 842 679 844 694 q 828 654 840 664 q 757 607 774 615 q 746 426 764 521 q 961 429 851 418 q 990 421 978 431 q 1003 395 1001 411 q 994 367 1004 379 q 969 354 985 356 q 729 353 846 343 l 721 325 q 563 57 667 153 q 988 54 753 61 q 1013 42 1003 54 q 1024 15 1024 31 q 1012 -10 1024 0 q 985 -21 1000 -21 q 432 -21 674 -12 q 419 -19 425 -21 q 281 -6 350 -32 q 126 207 156 42 q 146 517 103 340 q 265 801 188 682 q 299 847 282 826 q 321 893 304 874 q 411 939 351 929 q 428 940 419 940 q 450 943 439 943 q 464 942 457 943 q 596 908 542 938 l 626 889 l 631 889 z "},"":{"ha":361,"x_min":-46,"x_max":713,"o":"m 319 218 q 388 210 353 199 q 463 274 431 225 q 490 363 493 321 q 457 408 489 399 q 379 368 419 422 q 319 218 333 308 m 282 350 q 156 403 214 408 q 68 346 103 399 q 30 219 31 292 q 68 92 29 147 q 118 51 89 65 q 175 38 147 36 q 250 90 231 38 q 246 225 235 150 q 282 350 254 292 m 321 415 q 482 481 393 510 q 565 367 561 453 q 525 232 569 300 q 411 139 479 161 q 318 138 364 124 q 339 72 322 97 q 458 40 374 21 q 567 131 528 57 q 592 185 581 157 q 615 251 603 214 q 638 315 628 289 q 657 335 643 329 q 685 336 671 342 q 706 317 700 331 q 707 288 713 303 l 688 229 q 661 157 674 190 q 633 94 649 124 q 475 -32 579 -8 q 290 13 354 -60 q 176 -37 246 -37 q 85 -16 129 -39 q 10 47 40 7 q -44 221 -46 126 q 6 389 -43 315 q 149 478 61 469 q 321 415 233 485 z "},"":{"ha":360,"x_min":582,"x_max":714,"o":"m 710 925 q 656 793 689 863 q 635 774 650 779 q 606 776 619 769 q 587 797 592 782 q 589 826 582 813 q 638 947 619 890 q 657 969 643 963 q 685 972 671 976 q 707 953 700 967 q 710 925 714 939 z "},"":{"ha":301,"x_min":551,"x_max":653,"o":"m 628 951 q 653 796 650 883 q 642 769 653 781 q 617 757 632 757 q 590 767 601 757 q 578 793 578 778 q 556 929 575 869 q 558 957 551 943 q 580 976 565 971 q 608 974 594 981 q 628 951 622 967 z "},"":{"ha":463,"x_min":581,"x_max":818,"o":"m 713 914 q 656 783 657 785 q 636 763 650 769 q 608 763 622 757 q 587 782 593 768 q 586 811 581 796 q 643 944 588 814 q 664 964 650 958 q 692 963 678 969 q 713 943 707 957 q 713 914 718 929 m 814 904 q 788 840 804 879 q 763 779 767 790 q 743 759 757 765 q 715 758 729 753 q 694 778 700 764 q 693 807 688 792 q 719 869 693 808 q 742 929 735 906 q 761 950 747 943 q 790 952 775 957 q 811 933 804 947 q 814 904 818 919 z "},"":{"ha":471,"x_min":601,"x_max":825,"o":"m 678 917 q 699 850 685 890 q 724 778 718 796 q 720 749 728 763 q 698 731 713 735 q 669 734 683 726 q 651 756 656 742 q 628 825 647 772 q 606 900 613 869 q 610 928 601 915 q 633 945 618 942 q 662 940 649 949 q 678 917 675 932 m 775 942 q 794 883 776 935 q 821 804 813 831 q 817 775 825 789 q 795 757 810 761 q 767 760 781 753 q 749 782 753 768 q 723 860 740 810 q 703 917 706 910 q 706 946 699 932 q 727 965 713 960 q 756 963 742 969 q 775 942 769 956 z "},"":{"ha":506,"x_min":383,"x_max":858,"o":"m 792 713 q 458 7 678 492 q 437 -12 451 -7 q 408 -12 422 -18 q 389 9 394 -6 q 389 38 383 24 q 725 746 610 525 q 747 765 732 760 q 776 763 763 769 q 794 740 789 756 q 792 713 799 725 m 493 704 q 504 678 504 693 q 493 651 504 663 q 467 640 482 640 q 440 651 451 640 q 429 678 429 663 q 440 704 429 693 q 467 715 451 715 q 493 704 482 715 m 847 97 q 858 71 858 86 q 847 44 858 56 q 821 33 836 33 q 794 44 806 33 q 783 71 783 56 q 794 97 783 86 q 821 108 806 108 q 847 97 836 108 m 708 103 q 719 76 719 92 q 708 50 719 61 q 682 39 697 39 q 656 50 667 39 q 644 76 644 61 q 656 103 644 92 q 682 114 667 114 q 708 103 697 114 z "},"":{"ha":818,"x_min":388,"x_max":1168,"o":"m 936 521 q 932 813 971 729 q 900 849 919 840 q 856 844 882 856 q 731 740 796 824 q 629 542 665 656 q 714 556 675 544 q 742 552 728 560 q 760 530 756 544 q 756 501 764 515 q 733 483 749 488 q 610 467 678 467 l 608 465 q 597 374 600 417 q 700 376 656 376 q 726 365 715 376 q 738 339 738 354 q 726 313 738 324 q 700 301 715 301 q 597 299 656 301 q 643 163 606 214 q 735 96 681 111 q 914 124 814 72 q 1096 307 1014 176 q 1119 324 1104 321 q 1148 319 1135 328 q 1165 296 1161 311 q 1160 268 1168 281 q 944 56 1067 121 q 714 24 825 -10 q 583 117 633 47 q 524 294 533 188 q 426 289 463 290 q 399 299 411 289 q 388 325 388 310 q 398 352 388 340 q 424 364 408 364 q 522 369 460 365 q 533 469 524 417 q 443 485 488 474 q 419 501 428 488 q 415 529 411 514 q 431 553 418 544 q 460 557 444 561 q 551 543 506 547 q 669 781 590 678 q 829 915 747 885 q 928 918 883 935 q 1000 844 975 900 q 1011 510 1049 738 q 996 485 1008 494 q 968 478 983 476 q 944 493 953 481 q 936 521 935 506 z "},"":{"ha":731,"x_min":42,"x_max":1081,"o":"m 81 728 q 138 735 115 726 q 201 772 161 744 l 203 775 l 210 781 q 261 799 233 806 q 274 794 268 797 q 281 788 279 790 l 283 785 q 288 778 286 782 q 296 764 292 772 q 317 721 306 747 q 368 589 344 657 q 408 443 399 504 q 397 319 424 357 q 289 257 369 282 q 157 236 218 235 q 99 249 121 238 q 64 310 61 268 q 99 374 67 339 q 179 443 126 404 q 207 449 192 451 q 231 435 222 447 q 238 407 240 422 q 224 382 236 392 q 154 324 176 349 q 144 313 149 317 q 160 311 151 311 q 267 328 207 310 q 336 364 324 346 q 335 431 344 375 q 297 565 325 483 q 249 690 275 632 l 240 707 q 161 664 194 676 q 78 653 128 651 q 52 665 63 653 q 42 692 42 676 q 53 717 42 707 q 81 728 65 728 m 461 813 q 517 750 478 797 l 589 665 l 628 621 l 628 658 q 647 846 632 831 l 649 851 q 650 867 650 864 q 660 893 653 882 q 682 910 668 906 q 711 908 697 914 q 728 896 721 904 q 731 892 729 894 l 733 886 q 736 878 735 883 q 744 856 739 869 l 767 788 l 783 742 q 796 700 792 714 q 801 683 800 686 q 1051 400 892 449 q 1074 382 1067 396 q 1076 353 1081 368 q 1058 331 1072 338 q 1029 328 1044 324 q 732 656 835 388 l 707 732 q 703 657 704 699 l 703 575 l 703 549 q 701 539 701 542 l 701 533 q 700 528 700 531 q 681 506 696 514 q 643 506 664 496 q 628 515 636 508 q 600 540 617 524 q 532 615 575 565 l 499 656 q 553 340 550 457 q 542 313 553 325 q 517 301 532 301 q 490 312 501 301 q 478 338 478 322 q 464 474 476 406 q 424 645 451 542 q 389 785 397 749 q 393 813 385 800 q 417 829 401 826 q 451 819 436 835 q 461 813 457 817 z "},"":{"ha":1389,"x_min":0,"x_max":0,"o":""},"":{"ha":883,"x_min":-165,"x_max":1236,"o":"m 132 482 q 131 492 132 488 q 144 739 113 626 q 304 932 186 888 q 333 931 319 938 q 353 910 347 925 q 352 882 358 896 q 332 863 346 868 q 217 718 247 831 q 206 503 189 621 q 213 467 207 493 l 226 415 l 238 361 q 238 311 242 329 q 217 282 235 290 q 176 285 196 271 q 158 303 168 290 l 149 318 q 143 326 144 325 q 69 442 124 351 q 53 469 67 447 q 36 497 40 490 q 20 523 32 503 q 4 551 8 543 q -10 578 0 560 q -26 608 -21 597 l -39 636 q -51 667 -47 653 l -62 697 l -75 729 q -72 758 -79 744 q -50 776 -65 771 q -22 774 -35 781 q -3 751 -8 767 q 32 662 10 708 q 71 586 54 615 l 122 500 q 132 482 129 488 m -28 149 q 76 18 -1 108 q 106 74 94 46 q 125 163 126 133 q 90 211 124 196 q -14 165 47 231 l -28 149 m 447 -39 q 301 -65 374 -40 q 186 -132 225 -92 q 215 -199 204 -165 q 214 -224 219 -211 q 196 -243 208 -237 q 240 -244 213 -250 q 346 -192 292 -235 q 447 -39 433 -124 m 197 29 q 192 8 197 18 q 131 -47 181 -11 l 146 -67 q 276 6 196 -22 q 438 36 357 33 q 358 76 418 75 q 224 43 289 79 l 197 29 m 1147 526 q 1143 579 1149 547 q 1111 672 1133 624 q 1118 594 1110 635 q 1146 529 1125 564 l 1147 526 m 1113 235 q 1119 240 1115 236 q 1113 235 1117 238 m 521 325 q 493 347 501 329 q 456 404 472 390 l 453 399 q 443 320 439 374 q 469 226 447 267 q 500 181 486 199 q 529 154 517 160 q 538 196 535 167 q 532 307 540 238 q 521 325 525 317 m 521 446 q 528 450 524 449 q 571 447 550 463 q 585 428 579 440 q 604 333 594 407 q 633 297 617 315 q 690 250 665 263 q 674 304 693 269 l 661 326 q 647 350 651 340 q 638 415 631 385 q 657 443 642 433 q 693 444 675 453 q 714 429 703 440 l 724 419 q 728 415 726 417 q 731 413 729 413 q 793 369 783 374 q 828 369 817 358 q 838 442 842 381 q 822 542 835 483 q 799 604 817 564 l 788 628 q 783 639 783 635 q 781 649 782 643 q 796 681 779 668 q 836 683 815 694 l 844 678 q 878 633 863 661 q 879 671 878 653 q 938 833 885 789 q 1072 839 1000 885 l 1081 833 q 1172 940 1114 890 q 1200 950 1185 951 q 1226 937 1215 949 q 1235 910 1236 925 q 1222 885 1233 894 q 1135 776 1161 832 q 1164 732 1151 756 q 1217 594 1203 664 q 1204 469 1233 511 q 1171 443 1190 450 q 1126 444 1149 435 q 1081 492 1101 456 q 1046 578 1054 536 q 1050 761 1025 679 q 1032 776 1040 771 q 985 775 1006 792 q 954 667 958 753 q 965 511 950 596 l 990 482 q 1078 375 1049 415 q 1151 261 1131 301 q 1167 219 1164 236 q 1163 190 1169 203 q 1128 165 1153 168 q 981 254 1046 156 q 913 408 940 315 q 881 314 911 343 q 761 301 832 268 l 757 304 q 753 206 775 253 q 704 172 738 175 q 657 183 682 169 q 613 213 636 193 l 613 190 q 592 113 608 139 q 556 82 578 89 q 506 83 532 72 q 494 88 500 85 q 515 44 508 68 l 518 31 q 683 -56 628 14 q 692 -83 693 -68 q 678 -108 690 -99 q 650 -117 665 -118 q 625 -103 635 -115 q 522 -46 592 -61 q 478 -158 514 -104 q 392 -251 442 -211 q 254 -318 324 -304 q 122 -281 168 -335 q 97 -129 60 -208 q 28 -40 74 -94 q -72 81 -49 47 q -89 36 -85 54 q -105 13 -92 21 q -133 8 -118 4 q -157 24 -149 11 q -161 53 -165 38 q -117 154 -151 97 q -117 182 -122 168 q -99 203 -112 196 q -78 207 -89 208 l -68 217 q 121 281 29 321 q 200 167 197 246 q 196 114 201 143 q 360 151 276 154 q 443 132 407 150 l 442 133 q 406 190 424 156 q 369 315 374 244 q 383 426 364 385 q 417 472 394 454 q 472 479 440 490 q 521 446 497 472 m 375 513 q 386 486 386 501 q 375 460 386 471 q 349 449 364 449 q 322 460 333 449 q 311 486 311 471 q 322 513 311 501 q 349 524 333 524 q 375 513 364 524 z "}}}
